{"glyphs":{"0":{"ha":789,"x_min":44,"x_max":744,"o":"m 388 801 q 579 772 503 801 q 700 652 656 742 q 744 392 744 563 q 701 138 744 228 q 581 15 658 49 q 389 -18 504 -18 q 133 70 222 -18 q 44 374 44 158 q 131 696 44 590 q 388 801 217 801 m 396 161 q 486 216 465 161 q 507 389 507 271 q 482 567 507 510 q 388 625 457 625 q 322 608 339 625 q 301 525 310 594 q 292 383 292 456 q 316 211 292 261 q 396 161 340 161 z "},"1":{"ha":540,"x_min":1,"x_max":443,"o":"m 443 792 l 443 0 l 200 0 l 200 592 l 28 556 l 1 701 l 247 792 l 443 792 z "},"2":{"ha":694,"x_min":43,"x_max":653,"o":"m 653 185 l 653 0 l 43 0 l 43 154 q 178 265 114 211 q 321 390 242 318 q 378 465 360 425 q 396 542 396 506 q 378 600 396 579 q 217 615 363 615 l 124 614 q 79 613 106 613 q 70 689 75 632 q 65 774 65 746 q 326 801 222 801 q 552 748 468 801 q 636 564 636 694 q 604 435 636 501 q 479 297 572 369 q 315 182 417 249 l 653 185 z "},"3":{"ha":665,"x_min":36,"x_max":619,"o":"m 435 404 q 576 349 533 397 q 619 228 619 300 q 542 53 619 124 q 293 -17 464 -17 q 36 6 178 -17 l 64 158 q 228 153 189 153 q 340 172 304 153 q 375 249 375 192 q 349 309 375 289 q 276 335 324 329 q 142 340 229 340 l 142 469 q 274 474 229 469 q 344 497 319 479 q 368 554 368 515 q 367 607 368 588 q 357 632 365 626 q 258 639 346 639 q 65 633 179 639 l 51 781 q 294 801 203 801 q 513 750 428 801 q 599 583 599 699 q 560 473 599 525 q 435 408 522 421 l 435 404 z "},"4":{"ha":736,"x_min":10,"x_max":715,"o":"m 715 164 l 596 164 l 596 0 l 353 0 l 353 164 l 57 164 l 10 306 q 165 547 69 414 q 353 792 261 681 l 596 792 l 596 325 l 715 325 l 715 164 m 357 571 q 197 325 278 457 l 357 325 l 357 571 z "},"5":{"ha":679,"x_min":31,"x_max":644,"o":"m 369 494 q 578 423 511 494 q 644 239 644 351 q 290 -17 644 -17 q 31 6 176 -17 l 61 158 q 233 146 176 146 q 363 169 318 146 q 407 250 407 193 q 401 291 407 269 q 382 318 394 313 q 352 324 376 321 q 294 326 328 326 q 93 310 192 326 l 86 317 l 143 792 l 613 792 l 613 607 l 315 608 l 300 490 q 369 494 338 494 z "},"6":{"ha":726,"x_min":42,"x_max":694,"o":"m 447 514 q 644 435 593 514 q 694 261 694 356 q 616 58 694 133 q 376 -18 538 -18 q 122 79 201 -18 q 42 374 42 176 q 133 692 42 585 q 393 799 225 799 q 521 792 461 799 q 614 774 581 785 l 588 626 q 482 632 513 632 q 333 597 383 632 q 274 465 282 561 q 363 501 315 489 q 447 514 410 514 m 371 153 q 465 258 465 153 q 447 332 465 307 q 378 346 435 346 q 279 335 326 346 q 276 294 276 310 q 300 194 276 236 q 371 153 324 153 z "},"7":{"ha":636,"x_min":17,"x_max":632,"o":"m 632 792 l 632 643 q 467 317 550 494 q 335 -12 383 139 l 108 38 q 393 610 208 314 l 17 610 l 17 792 l 632 792 z "},"8":{"ha":756,"x_min":49,"x_max":708,"o":"m 539 438 q 668 344 628 397 q 708 217 708 290 q 612 44 708 104 q 371 -15 515 -15 q 138 35 228 -15 q 49 188 49 86 q 91 300 49 244 q 211 390 133 356 q 109 484 144 429 q 74 592 74 539 q 163 749 74 696 q 382 801 251 801 q 675 610 675 801 q 539 438 675 521 m 383 667 q 323 648 343 667 q 303 590 303 629 q 333 533 303 556 q 414 489 363 510 q 482 586 482 536 q 458 647 482 628 q 383 667 433 667 m 374 118 q 439 140 411 118 q 467 200 467 161 q 440 262 467 238 q 350 317 413 286 q 291 263 313 290 q 269 200 269 235 q 302 140 269 163 q 374 118 335 118 z "},"9":{"ha":726,"x_min":50,"x_max":703,"o":"m 368 801 q 623 704 543 801 q 703 410 703 607 q 611 92 703 199 q 351 -15 519 -15 q 224 -8 283 -15 q 131 10 164 -1 l 157 157 q 263 151 232 151 q 412 187 361 151 q 471 318 463 222 q 382 282 429 294 q 297 269 335 269 q 101 349 151 269 q 50 522 50 428 q 128 726 50 650 q 368 801 207 801 m 465 449 q 468 489 468 474 q 444 589 468 547 q 374 631 421 631 q 279 525 279 631 q 297 451 279 476 q 367 438 310 438 q 465 449 418 438 z "}," ":{"ha":208,"x_min":0,"x_max":0,"o":""},"A":{"ha":826,"x_min":0,"x_max":826,"o":"m 528 174 l 297 174 l 256 0 l 0 0 l 256 792 l 582 792 l 826 0 l 569 0 l 528 174 m 411 621 l 329 328 l 494 328 l 417 621 l 411 621 z "},"Á":{"ha":826,"x_min":0,"x_max":826,"o":"m 528 174 l 297 174 l 256 0 l 0 0 l 256 792 l 582 792 l 826 0 l 569 0 l 528 174 m 411 621 l 329 328 l 494 328 l 417 621 l 411 621 m 306 904 q 403 990 338 939 q 533 1086 468 1042 l 607 978 q 489 901 563 947 q 361 824 415 856 l 306 904 z "},"Ă":{"ha":826,"x_min":0,"x_max":826,"o":"m 528 174 l 297 174 l 256 0 l 0 0 l 256 792 l 582 792 l 826 0 l 569 0 l 528 174 m 411 621 l 329 328 l 494 328 l 417 621 l 411 621 m 414 842 q 289 892 336 842 q 242 1026 242 943 l 328 1026 q 356 967 333 986 q 414 949 379 949 q 472 968 449 949 q 500 1026 494 988 l 586 1026 q 538 891 586 940 q 414 842 490 842 z "},"Ắ":{"ha":826,"x_min":0,"x_max":826,"o":"m 528 174 l 297 174 l 256 0 l 0 0 l 256 792 l 582 792 l 826 0 l 569 0 l 528 174 m 411 621 l 329 328 l 494 328 l 417 621 l 411 621 m 607 1122 q 413 1000 536 1082 l 350 1076 q 524 1226 431 1156 l 607 1122 m 414 828 q 289 878 336 828 q 242 1013 242 929 l 328 1013 q 356 953 333 972 q 414 935 379 935 q 472 954 449 935 q 500 1013 494 974 l 586 1013 q 538 877 586 926 q 414 828 490 828 z "},"Ặ":{"ha":826,"x_min":0,"x_max":826,"o":"m 528 174 l 297 174 l 256 0 l 0 0 l 256 792 l 582 792 l 826 0 l 569 0 l 528 174 m 411 621 l 329 328 l 494 328 l 417 621 l 411 621 m 510 -169 q 485 -242 510 -215 q 415 -268 460 -268 q 348 -242 372 -268 q 324 -172 324 -217 q 348 -100 324 -126 q 415 -74 372 -74 q 484 -99 458 -74 q 510 -169 510 -125 m 414 842 q 289 892 336 842 q 242 1026 242 943 l 328 1026 q 356 967 333 986 q 414 949 379 949 q 472 968 449 949 q 500 1026 494 988 l 586 1026 q 538 891 586 940 q 414 842 490 842 z "},"Ằ":{"ha":826,"x_min":0,"x_max":826,"o":"m 528 174 l 297 174 l 256 0 l 0 0 l 256 792 l 582 792 l 826 0 l 569 0 l 528 174 m 411 621 l 329 328 l 494 328 l 417 621 l 411 621 m 314 1240 q 488 1090 407 1169 l 425 1014 q 231 1136 301 1096 l 314 1240 m 414 842 q 289 892 336 842 q 242 1026 242 943 l 328 1026 q 356 967 333 986 q 414 949 379 949 q 472 968 449 949 q 500 1026 494 988 l 586 1026 q 538 891 586 940 q 414 842 490 842 z "},"Ẳ":{"ha":826,"x_min":0,"x_max":826,"o":"m 528 174 l 297 174 l 256 0 l 0 0 l 256 792 l 582 792 l 826 0 l 569 0 l 528 174 m 411 621 l 329 328 l 494 328 l 417 621 l 411 621 m 356 1097 q 410 1123 396 1110 q 424 1150 424 1136 q 314 1203 424 1190 l 346 1293 q 481 1249 432 1286 q 533 1163 531 1213 q 504 1074 538 1111 q 386 1022 471 1036 l 356 1097 m 414 842 q 289 892 336 842 q 242 1026 242 943 l 328 1026 q 356 967 333 986 q 414 949 379 949 q 472 968 449 949 q 500 1026 494 988 l 586 1026 q 538 891 586 940 q 414 842 490 842 z "},"Ẵ":{"ha":826,"x_min":0,"x_max":826,"o":"m 218 1072 q 238 1160 213 1118 q 324 1201 264 1201 q 407 1182 357 1201 q 438 1172 413 1181 q 488 1164 463 1164 q 524 1196 524 1164 l 597 1196 q 599 1178 599 1190 q 570 1099 599 1132 q 492 1067 542 1067 q 399 1089 457 1067 q 328 1107 353 1107 q 299 1098 306 1107 q 292 1072 292 1089 l 218 1072 m 407 947 q 460 966 439 947 q 486 1019 482 985 l 567 1019 q 522 894 567 940 q 407 849 478 849 q 291 896 335 849 q 247 1019 247 943 l 328 1019 q 354 965 333 982 q 407 947 375 947 m 528 174 l 297 174 l 256 0 l 0 0 l 256 792 l 582 792 l 826 0 l 569 0 l 528 174 m 411 621 l 329 328 l 494 328 l 417 621 l 411 621 z "},"Ǎ":{"ha":826,"x_min":0,"x_max":826,"o":"m 528 174 l 297 174 l 256 0 l 0 0 l 256 792 l 582 792 l 826 0 l 569 0 l 528 174 m 411 621 l 329 328 l 494 328 l 417 621 l 411 621 m 643 1022 l 467 871 l 358 871 l 185 1024 l 244 1096 l 417 983 l 586 1096 l 643 1022 z "},"Â":{"ha":826,"x_min":0,"x_max":826,"o":"m 528 174 l 297 174 l 256 0 l 0 0 l 256 792 l 582 792 l 826 0 l 569 0 l 528 174 m 411 621 l 329 328 l 494 328 l 417 621 l 411 621 m 586 832 l 417 956 l 244 832 l 185 904 l 358 1071 l 467 1071 l 643 906 l 586 832 z "},"Ấ":{"ha":826,"x_min":0,"x_max":826,"o":"m 528 174 l 297 174 l 256 0 l 0 0 l 256 792 l 582 792 l 826 0 l 569 0 l 528 174 m 411 621 l 329 328 l 494 328 l 417 621 l 411 621 m 749 1121 q 572 1011 642 1068 l 510 1074 q 581 1158 544 1124 q 665 1225 618 1193 l 749 1121 m 469 1043 q 564 947 490 1024 l 604 906 l 547 832 l 510 861 q 419 929 451 908 q 289 832 369 897 l 229 904 q 361 1043 297 983 l 469 1043 z "},"Ậ":{"ha":826,"x_min":0,"x_max":826,"o":"m 528 174 l 297 174 l 256 0 l 0 0 l 256 792 l 582 792 l 826 0 l 569 0 l 528 174 m 411 621 l 329 328 l 494 328 l 417 621 l 411 621 m 510 -169 q 485 -242 510 -215 q 415 -268 460 -268 q 348 -242 372 -268 q 324 -172 324 -217 q 348 -100 324 -126 q 415 -74 372 -74 q 484 -99 458 -74 q 510 -169 510 -125 m 586 832 l 417 956 l 244 832 l 185 904 l 358 1071 l 467 1071 l 643 906 l 586 832 z "},"Ầ":{"ha":826,"x_min":0,"x_max":826,"o":"m 528 174 l 297 174 l 256 0 l 0 0 l 256 792 l 582 792 l 826 0 l 569 0 l 528 174 m 411 621 l 329 328 l 494 328 l 417 621 l 411 621 m 261 1011 q 85 1121 192 1068 l 168 1225 q 252 1158 215 1193 q 324 1074 289 1124 l 261 1011 m 544 832 q 414 929 464 897 q 324 861 382 908 l 286 832 l 229 906 l 269 947 q 364 1043 343 1024 l 472 1043 q 604 904 536 983 l 544 832 z "},"Ẩ":{"ha":826,"x_min":0,"x_max":826,"o":"m 528 174 l 297 174 l 256 0 l 0 0 l 256 792 l 582 792 l 826 0 l 569 0 l 528 174 m 411 621 l 329 328 l 494 328 l 417 621 l 411 621 m 424 1196 q 314 1249 424 1236 l 346 1339 q 481 1295 432 1332 q 533 1208 531 1258 q 504 1119 538 1157 q 386 1068 471 1082 l 356 1143 q 410 1169 396 1156 q 424 1196 424 1182 m 544 832 q 414 929 464 897 q 324 861 382 908 l 286 832 l 229 906 l 269 947 q 364 1043 343 1024 l 472 1043 q 604 904 536 983 l 544 832 z "},"Ẫ":{"ha":826,"x_min":0,"x_max":826,"o":"m 528 174 l 297 174 l 256 0 l 0 0 l 256 792 l 582 792 l 826 0 l 569 0 l 528 174 m 411 621 l 329 328 l 494 328 l 417 621 l 411 621 m 328 1121 q 299 1112 306 1121 q 292 1086 292 1103 l 218 1086 q 238 1174 213 1132 q 324 1215 264 1215 q 407 1196 357 1215 q 438 1186 413 1194 q 488 1178 463 1178 q 524 1210 524 1178 l 597 1210 q 599 1192 599 1204 q 570 1113 599 1146 q 492 1081 542 1081 q 399 1103 457 1081 q 328 1121 353 1121 m 544 832 q 414 929 464 897 q 324 861 382 908 l 286 832 l 229 906 l 269 947 q 364 1043 343 1024 l 472 1043 q 604 904 536 983 l 544 832 z "},"Ä":{"ha":826,"x_min":0,"x_max":826,"o":"m 528 174 l 297 174 l 256 0 l 0 0 l 256 792 l 582 792 l 826 0 l 569 0 l 528 174 m 411 621 l 329 328 l 494 328 l 417 621 l 411 621 m 378 953 q 351 876 378 904 q 279 849 325 849 q 207 876 233 849 q 181 950 181 903 q 207 1026 181 999 q 279 1054 233 1054 q 352 1027 326 1054 q 378 953 378 1000 m 650 953 q 623 877 650 906 q 550 849 596 849 q 478 876 504 849 q 453 950 453 903 q 478 1026 453 999 q 550 1054 504 1054 q 623 1027 596 1054 q 650 953 650 1000 z "},"Ǟ":{"ha":826,"x_min":0,"x_max":826,"o":"m 528 174 l 297 174 l 256 0 l 0 0 l 256 792 l 582 792 l 826 0 l 569 0 l 528 174 m 411 621 l 329 328 l 494 328 l 417 621 l 411 621 m 378 953 q 351 876 378 904 q 279 849 325 849 q 207 876 233 849 q 181 950 181 903 q 207 1026 181 999 q 279 1054 233 1054 q 352 1027 326 1054 q 378 953 378 1000 m 650 953 q 623 877 650 906 q 550 849 596 849 q 478 876 504 849 q 453 950 453 903 q 478 1026 453 999 q 550 1054 504 1054 q 623 1027 596 1054 q 650 953 650 1000 m 215 1238 l 613 1238 l 613 1119 l 215 1119 l 215 1238 z "},"Ạ":{"ha":826,"x_min":0,"x_max":826,"o":"m 528 174 l 297 174 l 256 0 l 0 0 l 256 792 l 582 792 l 826 0 l 569 0 l 528 174 m 411 621 l 329 328 l 494 328 l 417 621 l 411 621 m 510 -169 q 485 -242 510 -215 q 415 -268 460 -268 q 348 -242 372 -268 q 324 -172 324 -217 q 348 -100 324 -126 q 415 -74 372 -74 q 484 -99 458 -74 q 510 -169 510 -125 z "},"À":{"ha":826,"x_min":0,"x_max":826,"o":"m 528 174 l 297 174 l 256 0 l 0 0 l 256 792 l 582 792 l 826 0 l 569 0 l 528 174 m 411 621 l 329 328 l 494 328 l 417 621 l 411 621 m 463 825 q 335 903 408 857 q 217 979 261 949 l 290 1088 q 421 992 356 1043 q 518 906 486 940 l 463 825 z "},"Ả":{"ha":826,"x_min":0,"x_max":826,"o":"m 528 174 l 297 174 l 256 0 l 0 0 l 256 792 l 582 792 l 826 0 l 569 0 l 528 174 m 411 621 l 329 328 l 494 328 l 417 621 l 411 621 m 342 943 q 407 969 390 956 q 424 996 424 982 q 300 1063 424 1046 l 332 1167 q 477 1113 424 1158 q 533 1008 531 1068 q 372 840 542 871 l 342 943 z "},"Ā":{"ha":826,"x_min":0,"x_max":826,"o":"m 528 174 l 297 174 l 256 0 l 0 0 l 256 792 l 582 792 l 826 0 l 569 0 l 528 174 m 411 621 l 329 328 l 494 328 l 417 621 l 411 621 m 215 975 l 613 975 l 613 857 l 215 857 l 215 975 z "},"Ą":{"ha":826,"x_min":0,"x_max":826,"o":"m 607 -175 q 672 -242 607 -242 q 753 -225 700 -242 l 768 -307 q 632 -354 704 -354 q 520 -315 565 -354 q 475 -207 475 -275 q 606 0 475 -101 l 569 0 l 528 174 l 297 174 l 256 0 l 0 0 l 256 792 l 582 792 l 826 0 l 719 0 q 634 -93 661 -51 q 607 -175 607 -135 m 411 621 l 329 328 l 494 328 l 417 621 l 411 621 z "},"Å":{"ha":826,"x_min":0,"x_max":826,"o":"m 528 174 l 297 174 l 256 0 l 0 0 l 256 792 l 582 792 l 826 0 l 569 0 l 528 174 m 411 621 l 329 328 l 494 328 l 417 621 l 411 621 m 546 981 q 508 888 546 926 q 414 850 469 850 q 320 887 357 850 q 283 981 283 924 q 322 1074 283 1038 q 417 1111 360 1111 q 510 1075 474 1111 q 546 981 546 1039 m 476 982 q 459 1029 476 1013 q 414 1046 442 1046 q 370 1027 388 1046 q 353 981 353 1008 q 370 933 353 951 q 417 915 388 915 q 460 935 443 915 q 476 982 476 954 z "},"Ã":{"ha":826,"x_min":0,"x_max":826,"o":"m 528 174 l 297 174 l 256 0 l 0 0 l 256 792 l 582 792 l 826 0 l 569 0 l 528 174 m 411 621 l 329 328 l 494 328 l 417 621 l 411 621 m 622 992 q 624 971 624 985 q 592 885 624 921 q 506 849 561 849 q 460 855 482 849 q 404 872 438 861 q 325 893 353 893 q 293 883 301 893 q 285 856 285 874 l 204 856 l 203 872 q 232 960 203 921 q 321 999 261 999 q 363 994 343 999 q 413 978 382 989 q 501 957 467 957 q 542 992 542 957 l 622 992 z "},"Æ":{"ha":1267,"x_min":0,"x_max":1225,"o":"m 899 625 l 899 481 l 1174 481 l 1174 331 l 899 331 l 899 169 l 1224 169 l 1224 0 l 649 0 l 649 174 l 388 174 l 278 0 l 0 0 l 507 792 l 775 792 l 1225 792 l 1225 625 l 899 625 m 649 328 l 649 590 l 483 328 l 649 328 z "},"B":{"ha":793,"x_min":69,"x_max":758,"o":"m 583 418 q 718 355 678 407 q 758 229 758 303 q 744 142 758 183 q 711 73 731 101 q 678 36 692 44 q 339 0 622 0 l 69 0 l 69 792 l 396 792 q 576 780 507 792 q 688 727 644 768 q 731 603 731 686 q 695 486 731 531 q 583 425 660 442 l 583 418 m 472 624 q 440 641 458 638 q 381 644 421 644 q 319 643 340 644 l 319 474 l 333 474 q 392 474 340 474 q 460 481 443 474 q 483 510 472 486 q 493 561 493 533 q 472 624 493 603 m 496 160 q 512 191 506 168 q 518 238 518 214 q 510 292 518 267 q 490 329 503 318 q 455 346 478 342 q 378 350 432 350 q 319 349 343 350 l 319 147 q 436 149 385 146 q 496 160 488 153 z "},"Ḅ":{"ha":793,"x_min":69,"x_max":758,"o":"m 583 418 q 718 355 678 407 q 758 229 758 303 q 744 142 758 183 q 711 73 731 101 q 678 36 692 44 q 339 0 622 0 l 69 0 l 69 792 l 396 792 q 576 780 507 792 q 688 727 644 768 q 731 603 731 686 q 695 486 731 531 q 583 425 660 442 l 583 418 m 472 624 q 440 641 458 638 q 381 644 421 644 q 319 643 340 644 l 319 474 l 333 474 q 392 474 340 474 q 460 481 443 474 q 483 510 472 486 q 493 561 493 533 q 472 624 493 603 m 496 160 q 512 191 506 168 q 518 238 518 214 q 510 292 518 267 q 490 329 503 318 q 455 346 478 342 q 378 350 432 350 q 319 349 343 350 l 319 147 q 436 149 385 146 q 496 160 488 153 m 485 -169 q 460 -242 485 -215 q 390 -268 435 -268 q 323 -242 347 -268 q 299 -172 299 -217 q 323 -100 299 -126 q 390 -74 347 -74 q 459 -99 433 -74 q 485 -169 485 -125 z "},"Ƀ":{"ha":793,"x_min":3,"x_max":758,"o":"m 583 418 q 718 355 678 407 q 758 229 758 303 q 744 142 758 183 q 711 73 731 101 q 678 36 692 44 q 339 0 622 0 l 69 0 l 69 363 l 3 363 l 3 458 l 69 458 l 69 792 l 396 792 q 576 780 507 792 q 688 727 644 768 q 731 603 731 686 q 695 486 731 531 q 583 425 660 442 l 583 418 m 472 624 q 440 641 458 638 q 381 644 421 644 q 319 643 340 644 l 319 474 l 333 474 q 392 474 340 474 q 460 481 443 474 q 483 510 472 486 q 493 561 493 533 q 472 624 493 603 m 496 160 q 512 191 506 168 q 518 238 518 214 q 510 292 518 267 q 490 329 503 318 q 455 346 478 342 q 378 350 432 350 q 319 349 343 350 l 319 147 q 436 149 385 146 q 496 160 488 153 z "},"C":{"ha":713,"x_min":42,"x_max":690,"o":"m 690 26 q 571 -6 639 4 q 444 -15 503 -15 q 149 83 256 -15 q 42 386 42 182 q 154 698 42 594 q 471 801 267 801 q 674 775 568 801 q 668 692 674 747 q 657 615 663 638 l 569 615 q 419 612 474 615 q 353 599 364 608 q 321 520 332 579 q 310 407 310 461 q 333 262 310 313 q 393 194 357 211 q 508 178 428 178 q 675 189 572 178 l 690 26 z "},"Ć":{"ha":713,"x_min":42,"x_max":690,"o":"m 690 26 q 571 -6 639 4 q 444 -15 503 -15 q 149 83 256 -15 q 42 386 42 182 q 154 698 42 594 q 471 801 267 801 q 674 775 568 801 q 668 692 674 747 q 657 615 663 638 l 569 615 q 419 612 474 615 q 353 599 364 608 q 321 520 332 579 q 310 407 310 461 q 333 262 310 313 q 393 194 357 211 q 508 178 428 178 q 675 189 572 178 l 690 26 m 335 915 q 432 1001 367 950 q 563 1097 497 1053 l 636 989 q 518 913 592 958 q 390 835 444 867 l 335 915 z "},"Č":{"ha":713,"x_min":42,"x_max":690,"o":"m 690 26 q 571 -6 639 4 q 444 -15 503 -15 q 149 83 256 -15 q 42 386 42 182 q 154 698 42 594 q 471 801 267 801 q 674 775 568 801 q 668 692 674 747 q 657 615 663 638 l 569 615 q 419 612 474 615 q 353 599 364 608 q 321 520 332 579 q 310 407 310 461 q 333 262 310 313 q 393 194 357 211 q 508 178 428 178 q 675 189 572 178 l 690 26 m 672 1033 l 496 882 l 388 882 l 214 1035 l 274 1107 l 446 994 l 615 1107 l 672 1033 z "},"Ç":{"ha":713,"x_min":42,"x_max":690,"o":"m 465 -75 q 567 -109 532 -75 q 603 -201 603 -143 q 543 -311 603 -272 q 396 -350 483 -350 q 319 -342 357 -350 l 329 -257 q 441 -249 411 -257 q 471 -204 471 -240 q 449 -167 471 -178 q 389 -157 428 -157 l 357 -158 l 351 -146 l 400 -14 q 136 96 231 -3 q 42 386 42 194 q 154 698 42 594 q 471 801 267 801 q 674 775 568 801 q 668 692 674 747 q 657 615 663 638 l 569 615 q 419 612 474 615 q 353 599 364 608 q 321 520 332 579 q 310 407 310 461 q 333 262 310 313 q 393 194 357 211 q 508 178 428 178 q 675 189 572 178 l 690 26 q 486 -14 610 -8 l 465 -75 z "},"Ċ":{"ha":713,"x_min":42,"x_max":690,"o":"m 690 26 q 571 -6 639 4 q 444 -15 503 -15 q 149 83 256 -15 q 42 386 42 182 q 154 698 42 594 q 471 801 267 801 q 674 775 568 801 q 668 692 674 747 q 657 615 663 638 l 569 615 q 419 612 474 615 q 353 599 364 608 q 321 520 332 579 q 310 407 310 461 q 333 262 310 313 q 393 194 357 211 q 508 178 428 178 q 675 189 572 178 l 690 26 m 536 964 q 511 892 536 918 q 442 865 486 865 q 374 891 399 865 q 350 961 350 917 q 374 1033 350 1007 q 442 1060 399 1060 q 510 1034 485 1060 q 536 964 536 1008 z "},"D":{"ha":874,"x_min":69,"x_max":832,"o":"m 347 792 q 613 761 510 792 q 774 646 717 731 q 832 403 832 561 q 771 145 832 233 q 607 28 710 57 q 347 0 504 0 l 69 0 l 69 792 l 347 792 m 533 189 q 557 275 550 206 q 564 403 564 344 q 553 520 564 476 q 517 590 543 564 q 374 636 475 636 q 319 633 356 636 l 319 172 q 393 169 343 169 q 484 174 444 169 q 533 189 524 179 z "},"Ɖ":{"ha":874,"x_min":3,"x_max":832,"o":"m 347 792 q 613 761 510 792 q 774 646 717 731 q 832 403 832 561 q 771 145 832 233 q 607 28 710 57 q 347 0 504 0 l 69 0 l 69 792 l 347 792 m 533 189 q 557 275 550 206 q 564 403 564 344 q 553 520 564 476 q 517 590 543 564 q 374 636 475 636 q 319 633 356 636 l 319 172 q 393 169 343 169 q 484 174 444 169 q 533 189 524 179 m 450 458 l 450 363 l 3 363 l 3 458 l 450 458 z "},"Ð":{"ha":874,"x_min":3,"x_max":832,"o":"m 347 792 q 613 761 510 792 q 774 646 717 731 q 832 403 832 561 q 771 145 832 233 q 607 28 710 57 q 347 0 504 0 l 69 0 l 69 792 l 347 792 m 533 189 q 557 275 550 206 q 564 403 564 344 q 553 520 564 476 q 517 590 543 564 q 374 636 475 636 q 319 633 356 636 l 319 172 q 393 169 343 169 q 484 174 444 169 q 533 189 524 179 m 450 458 l 450 363 l 3 363 l 3 458 l 450 458 z "},"Ď":{"ha":874,"x_min":69,"x_max":832,"o":"m 347 792 q 613 761 510 792 q 774 646 717 731 q 832 403 832 561 q 771 145 832 233 q 607 28 710 57 q 347 0 504 0 l 69 0 l 69 792 l 347 792 m 533 189 q 557 275 550 206 q 564 403 564 344 q 553 520 564 476 q 517 590 543 564 q 374 636 475 636 q 319 633 356 636 l 319 172 q 393 169 343 169 q 484 174 444 169 q 533 189 524 179 m 629 1033 l 453 882 l 344 882 l 171 1035 l 231 1107 l 403 994 l 572 1107 l 629 1033 z "},"Ḓ":{"ha":874,"x_min":69,"x_max":832,"o":"m 347 792 q 613 761 510 792 q 774 646 717 731 q 832 403 832 561 q 771 145 832 233 q 607 28 710 57 q 347 0 504 0 l 69 0 l 69 792 l 347 792 m 533 189 q 557 275 550 206 q 564 403 564 344 q 553 520 564 476 q 517 590 543 564 q 374 636 475 636 q 319 633 356 636 l 319 172 q 393 169 343 169 q 484 174 444 169 q 533 189 524 179 m 568 -294 l 399 -171 l 226 -294 l 167 -222 l 340 -56 l 449 -56 l 625 -221 l 568 -294 z "},"Đ":{"ha":874,"x_min":3,"x_max":832,"o":"m 347 792 q 613 761 510 792 q 774 646 717 731 q 832 403 832 561 q 771 145 832 233 q 607 28 710 57 q 347 0 504 0 l 69 0 l 69 792 l 347 792 m 533 189 q 557 275 550 206 q 564 403 564 344 q 553 520 564 476 q 517 590 543 564 q 374 636 475 636 q 319 633 356 636 l 319 172 q 393 169 343 169 q 484 174 444 169 q 533 189 524 179 m 450 458 l 450 363 l 3 363 l 3 458 l 450 458 z "},"Ḍ":{"ha":874,"x_min":69,"x_max":832,"o":"m 347 792 q 613 761 510 792 q 774 646 717 731 q 832 403 832 561 q 771 145 832 233 q 607 28 710 57 q 347 0 504 0 l 69 0 l 69 792 l 347 792 m 533 189 q 557 275 550 206 q 564 403 564 344 q 553 520 564 476 q 517 590 543 564 q 374 636 475 636 q 319 633 356 636 l 319 172 q 393 169 343 169 q 484 174 444 169 q 533 189 524 179 m 494 -169 q 469 -242 494 -215 q 400 -268 444 -268 q 333 -242 357 -268 q 308 -172 308 -217 q 333 -100 308 -126 q 400 -74 357 -74 q 469 -99 443 -74 q 494 -169 494 -125 z "},"Ḏ":{"ha":874,"x_min":69,"x_max":832,"o":"m 347 792 q 613 761 510 792 q 774 646 717 731 q 832 403 832 561 q 771 145 832 233 q 607 28 710 57 q 347 0 504 0 l 69 0 l 69 792 l 347 792 m 533 189 q 557 275 550 206 q 564 403 564 344 q 553 520 564 476 q 517 590 543 564 q 374 636 475 636 q 319 633 356 636 l 319 172 q 393 169 343 169 q 484 174 444 169 q 533 189 524 179 m 201 -79 l 599 -79 l 599 -197 l 201 -197 l 201 -79 z "},"E":{"ha":675,"x_min":63,"x_max":639,"o":"m 63 792 l 639 792 l 639 625 l 313 625 l 313 481 l 588 481 l 588 331 l 313 331 l 313 169 l 638 169 l 638 0 l 63 0 l 63 792 z "},"É":{"ha":675,"x_min":63,"x_max":639,"o":"m 63 792 l 639 792 l 639 625 l 313 625 l 313 481 l 588 481 l 588 331 l 313 331 l 313 169 l 638 169 l 638 0 l 63 0 l 63 792 m 247 904 q 344 990 279 939 q 475 1086 410 1042 l 549 978 q 431 901 504 947 q 303 824 357 856 l 247 904 z "},"Ě":{"ha":675,"x_min":63,"x_max":639,"o":"m 63 792 l 639 792 l 639 625 l 313 625 l 313 481 l 588 481 l 588 331 l 313 331 l 313 169 l 638 169 l 638 0 l 63 0 l 63 792 m 585 1022 l 408 871 l 300 871 l 126 1024 l 186 1096 l 358 983 l 528 1096 l 585 1022 z "},"Ê":{"ha":675,"x_min":63,"x_max":639,"o":"m 63 792 l 639 792 l 639 625 l 313 625 l 313 481 l 588 481 l 588 331 l 313 331 l 313 169 l 638 169 l 638 0 l 63 0 l 63 792 m 528 832 l 358 956 l 186 832 l 126 904 l 300 1071 l 408 1071 l 585 906 l 528 832 z "},"Ế":{"ha":675,"x_min":63,"x_max":690,"o":"m 63 792 l 639 792 l 639 625 l 313 625 l 313 481 l 588 481 l 588 331 l 313 331 l 313 169 l 638 169 l 638 0 l 63 0 l 63 792 m 690 1121 q 514 1011 583 1068 l 451 1074 q 523 1158 486 1124 q 607 1225 560 1193 l 690 1121 m 411 1043 q 506 947 432 1024 l 546 906 l 489 832 l 451 861 q 361 929 393 908 q 231 832 311 897 l 171 904 q 303 1043 239 983 l 411 1043 z "},"Ệ":{"ha":675,"x_min":63,"x_max":639,"o":"m 63 792 l 639 792 l 639 625 l 313 625 l 313 481 l 588 481 l 588 331 l 313 331 l 313 169 l 638 169 l 638 0 l 63 0 l 63 792 m 449 -169 q 424 -242 449 -215 q 354 -268 399 -268 q 287 -242 311 -268 q 263 -172 263 -217 q 287 -100 263 -126 q 354 -74 311 -74 q 423 -99 397 -74 q 449 -169 449 -125 m 528 832 l 358 956 l 186 832 l 126 904 l 300 1071 l 408 1071 l 585 906 l 528 832 z "},"Ề":{"ha":675,"x_min":26,"x_max":639,"o":"m 63 792 l 639 792 l 639 625 l 313 625 l 313 481 l 588 481 l 588 331 l 313 331 l 313 169 l 638 169 l 638 0 l 63 0 l 63 792 m 203 1011 q 26 1121 133 1068 l 110 1225 q 194 1158 157 1193 q 265 1074 231 1124 l 203 1011 m 486 832 q 356 929 406 897 q 265 861 324 908 l 228 832 l 171 906 l 211 947 q 306 1043 285 1024 l 414 1043 q 546 904 478 983 l 486 832 z "},"Ể":{"ha":675,"x_min":63,"x_max":639,"o":"m 63 792 l 639 792 l 639 625 l 313 625 l 313 481 l 588 481 l 588 331 l 313 331 l 313 169 l 638 169 l 638 0 l 63 0 l 63 792 m 365 1196 q 256 1249 365 1236 l 288 1339 q 423 1295 374 1332 q 475 1208 472 1258 q 446 1119 479 1157 q 328 1068 413 1082 l 297 1143 q 351 1169 338 1156 q 365 1196 365 1182 m 486 832 q 356 929 406 897 q 265 861 324 908 l 228 832 l 171 906 l 211 947 q 306 1043 285 1024 l 414 1043 q 546 904 478 983 l 486 832 z "},"Ễ":{"ha":675,"x_min":63,"x_max":639,"o":"m 63 792 l 639 792 l 639 625 l 313 625 l 313 481 l 588 481 l 588 331 l 313 331 l 313 169 l 638 169 l 638 0 l 63 0 l 63 792 m 269 1121 q 240 1112 247 1121 q 233 1086 233 1103 l 160 1086 q 180 1174 154 1132 q 265 1215 206 1215 q 349 1196 299 1215 q 379 1186 354 1194 q 429 1178 404 1178 q 465 1210 465 1178 l 539 1210 q 540 1192 540 1204 q 512 1113 540 1146 q 433 1081 483 1081 q 340 1103 399 1081 q 269 1121 294 1121 m 486 832 q 356 929 406 897 q 265 861 324 908 l 228 832 l 171 906 l 211 947 q 306 1043 285 1024 l 414 1043 q 546 904 478 983 l 486 832 z "},"Ë":{"ha":675,"x_min":63,"x_max":639,"o":"m 63 792 l 639 792 l 639 625 l 313 625 l 313 481 l 588 481 l 588 331 l 313 331 l 313 169 l 638 169 l 638 0 l 63 0 l 63 792 m 319 953 q 293 876 319 904 q 221 849 267 849 q 149 876 175 849 q 122 950 122 903 q 149 1026 122 999 q 221 1054 175 1054 q 294 1027 268 1054 q 319 953 319 1000 m 592 953 q 565 877 592 906 q 492 849 538 849 q 420 876 446 849 q 394 950 394 903 q 420 1026 394 999 q 492 1054 446 1054 q 565 1027 538 1054 q 592 953 592 1000 z "},"Ė":{"ha":675,"x_min":63,"x_max":639,"o":"m 63 792 l 639 792 l 639 625 l 313 625 l 313 481 l 588 481 l 588 331 l 313 331 l 313 169 l 638 169 l 638 0 l 63 0 l 63 792 m 449 953 q 424 881 449 907 q 354 854 399 854 q 287 880 311 854 q 263 950 263 906 q 287 1022 263 996 q 354 1049 311 1049 q 423 1023 397 1049 q 449 953 449 997 z "},"Ẹ":{"ha":675,"x_min":63,"x_max":639,"o":"m 63 792 l 639 792 l 639 625 l 313 625 l 313 481 l 588 481 l 588 331 l 313 331 l 313 169 l 638 169 l 638 0 l 63 0 l 63 792 m 449 -169 q 424 -242 449 -215 q 354 -268 399 -268 q 287 -242 311 -268 q 263 -172 263 -217 q 287 -100 263 -126 q 354 -74 311 -74 q 423 -99 397 -74 q 449 -169 449 -125 z "},"È":{"ha":675,"x_min":63,"x_max":639,"o":"m 63 792 l 639 792 l 639 625 l 313 625 l 313 481 l 588 481 l 588 331 l 313 331 l 313 169 l 638 169 l 638 0 l 63 0 l 63 792 m 404 825 q 276 903 350 857 q 158 979 203 949 l 232 1088 q 363 992 297 1043 q 460 906 428 940 l 404 825 z "},"Ẻ":{"ha":675,"x_min":63,"x_max":639,"o":"m 63 792 l 639 792 l 639 625 l 313 625 l 313 481 l 588 481 l 588 331 l 313 331 l 313 169 l 638 169 l 638 0 l 63 0 l 63 792 m 283 943 q 349 969 332 956 q 365 996 365 982 q 242 1063 365 1046 l 274 1167 q 419 1113 365 1158 q 475 1008 472 1068 q 314 840 483 871 l 283 943 z "},"Ē":{"ha":675,"x_min":63,"x_max":639,"o":"m 63 792 l 639 792 l 639 625 l 313 625 l 313 481 l 588 481 l 588 331 l 313 331 l 313 169 l 638 169 l 638 0 l 63 0 l 63 792 m 157 975 l 554 975 l 554 857 l 157 857 l 157 975 z "},"Ę":{"ha":675,"x_min":63,"x_max":639,"o":"m 313 625 l 313 481 l 588 481 l 588 331 l 313 331 l 313 169 l 638 169 l 638 0 l 546 0 q 460 -93 488 -51 q 433 -175 433 -135 q 499 -242 433 -242 q 579 -225 526 -242 l 594 -307 q 458 -354 531 -354 q 347 -315 392 -354 q 301 -207 301 -275 q 432 0 301 -101 l 63 0 l 63 792 l 639 792 l 639 625 l 313 625 z "},"Ẽ":{"ha":675,"x_min":63,"x_max":639,"o":"m 63 792 l 639 792 l 639 625 l 313 625 l 313 481 l 588 481 l 588 331 l 313 331 l 313 169 l 638 169 l 638 0 l 63 0 l 63 792 m 564 992 q 565 971 565 985 q 534 885 565 921 q 447 849 503 849 q 401 855 424 849 q 346 872 379 861 q 267 893 294 893 q 235 883 243 893 q 226 856 226 874 l 146 856 l 144 872 q 174 960 144 921 q 263 999 203 999 q 304 994 285 999 q 354 978 324 989 q 443 957 408 957 q 483 992 483 957 l 564 992 z "},"F":{"ha":650,"x_min":67,"x_max":635,"o":"m 67 792 l 635 792 l 635 619 l 317 619 l 317 463 l 579 463 l 579 311 l 317 311 l 317 0 l 67 0 l 67 792 z "},"G":{"ha":810,"x_min":42,"x_max":761,"o":"m 761 439 l 761 43 q 585 -1 668 13 q 444 -15 501 -15 q 149 83 256 -15 q 42 386 42 182 q 154 698 42 594 q 471 801 267 801 q 728 769 578 801 q 722 687 728 742 q 711 610 717 632 l 661 611 q 518 614 569 614 q 350 596 364 614 q 319 514 328 569 q 310 407 310 458 q 331 263 310 314 q 394 190 351 211 q 511 169 438 169 l 517 169 l 517 439 l 761 439 z "},"Ğ":{"ha":810,"x_min":42,"x_max":761,"o":"m 761 439 l 761 43 q 585 -1 668 13 q 444 -15 501 -15 q 149 83 256 -15 q 42 386 42 182 q 154 698 42 594 q 471 801 267 801 q 728 769 578 801 q 722 687 728 742 q 711 610 717 632 l 661 611 q 518 614 569 614 q 350 596 364 614 q 319 514 328 569 q 310 407 310 458 q 331 263 310 314 q 394 190 351 211 q 511 169 438 169 l 517 169 l 517 439 l 761 439 m 454 853 q 329 903 376 853 q 282 1038 282 954 l 368 1038 q 397 978 374 997 q 454 960 419 960 q 512 979 489 960 q 540 1038 535 999 l 626 1038 q 578 902 626 951 q 454 853 531 853 z "},"Ǧ":{"ha":810,"x_min":42,"x_max":761,"o":"m 761 439 l 761 43 q 585 -1 668 13 q 444 -15 501 -15 q 149 83 256 -15 q 42 386 42 182 q 154 698 42 594 q 471 801 267 801 q 728 769 578 801 q 722 687 728 742 q 711 610 717 632 l 661 611 q 518 614 569 614 q 350 596 364 614 q 319 514 328 569 q 310 407 310 458 q 331 263 310 314 q 394 190 351 211 q 511 169 438 169 l 517 169 l 517 439 l 761 439 m 683 1033 l 507 882 l 399 882 l 225 1035 l 285 1107 l 457 994 l 626 1107 l 683 1033 z "},"Ģ":{"ha":810,"x_min":42,"x_max":761,"o":"m 761 439 l 761 43 q 585 -1 668 13 q 444 -15 501 -15 q 149 83 256 -15 q 42 386 42 182 q 154 698 42 594 q 471 801 267 801 q 728 769 578 801 q 722 687 728 742 q 711 610 717 632 l 661 611 q 518 614 569 614 q 350 596 364 614 q 319 514 328 569 q 310 407 310 458 q 331 263 310 314 q 394 190 351 211 q 511 169 438 169 l 517 169 l 517 439 l 761 439 m 397 -81 q 442 -78 419 -78 q 495 -81 468 -78 q 532 -86 522 -83 q 540 -150 540 -114 q 517 -278 540 -214 q 467 -365 497 -332 q 367 -340 407 -357 q 393 -257 385 -301 q 403 -164 403 -214 q 397 -81 403 -118 z "},"Ġ":{"ha":810,"x_min":42,"x_max":761,"o":"m 761 439 l 761 43 q 585 -1 668 13 q 444 -15 501 -15 q 149 83 256 -15 q 42 386 42 182 q 154 698 42 594 q 471 801 267 801 q 728 769 578 801 q 722 687 728 742 q 711 610 717 632 l 661 611 q 518 614 569 614 q 350 596 364 614 q 319 514 328 569 q 310 407 310 458 q 331 263 310 314 q 394 190 351 211 q 511 169 438 169 l 517 169 l 517 439 l 761 439 m 547 964 q 522 892 547 918 q 453 865 497 865 q 385 891 410 865 q 361 961 361 917 q 385 1033 361 1007 q 453 1060 410 1060 q 522 1034 496 1060 q 547 964 547 1008 z "},"H":{"ha":860,"x_min":71,"x_max":789,"o":"m 71 792 l 322 792 l 322 501 l 538 501 l 538 792 l 789 792 l 789 0 l 538 0 l 538 342 l 322 342 l 322 0 l 71 0 l 71 792 z "},"Ħ":{"ha":865,"x_min":14,"x_max":850,"o":"m 850 585 l 789 585 l 789 0 l 538 0 l 538 342 l 322 342 l 322 0 l 71 0 l 71 585 l 14 585 l 14 681 l 71 681 l 71 792 l 322 792 l 322 681 l 538 681 l 538 792 l 789 792 l 789 681 l 850 681 l 850 585 m 538 585 l 322 585 l 322 501 l 538 501 l 538 585 z "},"Ḥ":{"ha":860,"x_min":71,"x_max":789,"o":"m 71 792 l 322 792 l 322 501 l 538 501 l 538 792 l 789 792 l 789 0 l 538 0 l 538 342 l 322 342 l 322 0 l 71 0 l 71 792 m 525 -169 q 500 -242 525 -215 q 431 -268 475 -268 q 363 -242 388 -268 q 339 -172 339 -217 q 363 -100 339 -126 q 431 -74 388 -74 q 499 -99 474 -74 q 525 -169 525 -125 z "},"I":{"ha":392,"x_min":71,"x_max":321,"o":"m 71 792 l 321 792 l 321 0 l 71 0 l 71 792 z "},"Í":{"ha":392,"x_min":71,"x_max":389,"o":"m 71 792 l 321 792 l 321 0 l 71 0 l 71 792 m 88 915 q 185 1001 119 950 q 315 1097 250 1053 l 389 989 q 271 913 344 958 q 143 835 197 867 l 88 915 z "},"Ǐ":{"ha":392,"x_min":-33,"x_max":425,"o":"m 71 792 l 321 792 l 321 0 l 71 0 l 71 792 m 425 1033 l 249 882 l 140 882 l -33 1035 l 26 1107 l 199 994 l 368 1107 l 425 1033 z "},"Î":{"ha":392,"x_min":-31,"x_max":428,"o":"m 71 792 l 321 792 l 321 0 l 71 0 l 71 792 m 253 1082 q 428 933 335 1018 l 371 860 q 201 968 268 928 q 29 860 97 904 l -31 932 q 142 1082 44 1003 l 253 1082 z "},"Ï":{"ha":392,"x_min":-37,"x_max":432,"o":"m 71 792 l 321 792 l 321 0 l 71 0 l 71 792 m 160 964 q 133 888 160 915 q 61 860 107 860 q -11 887 15 860 q -37 961 -37 914 q -11 1038 -37 1010 q 61 1065 15 1065 q 134 1038 108 1065 q 160 964 160 1011 m 432 964 q 405 888 432 917 q 332 860 378 860 q 260 887 286 860 q 235 961 235 914 q 260 1038 235 1010 q 332 1065 286 1065 q 405 1038 378 1065 q 432 964 432 1011 z "},"Ḯ":{"ha":392,"x_min":-37,"x_max":432,"o":"m 71 792 l 321 792 l 321 0 l 71 0 l 71 792 m 160 964 q 133 888 160 915 q 61 860 107 860 q -11 887 15 860 q -37 961 -37 914 q -11 1038 -37 1010 q 61 1065 15 1065 q 134 1038 108 1065 q 160 964 160 1011 m 432 964 q 405 888 432 917 q 332 860 378 860 q 260 887 286 860 q 235 961 235 914 q 260 1038 235 1010 q 332 1065 286 1065 q 405 1038 378 1065 q 432 964 432 1011 m 88 1178 q 185 1264 119 1213 q 315 1360 250 1315 l 389 1251 q 271 1175 344 1221 q 143 1097 197 1129 l 88 1178 z "},"İ":{"ha":392,"x_min":71,"x_max":321,"o":"m 71 792 l 321 792 l 321 0 l 71 0 l 71 792 m 289 964 q 264 892 289 918 q 194 865 239 865 q 127 891 151 865 q 103 961 103 917 q 127 1033 103 1007 q 194 1060 151 1060 q 263 1034 238 1060 q 289 964 289 1008 z "},"Ị":{"ha":392,"x_min":71,"x_max":321,"o":"m 71 792 l 321 792 l 321 0 l 71 0 l 71 792 m 289 -169 q 264 -242 289 -215 q 194 -268 239 -268 q 127 -242 151 -268 q 103 -172 103 -217 q 127 -100 103 -126 q 194 -74 151 -74 q 263 -99 238 -74 q 289 -169 289 -125 z "},"Ì":{"ha":392,"x_min":-1,"x_max":321,"o":"m 71 792 l 321 792 l 321 0 l 71 0 l 71 792 m 244 836 q 117 914 190 868 q -1 990 43 960 l 72 1099 q 203 1003 138 1054 q 300 917 268 951 l 244 836 z "},"Ỉ":{"ha":392,"x_min":71,"x_max":324,"o":"m 71 792 l 321 792 l 321 0 l 71 0 l 71 792 m 124 954 q 189 980 172 967 q 206 1007 206 993 q 82 1074 206 1057 l 114 1178 q 259 1124 206 1169 q 315 1019 313 1079 q 154 851 324 882 l 124 954 z "},"Ī":{"ha":392,"x_min":-3,"x_max":394,"o":"m 71 792 l 321 792 l 321 0 l 71 0 l 71 792 m -3 986 l 394 986 l 394 868 l -3 868 l -3 986 z "},"Į":{"ha":392,"x_min":24,"x_max":321,"o":"m 268 0 q 183 -93 210 -51 q 156 -175 156 -135 q 221 -242 156 -242 q 301 -225 249 -242 l 317 -307 q 181 -354 253 -354 q 69 -315 114 -354 q 24 -207 24 -275 q 154 0 24 -101 l 71 0 l 71 792 l 321 792 l 321 0 l 268 0 z "},"Ĩ":{"ha":392,"x_min":-15,"x_max":406,"o":"m 71 792 l 321 792 l 321 0 l 71 0 l 71 792 m 404 1003 q 406 982 406 996 q 374 896 406 932 q 288 860 343 860 q 242 866 264 860 q 186 883 219 872 q 107 904 135 904 q 75 894 83 904 q 67 867 67 885 l -14 867 l -15 883 q 14 971 -15 932 q 103 1010 43 1010 q 144 1005 125 1010 q 194 989 164 1000 q 283 968 249 968 q 324 1003 324 968 l 404 1003 z "},"J":{"ha":503,"x_min":11,"x_max":436,"o":"m 436 792 l 436 285 q 417 114 436 179 q 348 15 397 49 q 210 -18 299 -18 q 11 0 115 -18 l 32 160 q 121 161 71 158 q 178 172 171 164 q 186 239 186 186 q 186 299 186 292 l 186 792 l 436 792 z "},"K":{"ha":800,"x_min":71,"x_max":808,"o":"m 808 0 l 535 0 l 381 296 q 359 335 376 303 q 321 396 342 367 l 321 0 l 71 0 l 71 792 l 321 792 l 321 432 q 362 490 344 458 q 382 526 379 521 l 531 792 l 794 792 l 636 526 q 618 497 632 521 q 588 453 604 474 q 554 417 572 433 q 595 370 579 393 q 632 310 611 347 l 808 0 z "},"Ķ":{"ha":800,"x_min":71,"x_max":808,"o":"m 808 0 l 535 0 l 381 296 q 359 335 376 303 q 321 396 342 367 l 321 0 l 71 0 l 71 792 l 321 792 l 321 432 q 362 490 344 458 q 382 526 379 521 l 531 792 l 794 792 l 636 526 q 618 497 632 521 q 588 453 604 474 q 554 417 572 433 q 595 370 579 393 q 632 310 611 347 l 808 0 m 356 -81 q 400 -78 378 -78 q 453 -81 426 -78 q 490 -86 481 -83 q 499 -150 499 -114 q 475 -278 499 -214 q 425 -365 456 -332 q 325 -340 365 -357 q 351 -257 343 -301 q 361 -164 361 -214 q 356 -81 361 -118 z "},"L":{"ha":661,"x_min":67,"x_max":640,"o":"m 67 792 l 317 792 l 317 183 l 640 183 l 640 0 l 67 0 l 67 792 z "},"Ĺ":{"ha":661,"x_min":67,"x_max":640,"o":"m 67 792 l 317 792 l 317 183 l 640 183 l 640 0 l 67 0 l 67 792 m 89 904 q 186 990 121 939 q 317 1086 251 1042 l 390 978 q 272 901 346 947 q 144 824 199 856 l 89 904 z "},"Ľ":{"ha":657,"x_min":67,"x_max":640,"o":"m 419 793 q 475 794 438 794 q 554 788 543 794 q 565 722 565 758 q 544 607 565 667 q 489 508 524 547 q 389 533 429 517 q 425 683 425 613 q 410 778 425 732 l 419 793 m 67 792 l 317 792 l 317 183 l 640 183 l 640 0 l 67 0 l 67 792 z "},"Ḽ":{"ha":661,"x_min":67,"x_max":640,"o":"m 67 792 l 317 792 l 317 183 l 640 183 l 640 0 l 67 0 l 67 792 m 521 -294 l 351 -171 l 179 -294 l 119 -222 l 293 -56 l 401 -56 l 578 -221 l 521 -294 z "},"Ļ":{"ha":661,"x_min":67,"x_max":640,"o":"m 67 792 l 317 792 l 317 183 l 640 183 l 640 0 l 67 0 l 67 792 m 293 -81 q 338 -78 315 -78 q 391 -81 364 -78 q 428 -86 418 -83 q 436 -150 436 -114 q 413 -278 436 -214 q 363 -365 393 -332 q 263 -340 303 -357 q 289 -257 281 -301 q 299 -164 299 -214 q 293 -81 299 -118 z "},"Ḷ":{"ha":661,"x_min":67,"x_max":640,"o":"m 67 792 l 317 792 l 317 183 l 640 183 l 640 0 l 67 0 l 67 792 m 447 -169 q 422 -242 447 -215 q 353 -268 397 -268 q 285 -242 310 -268 q 261 -172 261 -217 q 285 -100 261 -126 q 353 -74 310 -74 q 422 -99 396 -74 q 447 -169 447 -125 z "},"Ł":{"ha":657,"x_min":11,"x_max":640,"o":"m 640 183 l 640 0 l 67 0 l 67 332 l 11 311 l 11 410 l 67 432 l 67 792 l 317 792 l 317 526 l 446 576 l 446 476 l 317 428 l 317 183 l 640 183 z "},"M":{"ha":1143,"x_min":53,"x_max":1090,"o":"m 1090 0 l 857 0 l 839 436 q 829 632 835 565 l 825 632 q 786 468 808 579 l 779 433 l 683 0 l 450 0 l 369 390 l 356 460 q 315 632 326 589 l 311 632 q 301 406 306 563 q 300 375 300 396 l 288 0 l 53 0 l 86 792 l 483 792 l 551 450 l 568 358 q 589 454 579 401 l 653 792 l 1058 792 l 1090 0 z "},"Ḿ":{"ha":1143,"x_min":53,"x_max":1090,"o":"m 1090 0 l 857 0 l 839 436 q 829 632 835 565 l 825 632 q 786 468 808 579 l 779 433 l 683 0 l 450 0 l 369 390 l 356 460 q 315 632 326 589 l 311 632 q 301 406 306 563 q 300 375 300 396 l 288 0 l 53 0 l 86 792 l 483 792 l 551 450 l 568 358 q 589 454 579 401 l 653 792 l 1058 792 l 1090 0 m 458 904 q 556 990 490 939 q 686 1086 621 1042 l 760 978 q 642 901 715 947 q 514 824 568 856 l 458 904 z "},"N":{"ha":889,"x_min":69,"x_max":821,"o":"m 301 319 l 301 0 l 69 0 l 69 792 l 304 792 l 514 472 q 586 353 561 401 l 590 353 l 590 486 l 590 792 l 821 792 l 821 0 l 585 0 l 369 333 l 307 428 l 303 428 l 301 319 z "},"Ń":{"ha":889,"x_min":69,"x_max":821,"o":"m 301 319 l 301 0 l 69 0 l 69 792 l 304 792 l 514 472 q 586 353 561 401 l 590 353 l 590 486 l 590 792 l 821 792 l 821 0 l 585 0 l 369 333 l 307 428 l 303 428 l 301 319 m 339 904 q 436 990 371 939 q 567 1086 501 1042 l 640 978 q 522 901 596 947 q 394 824 449 856 l 339 904 z "},"Ň":{"ha":889,"x_min":69,"x_max":821,"o":"m 301 319 l 301 0 l 69 0 l 69 792 l 304 792 l 514 472 q 586 353 561 401 l 590 353 l 590 486 l 590 792 l 821 792 l 821 0 l 585 0 l 369 333 l 307 428 l 303 428 l 301 319 m 676 1022 l 500 871 l 392 871 l 218 1024 l 278 1096 l 450 983 l 619 1096 l 676 1022 z "},"Ṋ":{"ha":889,"x_min":69,"x_max":821,"o":"m 301 319 l 301 0 l 69 0 l 69 792 l 304 792 l 514 472 q 586 353 561 401 l 590 353 l 590 486 l 590 792 l 821 792 l 821 0 l 585 0 l 369 333 l 307 428 l 303 428 l 301 319 m 542 -169 q 517 -242 542 -215 q 447 -268 492 -268 q 380 -242 404 -268 q 356 -172 356 -217 q 380 -100 356 -126 q 447 -74 404 -74 q 516 -99 490 -74 q 542 -169 542 -125 z "},"Ņ":{"ha":889,"x_min":69,"x_max":821,"o":"m 301 319 l 301 0 l 69 0 l 69 792 l 304 792 l 514 472 q 586 353 561 401 l 590 353 l 590 486 l 590 792 l 821 792 l 821 0 l 585 0 l 369 333 l 307 428 l 303 428 l 301 319 m 388 -81 q 432 -78 410 -78 q 485 -81 458 -78 q 522 -86 513 -83 q 531 -150 531 -114 q 507 -278 531 -214 q 457 -365 488 -332 q 357 -340 397 -357 q 383 -257 375 -301 q 393 -164 393 -214 q 388 -81 393 -118 z "},"Ṅ":{"ha":889,"x_min":69,"x_max":821,"o":"m 301 319 l 301 0 l 69 0 l 69 792 l 304 792 l 514 472 q 586 353 561 401 l 590 353 l 590 486 l 590 792 l 821 792 l 821 0 l 585 0 l 369 333 l 307 428 l 303 428 l 301 319 m 540 953 q 515 881 540 907 q 446 854 490 854 q 378 880 403 854 q 354 950 354 906 q 378 1022 354 996 q 446 1049 403 1049 q 515 1023 489 1049 q 540 953 540 997 z "},"Ṇ":{"ha":889,"x_min":69,"x_max":821,"o":"m 301 319 l 301 0 l 69 0 l 69 792 l 304 792 l 514 472 q 586 353 561 401 l 590 353 l 590 486 l 590 792 l 821 792 l 821 0 l 585 0 l 369 333 l 307 428 l 303 428 l 301 319 m 542 -169 q 517 -242 542 -215 q 447 -268 492 -268 q 380 -242 404 -268 q 356 -172 356 -217 q 380 -100 356 -126 q 447 -74 404 -74 q 516 -99 490 -74 q 542 -169 542 -125 z "},"Ŋ":{"ha":894,"x_min":69,"x_max":824,"o":"m 824 149 l 824 0 q 771 -227 824 -156 q 599 -299 718 -299 q 440 -276 538 -299 l 461 -142 l 515 -142 q 559 -139 546 -142 q 578 -126 572 -136 q 586 -97 585 -117 q 588 -49 588 -78 q 588 -11 588 -21 l 588 0 l 585 0 l 369 333 l 307 428 l 303 428 l 301 319 l 301 0 l 69 0 l 69 792 l 304 792 l 514 472 q 586 353 561 401 l 590 353 l 590 486 l 590 792 l 821 792 l 821 149 l 824 149 z "},"Ñ":{"ha":889,"x_min":69,"x_max":821,"o":"m 301 319 l 301 0 l 69 0 l 69 792 l 304 792 l 514 472 q 586 353 561 401 l 590 353 l 590 486 l 590 792 l 821 792 l 821 0 l 585 0 l 369 333 l 307 428 l 303 428 l 301 319 m 656 992 q 657 971 657 985 q 626 885 657 921 q 539 849 594 849 q 493 855 515 849 q 438 872 471 861 q 358 893 386 893 q 326 883 335 893 q 318 856 318 874 l 238 856 l 236 872 q 265 960 236 921 q 354 999 294 999 q 396 994 376 999 q 446 978 415 989 q 535 957 500 957 q 575 992 575 957 l 656 992 z "},"O":{"ha":893,"x_min":42,"x_max":851,"o":"m 456 -18 q 145 80 249 -18 q 42 394 42 178 q 156 704 42 607 q 457 801 269 801 q 851 408 851 801 q 755 96 851 210 q 456 -18 658 -18 m 450 146 q 515 159 489 146 q 557 206 542 172 q 586 392 586 263 q 557 575 586 518 q 450 636 528 633 q 390 630 421 636 q 350 613 358 624 q 324 530 333 593 q 315 392 315 467 q 338 221 315 275 q 381 163 353 181 q 450 146 408 146 z "},"Ó":{"ha":893,"x_min":42,"x_max":851,"o":"m 456 -18 q 145 80 249 -18 q 42 394 42 178 q 156 704 42 607 q 457 801 269 801 q 851 408 851 801 q 755 96 851 210 q 456 -18 658 -18 m 450 146 q 515 159 489 146 q 557 206 542 172 q 586 392 586 263 q 557 575 586 518 q 450 636 528 633 q 390 630 421 636 q 350 613 358 624 q 324 530 333 593 q 315 392 315 467 q 338 221 315 275 q 381 163 353 181 q 450 146 408 146 m 344 904 q 442 990 376 939 q 572 1086 507 1042 l 646 978 q 528 901 601 947 q 400 824 454 856 l 344 904 z "},"Ǒ":{"ha":893,"x_min":42,"x_max":851,"o":"m 456 -18 q 145 80 249 -18 q 42 394 42 178 q 156 704 42 607 q 457 801 269 801 q 851 408 851 801 q 755 96 851 210 q 456 -18 658 -18 m 450 146 q 515 159 489 146 q 557 206 542 172 q 586 392 586 263 q 557 575 586 518 q 450 636 528 633 q 390 630 421 636 q 350 613 358 624 q 324 530 333 593 q 315 392 315 467 q 338 221 315 275 q 381 163 353 181 q 450 146 408 146 m 682 1022 l 506 871 l 397 871 l 224 1024 l 283 1096 l 456 983 l 625 1096 l 682 1022 z "},"Ô":{"ha":893,"x_min":42,"x_max":851,"o":"m 456 -18 q 145 80 249 -18 q 42 394 42 178 q 156 704 42 607 q 457 801 269 801 q 851 408 851 801 q 755 96 851 210 q 456 -18 658 -18 m 450 146 q 515 159 489 146 q 557 206 542 172 q 586 392 586 263 q 557 575 586 518 q 450 636 528 633 q 390 630 421 636 q 350 613 358 624 q 324 530 333 593 q 315 392 315 467 q 338 221 315 275 q 381 163 353 181 q 450 146 408 146 m 625 832 l 456 956 l 283 832 l 224 904 l 397 1071 l 506 1071 l 682 906 l 625 832 z "},"Ố":{"ha":893,"x_min":42,"x_max":851,"o":"m 456 -18 q 145 80 249 -18 q 42 394 42 178 q 156 704 42 607 q 457 801 269 801 q 851 408 851 801 q 755 96 851 210 q 456 -18 658 -18 m 450 146 q 515 159 489 146 q 557 206 542 172 q 586 392 586 263 q 557 575 586 518 q 450 636 528 633 q 390 630 421 636 q 350 613 358 624 q 324 530 333 593 q 315 392 315 467 q 338 221 315 275 q 381 163 353 181 q 450 146 408 146 m 788 1121 q 611 1011 681 1068 l 549 1074 q 620 1158 583 1124 q 704 1225 657 1193 l 788 1121 m 508 1043 q 603 947 529 1024 l 643 906 l 586 832 l 549 861 q 458 929 490 908 q 328 832 408 897 l 268 904 q 400 1043 336 983 l 508 1043 z "},"Ộ":{"ha":893,"x_min":42,"x_max":851,"o":"m 456 -18 q 145 80 249 -18 q 42 394 42 178 q 156 704 42 607 q 457 801 269 801 q 851 408 851 801 q 755 96 851 210 q 456 -18 658 -18 m 450 146 q 515 159 489 146 q 557 206 542 172 q 586 392 586 263 q 557 575 586 518 q 450 636 528 633 q 390 630 421 636 q 350 613 358 624 q 324 530 333 593 q 315 392 315 467 q 338 221 315 275 q 381 163 353 181 q 450 146 408 146 m 546 -169 q 521 -242 546 -215 q 451 -268 496 -268 q 384 -242 408 -268 q 360 -172 360 -217 q 384 -100 360 -126 q 451 -74 408 -74 q 520 -99 494 -74 q 546 -169 546 -125 m 625 832 l 456 956 l 283 832 l 224 904 l 397 1071 l 506 1071 l 682 906 l 625 832 z "},"Ồ":{"ha":893,"x_min":42,"x_max":851,"o":"m 456 -18 q 145 80 249 -18 q 42 394 42 178 q 156 704 42 607 q 457 801 269 801 q 851 408 851 801 q 755 96 851 210 q 456 -18 658 -18 m 450 146 q 515 159 489 146 q 557 206 542 172 q 586 392 586 263 q 557 575 586 518 q 450 636 528 633 q 390 630 421 636 q 350 613 358 624 q 324 530 333 593 q 315 392 315 467 q 338 221 315 275 q 381 163 353 181 q 450 146 408 146 m 300 1011 q 124 1121 231 1068 l 207 1225 q 291 1158 254 1193 q 363 1074 328 1124 l 300 1011 m 583 832 q 453 929 503 897 q 363 861 421 908 l 325 832 l 268 906 l 308 947 q 403 1043 382 1024 l 511 1043 q 643 904 575 983 l 583 832 z "},"Ổ":{"ha":893,"x_min":42,"x_max":851,"o":"m 456 -18 q 145 80 249 -18 q 42 394 42 178 q 156 704 42 607 q 457 801 269 801 q 851 408 851 801 q 755 96 851 210 q 456 -18 658 -18 m 450 146 q 515 159 489 146 q 557 206 542 172 q 586 392 586 263 q 557 575 586 518 q 450 636 528 633 q 390 630 421 636 q 350 613 358 624 q 324 530 333 593 q 315 392 315 467 q 338 221 315 275 q 381 163 353 181 q 450 146 408 146 m 463 1196 q 353 1249 463 1236 l 385 1339 q 520 1295 471 1332 q 572 1208 569 1258 q 543 1119 576 1157 q 425 1068 510 1082 l 394 1143 q 449 1169 435 1156 q 463 1196 463 1182 m 583 832 q 453 929 503 897 q 363 861 421 908 l 325 832 l 268 906 l 308 947 q 403 1043 382 1024 l 511 1043 q 643 904 575 983 l 583 832 z "},"Ỗ":{"ha":893,"x_min":42,"x_max":851,"o":"m 456 -18 q 145 80 249 -18 q 42 394 42 178 q 156 704 42 607 q 457 801 269 801 q 851 408 851 801 q 755 96 851 210 q 456 -18 658 -18 m 450 146 q 515 159 489 146 q 557 206 542 172 q 586 392 586 263 q 557 575 586 518 q 450 636 528 633 q 390 630 421 636 q 350 613 358 624 q 324 530 333 593 q 315 392 315 467 q 338 221 315 275 q 381 163 353 181 q 450 146 408 146 m 367 1121 q 338 1112 344 1121 q 331 1086 331 1103 l 257 1086 q 277 1174 251 1132 q 363 1215 303 1215 q 446 1196 396 1215 q 476 1186 451 1194 q 526 1178 501 1178 q 563 1210 563 1178 l 636 1210 q 638 1192 638 1204 q 609 1113 638 1146 q 531 1081 581 1081 q 438 1103 496 1081 q 367 1121 392 1121 m 583 832 q 453 929 503 897 q 363 861 421 908 l 325 832 l 268 906 l 308 947 q 403 1043 382 1024 l 511 1043 q 643 904 575 983 l 583 832 z "},"Ö":{"ha":893,"x_min":42,"x_max":851,"o":"m 456 -18 q 145 80 249 -18 q 42 394 42 178 q 156 704 42 607 q 457 801 269 801 q 851 408 851 801 q 755 96 851 210 q 456 -18 658 -18 m 450 146 q 515 159 489 146 q 557 206 542 172 q 586 392 586 263 q 557 575 586 518 q 450 636 528 633 q 390 630 421 636 q 350 613 358 624 q 324 530 333 593 q 315 392 315 467 q 338 221 315 275 q 381 163 353 181 q 450 146 408 146 m 417 953 q 390 876 417 904 q 318 849 364 849 q 246 876 272 849 q 219 950 219 903 q 246 1026 219 999 q 318 1054 272 1054 q 391 1027 365 1054 q 417 953 417 1000 m 689 953 q 662 877 689 906 q 589 849 635 849 q 517 876 543 849 q 492 950 492 903 q 517 1026 492 999 q 589 1054 543 1054 q 662 1027 635 1054 q 689 953 689 1000 z "},"Ȫ":{"ha":893,"x_min":42,"x_max":851,"o":"m 456 -18 q 145 80 249 -18 q 42 394 42 178 q 156 704 42 607 q 457 801 269 801 q 851 408 851 801 q 755 96 851 210 q 456 -18 658 -18 m 450 146 q 515 159 489 146 q 557 206 542 172 q 586 392 586 263 q 557 575 586 518 q 450 636 528 633 q 390 630 421 636 q 350 613 358 624 q 324 530 333 593 q 315 392 315 467 q 338 221 315 275 q 381 163 353 181 q 450 146 408 146 m 417 953 q 390 876 417 904 q 318 849 364 849 q 246 876 272 849 q 219 950 219 903 q 246 1026 219 999 q 318 1054 272 1054 q 391 1027 365 1054 q 417 953 417 1000 m 689 953 q 662 877 689 906 q 589 849 635 849 q 517 876 543 849 q 492 950 492 903 q 517 1026 492 999 q 589 1054 543 1054 q 662 1027 635 1054 q 689 953 689 1000 m 254 1238 l 651 1238 l 651 1119 l 254 1119 l 254 1238 z "},"Ọ":{"ha":893,"x_min":42,"x_max":851,"o":"m 456 -18 q 145 80 249 -18 q 42 394 42 178 q 156 704 42 607 q 457 801 269 801 q 851 408 851 801 q 755 96 851 210 q 456 -18 658 -18 m 450 146 q 515 159 489 146 q 557 206 542 172 q 586 392 586 263 q 557 575 586 518 q 450 636 528 633 q 390 630 421 636 q 350 613 358 624 q 324 530 333 593 q 315 392 315 467 q 338 221 315 275 q 381 163 353 181 q 450 146 408 146 m 546 -169 q 521 -242 546 -215 q 451 -268 496 -268 q 384 -242 408 -268 q 360 -172 360 -217 q 384 -100 360 -126 q 451 -74 408 -74 q 520 -99 494 -74 q 546 -169 546 -125 z "},"Ò":{"ha":893,"x_min":42,"x_max":851,"o":"m 456 -18 q 145 80 249 -18 q 42 394 42 178 q 156 704 42 607 q 457 801 269 801 q 851 408 851 801 q 755 96 851 210 q 456 -18 658 -18 m 450 146 q 515 159 489 146 q 557 206 542 172 q 586 392 586 263 q 557 575 586 518 q 450 636 528 633 q 390 630 421 636 q 350 613 358 624 q 324 530 333 593 q 315 392 315 467 q 338 221 315 275 q 381 163 353 181 q 450 146 408 146 m 501 825 q 374 903 447 857 q 256 979 300 949 l 329 1088 q 460 992 394 1043 q 557 906 525 940 l 501 825 z "},"Ỏ":{"ha":893,"x_min":42,"x_max":851,"o":"m 456 -18 q 145 80 249 -18 q 42 394 42 178 q 156 704 42 607 q 457 801 269 801 q 851 408 851 801 q 755 96 851 210 q 456 -18 658 -18 m 450 146 q 515 159 489 146 q 557 206 542 172 q 586 392 586 263 q 557 575 586 518 q 450 636 528 633 q 390 630 421 636 q 350 613 358 624 q 324 530 333 593 q 315 392 315 467 q 338 221 315 275 q 381 163 353 181 q 450 146 408 146 m 381 943 q 446 969 429 956 q 463 996 463 982 q 339 1063 463 1046 l 371 1167 q 516 1113 463 1158 q 572 1008 569 1068 q 411 840 581 871 l 381 943 z "},"Ơ":{"ha":893,"x_min":42,"x_max":900,"o":"m 872 982 q 900 868 900 922 q 867 761 900 808 q 768 686 833 714 q 851 408 851 588 q 755 96 851 210 q 456 -18 658 -18 q 145 80 249 -18 q 42 394 42 178 q 156 704 42 607 q 457 801 269 801 q 694 747 603 801 q 742 842 742 785 q 713 936 742 886 l 872 982 m 557 206 q 586 392 586 263 q 557 575 586 518 q 450 636 528 633 q 390 630 421 636 q 350 613 358 624 q 324 530 333 593 q 315 392 315 467 q 338 221 315 275 q 381 163 353 181 q 450 146 408 146 q 515 159 489 146 q 557 206 542 172 z "},"Ớ":{"ha":893,"x_min":42,"x_max":900,"o":"m 872 982 q 900 868 900 922 q 867 761 900 808 q 768 686 833 714 q 851 408 851 588 q 755 96 851 210 q 456 -18 658 -18 q 145 80 249 -18 q 42 394 42 178 q 156 704 42 607 q 457 801 269 801 q 694 747 603 801 q 742 842 742 785 q 713 936 742 886 l 872 982 m 557 206 q 586 392 586 263 q 557 575 586 518 q 450 636 528 633 q 390 630 421 636 q 350 613 358 624 q 324 530 333 593 q 315 392 315 467 q 338 221 315 275 q 381 163 353 181 q 450 146 408 146 q 515 159 489 146 q 557 206 542 172 m 344 904 q 442 990 376 939 q 572 1086 507 1042 l 646 978 q 528 901 601 947 q 400 824 454 856 l 344 904 z "},"Ợ":{"ha":893,"x_min":42,"x_max":900,"o":"m 872 982 q 900 868 900 922 q 867 761 900 808 q 768 686 833 714 q 851 408 851 588 q 755 96 851 210 q 456 -18 658 -18 q 145 80 249 -18 q 42 394 42 178 q 156 704 42 607 q 457 801 269 801 q 694 747 603 801 q 742 842 742 785 q 713 936 742 886 l 872 982 m 557 206 q 586 392 586 263 q 557 575 586 518 q 450 636 528 633 q 390 630 421 636 q 350 613 358 624 q 324 530 333 593 q 315 392 315 467 q 338 221 315 275 q 381 163 353 181 q 450 146 408 146 q 515 159 489 146 q 557 206 542 172 m 546 -169 q 521 -242 546 -215 q 451 -268 496 -268 q 384 -242 408 -268 q 360 -172 360 -217 q 384 -100 360 -126 q 451 -74 408 -74 q 520 -99 494 -74 q 546 -169 546 -125 z "},"Ờ":{"ha":893,"x_min":42,"x_max":900,"o":"m 872 982 q 900 868 900 922 q 867 761 900 808 q 768 686 833 714 q 851 408 851 588 q 755 96 851 210 q 456 -18 658 -18 q 145 80 249 -18 q 42 394 42 178 q 156 704 42 607 q 457 801 269 801 q 694 747 603 801 q 742 842 742 785 q 713 936 742 886 l 872 982 m 557 206 q 586 392 586 263 q 557 575 586 518 q 450 636 528 633 q 390 630 421 636 q 350 613 358 624 q 324 530 333 593 q 315 392 315 467 q 338 221 315 275 q 381 163 353 181 q 450 146 408 146 q 515 159 489 146 q 557 206 542 172 m 501 825 q 374 903 447 857 q 256 979 300 949 l 329 1088 q 460 992 394 1043 q 557 906 525 940 l 501 825 z "},"Ở":{"ha":893,"x_min":42,"x_max":900,"o":"m 872 982 q 900 868 900 922 q 867 761 900 808 q 768 686 833 714 q 851 408 851 588 q 755 96 851 210 q 456 -18 658 -18 q 145 80 249 -18 q 42 394 42 178 q 156 704 42 607 q 457 801 269 801 q 694 747 603 801 q 742 842 742 785 q 713 936 742 886 l 872 982 m 557 206 q 586 392 586 263 q 557 575 586 518 q 450 636 528 633 q 390 630 421 636 q 350 613 358 624 q 324 530 333 593 q 315 392 315 467 q 338 221 315 275 q 381 163 353 181 q 450 146 408 146 q 515 159 489 146 q 557 206 542 172 m 381 943 q 446 969 429 956 q 463 996 463 982 q 339 1063 463 1046 l 371 1167 q 516 1113 463 1158 q 572 1008 569 1068 q 411 840 581 871 l 381 943 z "},"Ỡ":{"ha":893,"x_min":42,"x_max":900,"o":"m 872 982 q 900 868 900 922 q 867 761 900 808 q 768 686 833 714 q 851 408 851 588 q 755 96 851 210 q 456 -18 658 -18 q 145 80 249 -18 q 42 394 42 178 q 156 704 42 607 q 457 801 269 801 q 694 747 603 801 q 742 842 742 785 q 713 936 742 886 l 872 982 m 557 206 q 586 392 586 263 q 557 575 586 518 q 450 636 528 633 q 390 630 421 636 q 350 613 358 624 q 324 530 333 593 q 315 392 315 467 q 338 221 315 275 q 381 163 353 181 q 450 146 408 146 q 515 159 489 146 q 557 206 542 172 m 661 992 q 663 971 663 985 q 631 885 663 921 q 544 849 600 849 q 499 855 521 849 q 443 872 476 861 q 364 893 392 893 q 332 883 340 893 q 324 856 324 874 l 243 856 l 242 872 q 271 960 242 921 q 360 999 300 999 q 401 994 382 999 q 451 978 421 989 q 540 957 506 957 q 581 992 581 957 l 661 992 z "},"Ő":{"ha":893,"x_min":42,"x_max":851,"o":"m 456 -18 q 145 80 249 -18 q 42 394 42 178 q 156 704 42 607 q 457 801 269 801 q 851 408 851 801 q 755 96 851 210 q 456 -18 658 -18 m 450 146 q 515 159 489 146 q 557 206 542 172 q 586 392 586 263 q 557 575 586 518 q 450 636 528 633 q 390 630 421 636 q 350 613 358 624 q 324 530 333 593 q 315 392 315 467 q 338 221 315 275 q 381 163 353 181 q 450 146 408 146 m 258 926 q 344 1024 286 965 q 463 1135 403 1082 l 549 1036 q 441 947 508 1001 q 324 853 374 892 l 258 926 m 510 926 q 596 1024 538 965 q 714 1135 654 1082 l 800 1036 q 692 947 760 1001 q 575 853 625 892 l 510 926 z "},"Ō":{"ha":893,"x_min":42,"x_max":851,"o":"m 456 -18 q 145 80 249 -18 q 42 394 42 178 q 156 704 42 607 q 457 801 269 801 q 851 408 851 801 q 755 96 851 210 q 456 -18 658 -18 m 450 146 q 515 159 489 146 q 557 206 542 172 q 586 392 586 263 q 557 575 586 518 q 450 636 528 633 q 390 630 421 636 q 350 613 358 624 q 324 530 333 593 q 315 392 315 467 q 338 221 315 275 q 381 163 353 181 q 450 146 408 146 m 254 975 l 651 975 l 651 857 l 254 857 l 254 975 z "},"Ṓ":{"ha":893,"x_min":42,"x_max":851,"o":"m 456 -18 q 145 80 249 -18 q 42 394 42 178 q 156 704 42 607 q 457 801 269 801 q 851 408 851 801 q 755 96 851 210 q 456 -18 658 -18 m 450 146 q 515 159 489 146 q 557 206 542 172 q 586 392 586 263 q 557 575 586 518 q 450 636 528 633 q 390 630 421 636 q 350 613 358 624 q 324 530 333 593 q 315 392 315 467 q 338 221 315 275 q 381 163 353 181 q 450 146 408 146 m 254 975 l 651 975 l 651 857 l 254 857 l 254 975 m 344 1088 q 442 1174 376 1122 q 572 1269 507 1225 l 646 1161 q 528 1085 601 1131 q 400 1007 454 1039 l 344 1088 z "},"Ṑ":{"ha":893,"x_min":42,"x_max":851,"o":"m 456 -18 q 145 80 249 -18 q 42 394 42 178 q 156 704 42 607 q 457 801 269 801 q 851 408 851 801 q 755 96 851 210 q 456 -18 658 -18 m 450 146 q 515 159 489 146 q 557 206 542 172 q 586 392 586 263 q 557 575 586 518 q 450 636 528 633 q 390 630 421 636 q 350 613 358 624 q 324 530 333 593 q 315 392 315 467 q 338 221 315 275 q 381 163 353 181 q 450 146 408 146 m 254 975 l 651 975 l 651 857 l 254 857 l 254 975 m 501 1008 q 374 1086 447 1040 q 256 1163 300 1132 l 329 1271 q 460 1175 394 1226 q 557 1089 525 1124 l 501 1008 z "},"Ø":{"ha":899,"x_min":42,"x_max":851,"o":"m 736 718 q 851 408 851 621 q 755 96 851 210 q 456 -18 658 -18 q 357 -12 397 -18 l 301 -135 l 108 -50 l 160 67 q 42 394 42 165 q 156 704 42 607 q 457 801 269 801 q 540 796 506 801 l 596 922 l 789 838 l 736 718 m 557 206 q 586 392 586 263 q 557 575 586 518 q 450 636 528 633 q 390 630 421 636 q 350 613 358 624 q 324 530 333 593 q 315 392 315 467 q 338 221 315 275 q 381 163 353 181 q 450 146 408 146 q 515 159 489 146 q 557 206 542 172 z "},"Ǿ":{"ha":899,"x_min":42,"x_max":851,"o":"m 736 718 q 851 408 851 621 q 755 96 851 210 q 456 -18 658 -18 q 357 -12 397 -18 l 301 -135 l 108 -50 l 160 67 q 42 394 42 165 q 156 704 42 607 q 457 801 269 801 q 540 796 506 801 l 596 922 l 789 838 l 736 718 m 557 206 q 586 392 586 263 q 557 575 586 518 q 450 636 528 633 q 390 630 421 636 q 350 613 358 624 q 324 530 333 593 q 315 392 315 467 q 338 221 315 275 q 381 163 353 181 q 450 146 408 146 q 515 159 489 146 q 557 206 542 172 m 344 904 q 442 990 376 939 q 572 1086 507 1042 l 646 978 q 528 901 601 947 q 400 824 454 856 l 344 904 z "},"Õ":{"ha":893,"x_min":42,"x_max":851,"o":"m 456 -18 q 145 80 249 -18 q 42 394 42 178 q 156 704 42 607 q 457 801 269 801 q 851 408 851 801 q 755 96 851 210 q 456 -18 658 -18 m 450 146 q 515 159 489 146 q 557 206 542 172 q 586 392 586 263 q 557 575 586 518 q 450 636 528 633 q 390 630 421 636 q 350 613 358 624 q 324 530 333 593 q 315 392 315 467 q 338 221 315 275 q 381 163 353 181 q 450 146 408 146 m 661 992 q 663 971 663 985 q 631 885 663 921 q 544 849 600 849 q 499 855 521 849 q 443 872 476 861 q 364 893 392 893 q 332 883 340 893 q 324 856 324 874 l 243 856 l 242 872 q 271 960 242 921 q 360 999 300 999 q 401 994 382 999 q 451 978 421 989 q 540 957 506 957 q 581 992 581 957 l 661 992 z "},"Ṍ":{"ha":893,"x_min":42,"x_max":851,"o":"m 456 -18 q 145 80 249 -18 q 42 394 42 178 q 156 704 42 607 q 457 801 269 801 q 851 408 851 801 q 755 96 851 210 q 456 -18 658 -18 m 450 146 q 515 159 489 146 q 557 206 542 172 q 586 392 586 263 q 557 575 586 518 q 450 636 528 633 q 390 630 421 636 q 350 613 358 624 q 324 530 333 593 q 315 392 315 467 q 338 221 315 275 q 381 163 353 181 q 450 146 408 146 m 661 992 q 663 971 663 985 q 631 885 663 921 q 544 849 600 849 q 499 855 521 849 q 443 872 476 861 q 364 893 392 893 q 332 883 340 893 q 324 856 324 874 l 243 856 l 242 872 q 271 960 242 921 q 360 999 300 999 q 401 994 382 999 q 451 978 421 989 q 540 957 506 957 q 581 992 581 957 l 661 992 m 317 1111 q 414 1197 349 1146 q 544 1293 479 1249 l 618 1185 q 500 1108 574 1154 q 372 1031 426 1063 l 317 1111 z "},"Œ":{"ha":1204,"x_min":42,"x_max":1163,"o":"m 836 625 l 836 481 l 1111 481 l 1111 331 l 836 331 l 836 169 l 1161 169 l 1161 0 l 603 0 q 444 -15 522 -15 q 149 83 256 -15 q 42 386 42 182 q 154 698 42 594 q 471 801 267 801 q 593 792 539 801 l 1163 792 l 1163 625 l 836 625 m 393 194 q 508 178 428 178 q 586 181 533 178 l 586 615 l 569 615 q 419 612 474 615 q 353 599 364 608 q 321 520 332 579 q 310 407 310 461 q 333 262 310 313 q 393 194 357 211 z "},"P":{"ha":769,"x_min":69,"x_max":750,"o":"m 389 796 q 579 775 501 796 q 703 695 657 754 q 750 526 750 636 q 735 427 750 478 q 699 339 721 376 q 661 290 678 301 q 575 269 642 276 q 418 261 508 261 q 319 264 386 261 l 319 0 l 69 0 l 69 792 q 389 796 215 796 m 493 439 q 507 511 507 457 q 477 611 507 582 q 374 640 447 640 q 319 636 349 640 l 319 425 q 374 424 333 424 q 493 439 481 424 z "},"Þ":{"ha":775,"x_min":72,"x_max":753,"o":"m 392 653 q 582 632 504 653 q 706 552 660 611 q 753 383 753 493 q 727 251 753 314 q 668 142 701 188 q 572 124 638 131 q 432 118 507 118 q 322 122 376 118 l 322 0 l 72 0 l 72 649 l 72 792 l 322 792 l 322 653 l 392 653 m 322 282 q 371 281 336 281 q 500 290 446 281 q 510 368 510 329 q 476 467 510 436 q 376 497 442 497 q 322 493 351 497 l 322 282 z "},"Q":{"ha":899,"x_min":42,"x_max":897,"o":"m 776 -192 l 565 -8 q 456 -18 507 -18 q 145 80 249 -18 q 42 394 42 178 q 156 704 42 607 q 457 801 269 801 q 851 408 851 801 q 743 83 851 193 l 897 -24 l 776 -192 m 450 146 q 515 159 489 146 q 557 206 542 172 q 586 392 586 263 q 557 575 586 518 q 450 636 528 633 q 390 630 421 636 q 350 613 358 624 q 324 530 333 593 q 315 392 315 467 q 338 221 315 275 q 381 163 353 181 q 450 146 408 146 z "},"R":{"ha":806,"x_min":69,"x_max":790,"o":"m 790 0 l 528 0 l 481 200 q 472 238 478 211 q 457 278 465 265 q 433 296 449 292 q 319 294 394 294 l 319 0 l 69 0 l 69 785 q 383 797 238 797 q 597 776 515 797 q 720 702 679 754 q 761 560 761 650 q 722 427 761 475 q 597 369 683 379 l 597 361 q 678 330 646 357 q 722 261 711 303 l 790 0 m 319 451 q 368 450 332 450 q 493 468 475 450 q 510 546 510 485 q 480 624 510 603 q 382 644 450 644 q 319 642 367 644 l 319 451 z "},"Ŕ":{"ha":806,"x_min":69,"x_max":790,"o":"m 790 0 l 528 0 l 481 200 q 472 238 478 211 q 457 278 465 265 q 433 296 449 292 q 319 294 394 294 l 319 0 l 69 0 l 69 785 q 383 797 238 797 q 597 776 515 797 q 720 702 679 754 q 761 560 761 650 q 722 427 761 475 q 597 369 683 379 l 597 361 q 678 330 646 357 q 722 261 711 303 l 790 0 m 319 451 q 368 450 332 450 q 493 468 475 450 q 510 546 510 485 q 480 624 510 603 q 382 644 450 644 q 319 642 367 644 l 319 451 m 257 904 q 354 990 289 939 q 485 1086 419 1042 l 558 978 q 440 901 514 947 q 313 824 367 856 l 257 904 z "},"Ř":{"ha":806,"x_min":69,"x_max":790,"o":"m 790 0 l 528 0 l 481 200 q 472 238 478 211 q 457 278 465 265 q 433 296 449 292 q 319 294 394 294 l 319 0 l 69 0 l 69 785 q 383 797 238 797 q 597 776 515 797 q 720 702 679 754 q 761 560 761 650 q 722 427 761 475 q 597 369 683 379 l 597 361 q 678 330 646 357 q 722 261 711 303 l 790 0 m 319 451 q 368 450 332 450 q 493 468 475 450 q 510 546 510 485 q 480 624 510 603 q 382 644 450 644 q 319 642 367 644 l 319 451 m 594 1022 l 418 871 l 310 871 l 136 1024 l 196 1096 l 368 983 l 538 1096 l 594 1022 z "},"Ŗ":{"ha":806,"x_min":69,"x_max":790,"o":"m 790 0 l 528 0 l 481 200 q 472 238 478 211 q 457 278 465 265 q 433 296 449 292 q 319 294 394 294 l 319 0 l 69 0 l 69 785 q 383 797 238 797 q 597 776 515 797 q 720 702 679 754 q 761 560 761 650 q 722 427 761 475 q 597 369 683 379 l 597 361 q 678 330 646 357 q 722 261 711 303 l 790 0 m 319 451 q 368 450 332 450 q 493 468 475 450 q 510 546 510 485 q 480 624 510 603 q 382 644 450 644 q 319 642 367 644 l 319 451 m 353 -81 q 397 -78 375 -78 q 451 -81 424 -78 q 488 -86 478 -83 q 496 -150 496 -114 q 472 -278 496 -214 q 422 -365 453 -332 q 322 -340 363 -357 q 349 -257 340 -301 q 358 -164 358 -214 q 353 -81 358 -118 z "},"Ɍ":{"ha":806,"x_min":3,"x_max":790,"o":"m 790 0 l 528 0 l 481 200 q 472 238 478 211 q 457 278 465 265 q 433 296 449 292 q 319 294 394 294 l 319 0 l 69 0 l 69 349 l 3 349 l 3 444 l 69 444 l 69 785 q 383 797 238 797 q 597 776 515 797 q 720 702 679 754 q 761 560 761 650 q 722 427 761 475 q 597 369 683 379 l 597 361 q 678 330 646 357 q 722 261 711 303 l 790 0 m 319 451 q 368 450 332 450 q 493 468 475 450 q 510 546 510 485 q 480 624 510 603 q 382 644 450 644 q 319 642 367 644 l 319 451 z "},"S":{"ha":715,"x_min":53,"x_max":669,"o":"m 297 578 q 327 532 297 549 q 421 496 357 515 q 547 447 497 471 q 633 374 596 424 q 669 243 669 324 q 333 -15 669 -15 q 198 -6 278 -15 q 53 19 118 4 q 65 105 56 49 q 82 189 74 161 q 228 172 131 182 q 376 163 326 163 q 411 167 406 163 q 424 185 419 172 q 429 208 429 199 q 403 251 429 236 q 313 286 376 265 q 186 335 236 310 q 99 413 136 360 q 61 551 61 465 q 89 672 61 613 q 146 751 117 731 q 238 781 168 767 q 368 794 307 794 q 622 765 524 794 q 613 689 621 738 q 597 600 606 640 l 565 601 q 335 614 385 614 q 311 613 314 614 q 301 600 306 610 q 297 578 297 590 z "},"Ś":{"ha":715,"x_min":53,"x_max":669,"o":"m 297 578 q 327 532 297 549 q 421 496 357 515 q 547 447 497 471 q 633 374 596 424 q 669 243 669 324 q 333 -15 669 -15 q 198 -6 278 -15 q 53 19 118 4 q 65 105 56 49 q 82 189 74 161 q 228 172 131 182 q 376 163 326 163 q 411 167 406 163 q 424 185 419 172 q 429 208 429 199 q 403 251 429 236 q 313 286 376 265 q 186 335 236 310 q 99 413 136 360 q 61 551 61 465 q 89 672 61 613 q 146 751 117 731 q 238 781 168 767 q 368 794 307 794 q 622 765 524 794 q 613 689 621 738 q 597 600 606 640 l 565 601 q 335 614 385 614 q 311 613 314 614 q 301 600 306 610 q 297 578 297 590 m 257 904 q 354 990 289 939 q 485 1086 419 1042 l 558 978 q 440 901 514 947 q 313 824 367 856 l 257 904 z "},"Š":{"ha":715,"x_min":53,"x_max":669,"o":"m 297 578 q 327 532 297 549 q 421 496 357 515 q 547 447 497 471 q 633 374 596 424 q 669 243 669 324 q 333 -15 669 -15 q 198 -6 278 -15 q 53 19 118 4 q 65 105 56 49 q 82 189 74 161 q 228 172 131 182 q 376 163 326 163 q 411 167 406 163 q 424 185 419 172 q 429 208 429 199 q 403 251 429 236 q 313 286 376 265 q 186 335 236 310 q 99 413 136 360 q 61 551 61 465 q 89 672 61 613 q 146 751 117 731 q 238 781 168 767 q 368 794 307 794 q 622 765 524 794 q 613 689 621 738 q 597 600 606 640 l 565 601 q 335 614 385 614 q 311 613 314 614 q 301 600 306 610 q 297 578 297 590 m 594 1022 l 418 871 l 310 871 l 136 1024 l 196 1096 l 368 983 l 538 1096 l 594 1022 z "},"Ş":{"ha":715,"x_min":53,"x_max":669,"o":"m 669 243 q 396 -12 669 8 l 375 -75 q 477 -109 442 -75 q 513 -201 513 -143 q 453 -311 513 -272 q 306 -350 393 -350 q 229 -342 267 -350 l 239 -257 q 351 -249 321 -257 q 381 -204 381 -240 q 359 -167 381 -178 q 299 -157 338 -157 l 267 -158 l 261 -146 l 310 -15 q 183 -3 254 -12 q 53 19 111 6 q 65 105 56 49 q 82 189 74 161 q 228 172 131 182 q 376 163 326 163 q 411 167 406 163 q 424 185 419 172 q 429 208 429 199 q 403 251 429 236 q 313 286 376 265 q 186 335 236 310 q 99 413 136 360 q 61 551 61 465 q 89 672 61 613 q 146 751 117 731 q 238 781 168 767 q 368 794 307 794 q 622 765 524 794 q 613 689 621 738 q 597 600 606 640 l 565 601 q 335 614 385 614 q 311 613 314 614 q 301 600 306 610 q 297 578 297 590 q 327 532 297 549 q 421 496 357 515 q 547 447 497 471 q 633 374 596 424 q 669 243 669 324 z "},"Ș":{"ha":715,"x_min":53,"x_max":669,"o":"m 297 578 q 327 532 297 549 q 421 496 357 515 q 547 447 497 471 q 633 374 596 424 q 669 243 669 324 q 333 -15 669 -15 q 198 -6 278 -15 q 53 19 118 4 q 65 105 56 49 q 82 189 74 161 q 228 172 131 182 q 376 163 326 163 q 411 167 406 163 q 424 185 419 172 q 429 208 429 199 q 403 251 429 236 q 313 286 376 265 q 186 335 236 310 q 99 413 136 360 q 61 551 61 465 q 89 672 61 613 q 146 751 117 731 q 238 781 168 767 q 368 794 307 794 q 622 765 524 794 q 613 689 621 738 q 597 600 606 640 l 565 601 q 335 614 385 614 q 311 613 314 614 q 301 600 306 610 q 297 578 297 590 m 293 -81 q 338 -78 315 -78 q 391 -81 364 -78 q 428 -86 418 -83 q 436 -150 436 -114 q 413 -278 436 -214 q 363 -365 393 -332 q 263 -340 303 -357 q 289 -257 281 -301 q 299 -164 299 -214 q 293 -81 299 -118 z "},"Ṣ":{"ha":715,"x_min":53,"x_max":669,"o":"m 297 578 q 327 532 297 549 q 421 496 357 515 q 547 447 497 471 q 633 374 596 424 q 669 243 669 324 q 333 -15 669 -15 q 198 -6 278 -15 q 53 19 118 4 q 65 105 56 49 q 82 189 74 161 q 228 172 131 182 q 376 163 326 163 q 411 167 406 163 q 424 185 419 172 q 429 208 429 199 q 403 251 429 236 q 313 286 376 265 q 186 335 236 310 q 99 413 136 360 q 61 551 61 465 q 89 672 61 613 q 146 751 117 731 q 238 781 168 767 q 368 794 307 794 q 622 765 524 794 q 613 689 621 738 q 597 600 606 640 l 565 601 q 335 614 385 614 q 311 613 314 614 q 301 600 306 610 q 297 578 297 590 m 447 -169 q 422 -242 447 -215 q 353 -268 397 -268 q 285 -242 310 -268 q 261 -172 261 -217 q 285 -100 261 -126 q 353 -74 310 -74 q 422 -99 396 -74 q 447 -169 447 -125 z "},"T":{"ha":719,"x_min":11,"x_max":708,"o":"m 485 0 l 235 0 l 235 618 l 11 618 l 11 792 l 708 792 l 708 618 l 485 618 l 485 0 z "},"Ŧ":{"ha":725,"x_min":11,"x_max":708,"o":"m 485 618 l 485 461 l 676 461 l 676 365 l 485 365 l 485 0 l 235 0 l 235 365 l 49 365 l 49 461 l 235 461 l 235 618 l 11 618 l 11 792 l 708 792 l 708 618 l 485 618 z "},"Ť":{"ha":719,"x_min":11,"x_max":708,"o":"m 485 0 l 235 0 l 235 618 l 11 618 l 11 792 l 708 792 l 708 618 l 485 618 l 485 0 m 589 1022 l 413 871 l 304 871 l 131 1024 l 190 1096 l 363 983 l 532 1096 l 589 1022 z "},"Ţ":{"ha":719,"x_min":11,"x_max":708,"o":"m 407 0 l 381 -75 q 483 -109 447 -75 q 518 -201 518 -143 q 458 -311 518 -272 q 311 -350 399 -350 q 235 -342 272 -350 l 244 -257 q 356 -249 325 -257 q 386 -204 386 -240 q 365 -167 386 -178 q 304 -157 343 -157 l 272 -158 l 267 -146 l 319 0 l 235 0 l 235 618 l 11 618 l 11 792 l 708 792 l 708 618 l 485 618 l 485 0 l 407 0 z "},"Ṱ":{"ha":719,"x_min":11,"x_max":708,"o":"m 485 0 l 235 0 l 235 618 l 11 618 l 11 792 l 708 792 l 708 618 l 485 618 l 485 0 m 526 -294 l 357 -171 l 185 -294 l 125 -222 l 299 -56 l 407 -56 l 583 -221 l 526 -294 z "},"Ț":{"ha":719,"x_min":11,"x_max":708,"o":"m 485 0 l 235 0 l 235 618 l 11 618 l 11 792 l 708 792 l 708 618 l 485 618 l 485 0 m 299 -81 q 343 -78 321 -78 q 397 -81 369 -78 q 433 -86 424 -83 q 442 -150 442 -114 q 418 -278 442 -214 q 368 -365 399 -332 q 268 -340 308 -357 q 294 -257 286 -301 q 304 -164 304 -214 q 299 -81 304 -118 z "},"Ṭ":{"ha":719,"x_min":11,"x_max":708,"o":"m 485 0 l 235 0 l 235 618 l 11 618 l 11 792 l 708 792 l 708 618 l 485 618 l 485 0 m 453 -169 q 428 -242 453 -215 q 358 -268 403 -268 q 291 -242 315 -268 q 267 -172 267 -217 q 291 -100 267 -126 q 358 -74 315 -74 q 427 -99 401 -74 q 453 -169 453 -125 z "},"Ṯ":{"ha":719,"x_min":11,"x_max":708,"o":"m 485 0 l 235 0 l 235 618 l 11 618 l 11 792 l 708 792 l 708 618 l 485 618 l 485 0 m 164 -79 l 561 -79 l 561 -197 l 164 -197 l 164 -79 z "},"U":{"ha":872,"x_min":63,"x_max":810,"o":"m 810 792 l 810 349 q 780 134 810 211 q 668 21 750 57 q 429 -15 586 -15 q 235 9 314 -15 q 109 101 156 33 q 63 293 63 169 l 63 792 l 313 792 l 313 346 q 320 234 313 272 q 356 176 328 196 q 440 156 383 156 q 506 163 475 156 q 547 183 536 169 q 560 304 560 200 l 560 792 l 810 792 z "},"Ú":{"ha":872,"x_min":63,"x_max":810,"o":"m 810 792 l 810 349 q 780 134 810 211 q 668 21 750 57 q 429 -15 586 -15 q 235 9 314 -15 q 109 101 156 33 q 63 293 63 169 l 63 792 l 313 792 l 313 346 q 320 234 313 272 q 356 176 328 196 q 440 156 383 156 q 506 163 475 156 q 547 183 536 169 q 560 304 560 200 l 560 792 l 810 792 m 328 904 q 425 990 360 939 q 556 1086 490 1042 l 629 978 q 511 901 585 947 q 383 824 438 856 l 328 904 z "},"Ʉ":{"ha":872,"x_min":18,"x_max":854,"o":"m 854 460 l 810 460 l 810 349 q 780 134 810 211 q 668 21 750 57 q 429 -15 586 -15 q 235 9 314 -15 q 109 101 156 33 q 63 293 63 169 l 63 460 l 18 460 l 18 556 l 63 556 l 63 792 l 313 792 l 313 556 l 560 556 l 560 792 l 810 792 l 810 556 l 854 556 l 854 460 m 560 460 l 313 460 l 313 346 q 320 234 313 272 q 356 176 328 196 q 440 156 383 156 q 506 163 475 156 q 547 183 536 169 q 560 304 560 200 l 560 460 z "},"Ǔ":{"ha":872,"x_min":63,"x_max":810,"o":"m 810 792 l 810 349 q 780 134 810 211 q 668 21 750 57 q 429 -15 586 -15 q 235 9 314 -15 q 109 101 156 33 q 63 293 63 169 l 63 792 l 313 792 l 313 346 q 320 234 313 272 q 356 176 328 196 q 440 156 383 156 q 506 163 475 156 q 547 183 536 169 q 560 304 560 200 l 560 792 l 810 792 m 665 1022 l 489 871 l 381 871 l 207 1024 l 267 1096 l 439 983 l 608 1096 l 665 1022 z "},"Û":{"ha":872,"x_min":63,"x_max":810,"o":"m 810 792 l 810 349 q 780 134 810 211 q 668 21 750 57 q 429 -15 586 -15 q 235 9 314 -15 q 109 101 156 33 q 63 293 63 169 l 63 792 l 313 792 l 313 346 q 320 234 313 272 q 356 176 328 196 q 440 156 383 156 q 506 163 475 156 q 547 183 536 169 q 560 304 560 200 l 560 792 l 810 792 m 493 1071 q 668 922 575 1007 l 611 849 q 442 957 508 917 q 269 849 338 893 l 210 921 q 382 1071 285 992 l 493 1071 z "},"Ü":{"ha":872,"x_min":63,"x_max":810,"o":"m 810 792 l 810 349 q 780 134 810 211 q 668 21 750 57 q 429 -15 586 -15 q 235 9 314 -15 q 109 101 156 33 q 63 293 63 169 l 63 792 l 313 792 l 313 346 q 320 234 313 272 q 356 176 328 196 q 440 156 383 156 q 506 163 475 156 q 547 183 536 169 q 560 304 560 200 l 560 792 l 810 792 m 400 953 q 374 876 400 904 q 301 849 347 849 q 229 876 256 849 q 203 950 203 903 q 229 1026 203 999 q 301 1054 256 1054 q 374 1027 349 1054 q 400 953 400 1000 m 672 953 q 645 877 672 906 q 572 849 618 849 q 501 876 526 849 q 475 950 475 903 q 501 1026 475 999 q 572 1054 526 1054 q 645 1027 618 1054 q 672 953 672 1000 z "},"Ǘ":{"ha":872,"x_min":63,"x_max":810,"o":"m 810 792 l 810 349 q 780 134 810 211 q 668 21 750 57 q 429 -15 586 -15 q 235 9 314 -15 q 109 101 156 33 q 63 293 63 169 l 63 792 l 313 792 l 313 346 q 320 234 313 272 q 356 176 328 196 q 440 156 383 156 q 506 163 475 156 q 547 183 536 169 q 560 304 560 200 l 560 792 l 810 792 m 400 953 q 374 876 400 904 q 301 849 347 849 q 229 876 256 849 q 203 950 203 903 q 229 1026 203 999 q 301 1054 256 1054 q 374 1027 349 1054 q 400 953 400 1000 m 672 953 q 645 877 672 906 q 572 849 618 849 q 501 876 526 849 q 475 950 475 903 q 501 1026 475 999 q 572 1054 526 1054 q 645 1027 618 1054 q 672 953 672 1000 m 328 1167 q 425 1253 360 1201 q 556 1349 490 1304 l 629 1240 q 511 1164 585 1210 q 383 1086 438 1118 l 328 1167 z "},"Ǚ":{"ha":872,"x_min":63,"x_max":810,"o":"m 810 792 l 810 349 q 780 134 810 211 q 668 21 750 57 q 429 -15 586 -15 q 235 9 314 -15 q 109 101 156 33 q 63 293 63 169 l 63 792 l 313 792 l 313 346 q 320 234 313 272 q 356 176 328 196 q 440 156 383 156 q 506 163 475 156 q 547 183 536 169 q 560 304 560 200 l 560 792 l 810 792 m 400 953 q 374 876 400 904 q 301 849 347 849 q 229 876 256 849 q 203 950 203 903 q 229 1026 203 999 q 301 1054 256 1054 q 374 1027 349 1054 q 400 953 400 1000 m 672 953 q 645 877 672 906 q 572 849 618 849 q 501 876 526 849 q 475 950 475 903 q 501 1026 475 999 q 572 1054 526 1054 q 645 1027 618 1054 q 672 953 672 1000 m 665 1285 l 489 1133 l 381 1133 l 207 1286 l 267 1358 l 439 1246 l 608 1358 l 665 1285 z "},"Ǜ":{"ha":872,"x_min":63,"x_max":810,"o":"m 810 792 l 810 349 q 780 134 810 211 q 668 21 750 57 q 429 -15 586 -15 q 235 9 314 -15 q 109 101 156 33 q 63 293 63 169 l 63 792 l 313 792 l 313 346 q 320 234 313 272 q 356 176 328 196 q 440 156 383 156 q 506 163 475 156 q 547 183 536 169 q 560 304 560 200 l 560 792 l 810 792 m 400 953 q 374 876 400 904 q 301 849 347 849 q 229 876 256 849 q 203 950 203 903 q 229 1026 203 999 q 301 1054 256 1054 q 374 1027 349 1054 q 400 953 400 1000 m 672 953 q 645 877 672 906 q 572 849 618 849 q 501 876 526 849 q 475 950 475 903 q 501 1026 475 999 q 572 1054 526 1054 q 645 1027 618 1054 q 672 953 672 1000 m 485 1088 q 357 1165 431 1119 q 239 1242 283 1211 l 313 1350 q 443 1254 378 1306 q 540 1168 508 1203 l 485 1088 z "},"Ǖ":{"ha":872,"x_min":63,"x_max":810,"o":"m 810 792 l 810 349 q 780 134 810 211 q 668 21 750 57 q 429 -15 586 -15 q 235 9 314 -15 q 109 101 156 33 q 63 293 63 169 l 63 792 l 313 792 l 313 346 q 320 234 313 272 q 356 176 328 196 q 440 156 383 156 q 506 163 475 156 q 547 183 536 169 q 560 304 560 200 l 560 792 l 810 792 m 400 953 q 374 876 400 904 q 301 849 347 849 q 229 876 256 849 q 203 950 203 903 q 229 1026 203 999 q 301 1054 256 1054 q 374 1027 349 1054 q 400 953 400 1000 m 672 953 q 645 877 672 906 q 572 849 618 849 q 501 876 526 849 q 475 950 475 903 q 501 1026 475 999 q 572 1054 526 1054 q 645 1027 618 1054 q 672 953 672 1000 m 238 1238 l 635 1238 l 635 1119 l 238 1119 l 238 1238 z "},"Ụ":{"ha":872,"x_min":63,"x_max":810,"o":"m 810 792 l 810 349 q 780 134 810 211 q 668 21 750 57 q 429 -15 586 -15 q 235 9 314 -15 q 109 101 156 33 q 63 293 63 169 l 63 792 l 313 792 l 313 346 q 320 234 313 272 q 356 176 328 196 q 440 156 383 156 q 506 163 475 156 q 547 183 536 169 q 560 304 560 200 l 560 792 l 810 792 m 531 -169 q 506 -242 531 -215 q 436 -268 481 -268 q 369 -242 393 -268 q 344 -172 344 -217 q 369 -100 344 -126 q 436 -74 393 -74 q 505 -99 479 -74 q 531 -169 531 -125 z "},"Ù":{"ha":872,"x_min":63,"x_max":810,"o":"m 810 792 l 810 349 q 780 134 810 211 q 668 21 750 57 q 429 -15 586 -15 q 235 9 314 -15 q 109 101 156 33 q 63 293 63 169 l 63 792 l 313 792 l 313 346 q 320 234 313 272 q 356 176 328 196 q 440 156 383 156 q 506 163 475 156 q 547 183 536 169 q 560 304 560 200 l 560 792 l 810 792 m 485 825 q 357 903 431 857 q 239 979 283 949 l 313 1088 q 443 992 378 1043 q 540 906 508 940 l 485 825 z "},"Ủ":{"ha":872,"x_min":63,"x_max":810,"o":"m 810 792 l 810 349 q 780 134 810 211 q 668 21 750 57 q 429 -15 586 -15 q 235 9 314 -15 q 109 101 156 33 q 63 293 63 169 l 63 792 l 313 792 l 313 346 q 320 234 313 272 q 356 176 328 196 q 440 156 383 156 q 506 163 475 156 q 547 183 536 169 q 560 304 560 200 l 560 792 l 810 792 m 364 943 q 429 969 413 956 q 446 996 446 982 q 322 1063 446 1046 l 354 1167 q 499 1113 446 1158 q 556 1008 553 1068 q 394 840 564 871 l 364 943 z "},"Ư":{"ha":872,"x_min":63,"x_max":1011,"o":"m 983 1024 q 1011 910 1011 964 q 960 782 1011 836 q 810 708 910 728 l 810 349 q 780 134 810 211 q 668 21 750 57 q 429 -15 586 -15 q 235 9 314 -15 q 109 101 156 33 q 63 293 63 169 l 63 792 l 313 792 l 313 346 q 320 234 313 272 q 356 176 328 196 q 440 156 383 156 q 506 163 475 156 q 547 183 536 169 q 560 304 560 200 l 560 792 l 808 792 q 853 883 853 829 q 824 978 853 928 l 983 1024 z "},"Ứ":{"ha":872,"x_min":63,"x_max":1011,"o":"m 983 1024 q 1011 910 1011 964 q 960 782 1011 836 q 810 708 910 728 l 810 349 q 780 134 810 211 q 668 21 750 57 q 429 -15 586 -15 q 235 9 314 -15 q 109 101 156 33 q 63 293 63 169 l 63 792 l 313 792 l 313 346 q 320 234 313 272 q 356 176 328 196 q 440 156 383 156 q 506 163 475 156 q 547 183 536 169 q 560 304 560 200 l 560 792 l 808 792 q 853 883 853 829 q 824 978 853 928 l 983 1024 m 328 904 q 425 990 360 939 q 556 1086 490 1042 l 629 978 q 511 901 585 947 q 383 824 438 856 l 328 904 z "},"Ự":{"ha":872,"x_min":63,"x_max":1011,"o":"m 983 1024 q 1011 910 1011 964 q 960 782 1011 836 q 810 708 910 728 l 810 349 q 780 134 810 211 q 668 21 750 57 q 429 -15 586 -15 q 235 9 314 -15 q 109 101 156 33 q 63 293 63 169 l 63 792 l 313 792 l 313 346 q 320 234 313 272 q 356 176 328 196 q 440 156 383 156 q 506 163 475 156 q 547 183 536 169 q 560 304 560 200 l 560 792 l 808 792 q 853 883 853 829 q 824 978 853 928 l 983 1024 m 531 -169 q 506 -242 531 -215 q 436 -268 481 -268 q 369 -242 393 -268 q 344 -172 344 -217 q 369 -100 344 -126 q 436 -74 393 -74 q 505 -99 479 -74 q 531 -169 531 -125 z "},"Ừ":{"ha":872,"x_min":63,"x_max":1011,"o":"m 983 1024 q 1011 910 1011 964 q 960 782 1011 836 q 810 708 910 728 l 810 349 q 780 134 810 211 q 668 21 750 57 q 429 -15 586 -15 q 235 9 314 -15 q 109 101 156 33 q 63 293 63 169 l 63 792 l 313 792 l 313 346 q 320 234 313 272 q 356 176 328 196 q 440 156 383 156 q 506 163 475 156 q 547 183 536 169 q 560 304 560 200 l 560 792 l 808 792 q 853 883 853 829 q 824 978 853 928 l 983 1024 m 485 825 q 357 903 431 857 q 239 979 283 949 l 313 1088 q 443 992 378 1043 q 540 906 508 940 l 485 825 z "},"Ử":{"ha":872,"x_min":63,"x_max":1011,"o":"m 983 1024 q 1011 910 1011 964 q 960 782 1011 836 q 810 708 910 728 l 810 349 q 780 134 810 211 q 668 21 750 57 q 429 -15 586 -15 q 235 9 314 -15 q 109 101 156 33 q 63 293 63 169 l 63 792 l 313 792 l 313 346 q 320 234 313 272 q 356 176 328 196 q 440 156 383 156 q 506 163 475 156 q 547 183 536 169 q 560 304 560 200 l 560 792 l 808 792 q 853 883 853 829 q 824 978 853 928 l 983 1024 m 364 943 q 429 969 413 956 q 446 996 446 982 q 322 1063 446 1046 l 354 1167 q 499 1113 446 1158 q 556 1008 553 1068 q 394 840 564 871 l 364 943 z "},"Ữ":{"ha":872,"x_min":63,"x_max":1011,"o":"m 983 1024 q 1011 910 1011 964 q 960 782 1011 836 q 810 708 910 728 l 810 349 q 780 134 810 211 q 668 21 750 57 q 429 -15 586 -15 q 235 9 314 -15 q 109 101 156 33 q 63 293 63 169 l 63 792 l 313 792 l 313 346 q 320 234 313 272 q 356 176 328 196 q 440 156 383 156 q 506 163 475 156 q 547 183 536 169 q 560 304 560 200 l 560 792 l 808 792 q 853 883 853 829 q 824 978 853 928 l 983 1024 m 644 992 q 646 971 646 985 q 615 885 646 921 q 528 849 583 849 q 482 855 504 849 q 426 872 460 861 q 347 893 375 893 q 315 883 324 893 q 307 856 307 874 l 226 856 l 225 872 q 254 960 225 921 q 343 999 283 999 q 385 994 365 999 q 435 978 404 989 q 524 957 489 957 q 564 992 564 957 l 644 992 z "},"Ű":{"ha":872,"x_min":63,"x_max":810,"o":"m 242 926 q 328 1024 269 965 q 446 1135 386 1082 l 532 1036 q 424 947 492 1001 q 307 853 357 892 l 242 926 m 493 926 q 579 1024 521 965 q 697 1135 638 1082 l 783 1036 q 676 947 743 1001 q 558 853 608 892 l 493 926 m 810 792 l 810 349 q 780 134 810 211 q 668 21 750 57 q 429 -15 586 -15 q 235 9 314 -15 q 109 101 156 33 q 63 293 63 169 l 63 792 l 313 792 l 313 346 q 320 234 313 272 q 356 176 328 196 q 440 156 383 156 q 506 163 475 156 q 547 183 536 169 q 560 304 560 200 l 560 792 l 810 792 z "},"Ū":{"ha":872,"x_min":63,"x_max":810,"o":"m 810 792 l 810 349 q 780 134 810 211 q 668 21 750 57 q 429 -15 586 -15 q 235 9 314 -15 q 109 101 156 33 q 63 293 63 169 l 63 792 l 313 792 l 313 346 q 320 234 313 272 q 356 176 328 196 q 440 156 383 156 q 506 163 475 156 q 547 183 536 169 q 560 304 560 200 l 560 792 l 810 792 m 238 975 l 635 975 l 635 857 l 238 857 l 238 975 z "},"Ų":{"ha":872,"x_min":63,"x_max":810,"o":"m 810 792 l 810 349 q 786 151 810 225 q 700 38 763 78 q 519 -12 638 -3 q 419 -175 419 -103 q 485 -242 419 -242 q 565 -225 513 -242 l 581 -307 q 444 -354 517 -354 q 333 -315 378 -354 q 288 -207 288 -275 q 399 -15 288 -110 q 220 15 293 -12 q 105 108 147 42 q 63 293 63 175 l 63 792 l 313 792 l 313 346 q 320 234 313 272 q 356 176 328 196 q 440 156 383 156 q 506 163 475 156 q 547 183 536 169 q 560 304 560 200 l 560 792 l 810 792 z "},"Ů":{"ha":872,"x_min":63,"x_max":810,"o":"m 810 792 l 810 349 q 780 134 810 211 q 668 21 750 57 q 429 -15 586 -15 q 235 9 314 -15 q 109 101 156 33 q 63 293 63 169 l 63 792 l 313 792 l 313 346 q 320 234 313 272 q 356 176 328 196 q 440 156 383 156 q 506 163 475 156 q 547 183 536 169 q 560 304 560 200 l 560 792 l 810 792 m 568 981 q 530 888 568 926 q 436 850 492 850 q 342 887 379 850 q 306 981 306 924 q 344 1074 306 1038 q 439 1111 382 1111 q 532 1075 496 1111 q 568 981 568 1039 m 499 982 q 481 1029 499 1013 q 436 1046 464 1046 q 392 1027 410 1046 q 375 981 375 1008 q 392 933 375 951 q 439 915 410 915 q 482 935 465 915 q 499 982 499 954 z "},"Ũ":{"ha":872,"x_min":63,"x_max":810,"o":"m 810 792 l 810 349 q 780 134 810 211 q 668 21 750 57 q 429 -15 586 -15 q 235 9 314 -15 q 109 101 156 33 q 63 293 63 169 l 63 792 l 313 792 l 313 346 q 320 234 313 272 q 356 176 328 196 q 440 156 383 156 q 506 163 475 156 q 547 183 536 169 q 560 304 560 200 l 560 792 l 810 792 m 644 992 q 646 971 646 985 q 615 885 646 921 q 528 849 583 849 q 482 855 504 849 q 426 872 460 861 q 347 893 375 893 q 315 883 324 893 q 307 856 307 874 l 226 856 l 225 872 q 254 960 225 921 q 343 999 283 999 q 385 994 365 999 q 435 978 404 989 q 524 957 489 957 q 564 992 564 957 l 644 992 z "},"V":{"ha":792,"x_min":0,"x_max":792,"o":"m 528 792 l 792 792 l 578 0 l 215 0 l 0 792 l 265 792 l 393 172 l 400 172 l 528 792 z "},"W":{"ha":1274,"x_min":19,"x_max":1254,"o":"m 536 0 l 224 0 l 19 792 l 286 792 l 392 210 l 399 210 l 511 792 l 772 792 l 888 210 l 892 210 l 999 792 l 1254 792 l 1050 0 l 739 0 l 644 506 l 636 506 l 536 0 z "},"Ẃ":{"ha":1274,"x_min":19,"x_max":1254,"o":"m 536 0 l 224 0 l 19 792 l 286 792 l 392 210 l 399 210 l 511 792 l 772 792 l 888 210 l 892 210 l 999 792 l 1254 792 l 1050 0 l 739 0 l 644 506 l 636 506 l 536 0 m 536 904 q 633 990 568 939 q 764 1086 699 1042 l 838 978 q 719 901 793 947 q 592 824 646 856 l 536 904 z "},"Ŵ":{"ha":1274,"x_min":19,"x_max":1254,"o":"m 536 0 l 224 0 l 19 792 l 286 792 l 392 210 l 399 210 l 511 792 l 772 792 l 888 210 l 892 210 l 999 792 l 1254 792 l 1050 0 l 739 0 l 644 506 l 636 506 l 536 0 m 701 1071 q 876 922 783 1007 l 819 849 q 650 957 717 917 q 478 849 546 893 l 418 921 q 590 1071 493 992 l 701 1071 z "},"Ẅ":{"ha":1274,"x_min":19,"x_max":1254,"o":"m 536 0 l 224 0 l 19 792 l 286 792 l 392 210 l 399 210 l 511 792 l 772 792 l 888 210 l 892 210 l 999 792 l 1254 792 l 1050 0 l 739 0 l 644 506 l 636 506 l 536 0 m 608 953 q 582 876 608 904 q 510 849 556 849 q 438 876 464 849 q 411 950 411 903 q 438 1026 411 999 q 510 1054 464 1054 q 583 1027 557 1054 q 608 953 608 1000 m 881 953 q 853 877 881 906 q 781 849 826 849 q 709 876 735 849 q 683 950 683 903 q 709 1026 683 999 q 781 1054 735 1054 q 853 1027 826 1054 q 881 953 881 1000 z "},"Ẁ":{"ha":1274,"x_min":19,"x_max":1254,"o":"m 536 0 l 224 0 l 19 792 l 286 792 l 392 210 l 399 210 l 511 792 l 772 792 l 888 210 l 892 210 l 999 792 l 1254 792 l 1050 0 l 739 0 l 644 506 l 636 506 l 536 0 m 693 825 q 565 903 639 857 q 447 979 492 949 l 521 1088 q 651 992 586 1043 q 749 906 717 940 l 693 825 z "},"X":{"ha":786,"x_min":-3,"x_max":789,"o":"m 199 406 l 13 792 l 268 792 l 396 481 l 528 792 l 776 792 l 593 406 l 789 -1 l 533 -1 l 396 335 l 254 -1 l -3 -1 l 199 406 z "},"Y":{"ha":761,"x_min":-10,"x_max":771,"o":"m 507 253 l 507 0 l 257 0 l 257 250 l -10 792 l 244 792 l 350 535 q 381 453 367 496 l 383 453 q 414 538 399 500 l 518 792 l 771 792 l 507 253 z "},"Ý":{"ha":761,"x_min":-10,"x_max":771,"o":"m 507 253 l 507 0 l 257 0 l 257 250 l -10 792 l 244 792 l 350 535 q 381 453 367 496 l 383 453 q 414 538 399 500 l 518 792 l 771 792 l 507 253 m 271 904 q 368 990 303 939 q 499 1086 433 1042 l 572 978 q 454 901 528 947 q 326 824 381 856 l 271 904 z "},"Ŷ":{"ha":761,"x_min":-10,"x_max":771,"o":"m 507 253 l 507 0 l 257 0 l 257 250 l -10 792 l 244 792 l 350 535 q 381 453 367 496 l 383 453 q 414 538 399 500 l 518 792 l 771 792 l 507 253 m 436 1071 q 611 922 518 1007 l 554 849 q 385 957 451 917 q 213 849 281 893 l 153 921 q 325 1071 228 992 l 436 1071 z "},"Ÿ":{"ha":761,"x_min":-10,"x_max":771,"o":"m 507 253 l 507 0 l 257 0 l 257 250 l -10 792 l 244 792 l 350 535 q 381 453 367 496 l 383 453 q 414 538 399 500 l 518 792 l 771 792 l 507 253 m 343 953 q 317 876 343 904 q 244 849 290 849 q 172 876 199 849 q 146 950 146 903 q 172 1026 146 999 q 244 1054 199 1054 q 317 1027 292 1054 q 343 953 343 1000 m 615 953 q 588 877 615 906 q 515 849 561 849 q 444 876 469 849 q 418 950 418 903 q 444 1026 418 999 q 515 1054 469 1054 q 588 1027 561 1054 q 615 953 615 1000 z "},"Ỵ":{"ha":761,"x_min":-10,"x_max":771,"o":"m 507 253 l 507 0 l 257 0 l 257 250 l -10 792 l 244 792 l 350 535 q 381 453 367 496 l 383 453 q 414 538 399 500 l 518 792 l 771 792 l 507 253 m 471 -169 q 446 -242 471 -215 q 376 -268 421 -268 q 309 -242 333 -268 q 285 -172 285 -217 q 309 -100 285 -126 q 376 -74 333 -74 q 445 -99 419 -74 q 471 -169 471 -125 z "},"Ỳ":{"ha":761,"x_min":-10,"x_max":771,"o":"m 507 253 l 507 0 l 257 0 l 257 250 l -10 792 l 244 792 l 350 535 q 381 453 367 496 l 383 453 q 414 538 399 500 l 518 792 l 771 792 l 507 253 m 428 825 q 300 903 374 857 q 182 979 226 949 l 256 1088 q 386 992 321 1043 q 483 906 451 940 l 428 825 z "},"Ỷ":{"ha":761,"x_min":-10,"x_max":771,"o":"m 507 253 l 507 0 l 257 0 l 257 250 l -10 792 l 244 792 l 350 535 q 381 453 367 496 l 383 453 q 414 538 399 500 l 518 792 l 771 792 l 507 253 m 307 943 q 372 969 356 956 q 389 996 389 982 q 265 1063 389 1046 l 297 1167 q 442 1113 389 1158 q 499 1008 496 1068 q 338 840 507 871 l 307 943 z "},"Ỹ":{"ha":761,"x_min":-10,"x_max":771,"o":"m 507 253 l 507 0 l 257 0 l 257 250 l -10 792 l 244 792 l 350 535 q 381 453 367 496 l 383 453 q 414 538 399 500 l 518 792 l 771 792 l 507 253 m 588 992 q 589 971 589 985 q 558 885 589 921 q 471 849 526 849 q 425 855 447 849 q 369 872 403 861 q 290 893 318 893 q 258 883 267 893 q 250 856 250 874 l 169 856 l 168 872 q 197 960 168 921 q 286 999 226 999 q 328 994 308 999 q 378 978 347 989 q 467 957 432 957 q 507 992 507 957 l 588 992 z "},"Z":{"ha":715,"x_min":38,"x_max":679,"o":"m 679 151 l 679 0 l 38 0 l 38 158 l 414 639 l 49 639 l 49 792 l 668 792 l 668 632 l 297 151 l 679 151 z "},"Ź":{"ha":715,"x_min":38,"x_max":679,"o":"m 679 151 l 679 0 l 38 0 l 38 158 l 414 639 l 49 639 l 49 792 l 668 792 l 668 632 l 297 151 l 679 151 m 247 904 q 344 990 279 939 q 475 1086 410 1042 l 549 978 q 431 901 504 947 q 303 824 357 856 l 247 904 z "},"Ž":{"ha":715,"x_min":38,"x_max":679,"o":"m 679 151 l 679 0 l 38 0 l 38 158 l 414 639 l 49 639 l 49 792 l 668 792 l 668 632 l 297 151 l 679 151 m 585 1022 l 408 871 l 300 871 l 126 1024 l 186 1096 l 358 983 l 528 1096 l 585 1022 z "},"Ż":{"ha":715,"x_min":38,"x_max":679,"o":"m 679 151 l 679 0 l 38 0 l 38 158 l 414 639 l 49 639 l 49 792 l 668 792 l 668 632 l 297 151 l 679 151 m 449 953 q 424 881 449 907 q 354 854 399 854 q 287 880 311 854 q 263 950 263 906 q 287 1022 263 996 q 354 1049 311 1049 q 423 1023 397 1049 q 449 953 449 997 z "},"Ẓ":{"ha":715,"x_min":38,"x_max":679,"o":"m 679 151 l 679 0 l 38 0 l 38 158 l 414 639 l 49 639 l 49 792 l 668 792 l 668 632 l 297 151 l 679 151 m 449 -169 q 424 -242 449 -215 q 354 -268 399 -268 q 287 -242 311 -268 q 263 -172 263 -217 q 287 -100 263 -126 q 354 -74 311 -74 q 423 -99 397 -74 q 449 -169 449 -125 z "},"a":{"ha":682,"x_min":26,"x_max":635,"o":"m 438 0 l 415 88 q 238 -17 351 -17 q 85 35 144 -17 q 26 182 26 88 q 60 284 26 240 q 154 346 94 328 q 394 371 232 368 q 386 468 394 463 q 342 474 379 474 q 276 471 318 474 q 96 456 210 468 q 79 617 85 531 q 233 642 153 632 q 378 653 314 653 q 544 616 489 653 q 617 519 600 579 q 632 368 633 460 l 631 164 l 635 0 l 438 0 m 318 139 q 394 153 354 139 l 394 256 l 383 256 q 269 244 281 256 q 259 224 263 238 q 256 197 256 210 q 271 151 256 164 q 318 139 286 139 z "},"á":{"ha":682,"x_min":26,"x_max":635,"o":"m 438 0 l 415 88 q 238 -17 351 -17 q 85 35 144 -17 q 26 182 26 88 q 60 284 26 240 q 154 346 94 328 q 394 371 232 368 q 386 468 394 463 q 342 474 379 474 q 276 471 318 474 q 96 456 210 468 q 79 617 85 531 q 233 642 153 632 q 378 653 314 653 q 544 616 489 653 q 617 519 600 579 q 632 368 633 460 l 631 164 l 635 0 l 438 0 m 318 139 q 394 153 354 139 l 394 256 l 383 256 q 269 244 281 256 q 259 224 263 238 q 256 197 256 210 q 271 151 256 164 q 318 139 286 139 m 243 765 q 340 851 275 800 q 471 947 406 903 l 544 839 q 426 763 500 808 q 299 685 353 717 l 243 765 z "},"ă":{"ha":682,"x_min":26,"x_max":635,"o":"m 438 0 l 415 88 q 238 -17 351 -17 q 85 35 144 -17 q 26 182 26 88 q 60 284 26 240 q 154 346 94 328 q 394 371 232 368 q 386 468 394 463 q 342 474 379 474 q 276 471 318 474 q 96 456 210 468 q 79 617 85 531 q 233 642 153 632 q 378 653 314 653 q 544 616 489 653 q 617 519 600 579 q 632 368 633 460 l 631 164 l 635 0 l 438 0 m 318 139 q 394 153 354 139 l 394 256 l 383 256 q 269 244 281 256 q 259 224 263 238 q 256 197 256 210 q 271 151 256 164 q 318 139 286 139 m 351 703 q 226 753 274 703 q 179 888 179 804 l 265 888 q 294 828 271 847 q 351 810 317 810 q 409 829 386 810 q 438 888 432 849 l 524 888 q 476 752 524 801 q 351 703 428 703 z "},"ắ":{"ha":682,"x_min":26,"x_max":635,"o":"m 438 0 l 415 88 q 238 -17 351 -17 q 85 35 144 -17 q 26 182 26 88 q 60 284 26 240 q 154 346 94 328 q 394 371 232 368 q 386 468 394 463 q 342 474 379 474 q 276 471 318 474 q 96 456 210 468 q 79 617 85 531 q 233 642 153 632 q 378 653 314 653 q 544 616 489 653 q 617 519 600 579 q 632 368 633 460 l 631 164 l 635 0 l 438 0 m 318 139 q 394 153 354 139 l 394 256 l 383 256 q 269 244 281 256 q 259 224 263 238 q 256 197 256 210 q 271 151 256 164 q 318 139 286 139 m 544 983 q 350 861 474 943 l 288 938 q 461 1088 368 1017 l 544 983 m 351 689 q 226 740 274 689 q 179 874 179 790 l 265 874 q 294 815 271 833 q 351 796 317 796 q 409 815 386 796 q 438 874 432 835 l 524 874 q 476 738 524 788 q 351 689 428 689 z "},"ặ":{"ha":682,"x_min":26,"x_max":635,"o":"m 438 0 l 415 88 q 238 -17 351 -17 q 85 35 144 -17 q 26 182 26 88 q 60 284 26 240 q 154 346 94 328 q 394 371 232 368 q 386 468 394 463 q 342 474 379 474 q 276 471 318 474 q 96 456 210 468 q 79 617 85 531 q 233 642 153 632 q 378 653 314 653 q 544 616 489 653 q 617 519 600 579 q 632 368 633 460 l 631 164 l 635 0 l 438 0 m 318 139 q 394 153 354 139 l 394 256 l 383 256 q 269 244 281 256 q 259 224 263 238 q 256 197 256 210 q 271 151 256 164 q 318 139 286 139 m 449 -169 q 424 -242 449 -215 q 354 -268 399 -268 q 287 -242 311 -268 q 263 -172 263 -217 q 287 -100 263 -126 q 354 -74 311 -74 q 423 -99 397 -74 q 449 -169 449 -125 m 351 703 q 226 753 274 703 q 179 888 179 804 l 265 888 q 294 828 271 847 q 351 810 317 810 q 409 829 386 810 q 438 888 432 849 l 524 888 q 476 752 524 801 q 351 703 428 703 z "},"ằ":{"ha":682,"x_min":26,"x_max":635,"o":"m 438 0 l 415 88 q 238 -17 351 -17 q 85 35 144 -17 q 26 182 26 88 q 60 284 26 240 q 154 346 94 328 q 394 371 232 368 q 386 468 394 463 q 342 474 379 474 q 276 471 318 474 q 96 456 210 468 q 79 617 85 531 q 233 642 153 632 q 378 653 314 653 q 544 616 489 653 q 617 519 600 579 q 632 368 633 460 l 631 164 l 635 0 l 438 0 m 318 139 q 394 153 354 139 l 394 256 l 383 256 q 269 244 281 256 q 259 224 263 238 q 256 197 256 210 q 271 151 256 164 q 318 139 286 139 m 251 1101 q 425 951 344 1031 l 363 875 q 168 997 239 957 l 251 1101 m 351 703 q 226 753 274 703 q 179 888 179 804 l 265 888 q 294 828 271 847 q 351 810 317 810 q 409 829 386 810 q 438 888 432 849 l 524 888 q 476 752 524 801 q 351 703 428 703 z "},"ẳ":{"ha":682,"x_min":26,"x_max":635,"o":"m 438 0 l 415 88 q 238 -17 351 -17 q 85 35 144 -17 q 26 182 26 88 q 60 284 26 240 q 154 346 94 328 q 394 371 232 368 q 386 468 394 463 q 342 474 379 474 q 276 471 318 474 q 96 456 210 468 q 79 617 85 531 q 233 642 153 632 q 378 653 314 653 q 544 616 489 653 q 617 519 600 579 q 632 368 633 460 l 631 164 l 635 0 l 438 0 m 318 139 q 394 153 354 139 l 394 256 l 383 256 q 269 244 281 256 q 259 224 263 238 q 256 197 256 210 q 271 151 256 164 q 318 139 286 139 m 293 958 q 347 984 333 971 q 361 1011 361 997 q 251 1064 361 1051 l 283 1154 q 419 1110 369 1147 q 471 1024 468 1074 q 442 935 475 972 q 324 883 408 897 l 293 958 m 351 703 q 226 753 274 703 q 179 888 179 804 l 265 888 q 294 828 271 847 q 351 810 317 810 q 409 829 386 810 q 438 888 432 849 l 524 888 q 476 752 524 801 q 351 703 428 703 z "},"ẵ":{"ha":682,"x_min":26,"x_max":635,"o":"m 156 933 q 176 1021 150 979 q 261 1063 201 1063 q 344 1043 294 1063 q 375 1033 350 1042 q 425 1025 400 1025 q 461 1057 461 1025 l 535 1057 q 536 1039 536 1051 q 508 960 536 993 q 429 928 479 928 q 336 950 394 928 q 265 968 290 968 q 236 959 243 968 q 229 933 229 950 l 156 933 m 344 808 q 398 827 376 808 q 424 881 419 846 l 504 881 q 460 756 504 801 q 344 710 415 710 q 228 757 272 710 q 185 881 185 804 l 265 881 q 292 826 271 843 q 344 808 313 808 m 438 0 l 415 88 q 238 -17 351 -17 q 85 35 144 -17 q 26 182 26 88 q 60 284 26 240 q 154 346 94 328 q 394 371 232 368 q 386 468 394 463 q 342 474 379 474 q 276 471 318 474 q 96 456 210 468 q 79 617 85 531 q 233 642 153 632 q 378 653 314 653 q 544 616 489 653 q 617 519 600 579 q 632 368 633 460 l 631 164 l 635 0 l 438 0 m 318 139 q 394 153 354 139 l 394 256 l 383 256 q 269 244 281 256 q 259 224 263 238 q 256 197 256 210 q 271 151 256 164 q 318 139 286 139 z "},"ǎ":{"ha":682,"x_min":26,"x_max":635,"o":"m 438 0 l 415 88 q 238 -17 351 -17 q 85 35 144 -17 q 26 182 26 88 q 60 284 26 240 q 154 346 94 328 q 394 371 232 368 q 386 468 394 463 q 342 474 379 474 q 276 471 318 474 q 96 456 210 468 q 79 617 85 531 q 233 642 153 632 q 378 653 314 653 q 544 616 489 653 q 617 519 600 579 q 632 368 633 460 l 631 164 l 635 0 l 438 0 m 318 139 q 394 153 354 139 l 394 256 l 383 256 q 269 244 281 256 q 259 224 263 238 q 256 197 256 210 q 271 151 256 164 q 318 139 286 139 m 581 883 l 404 732 l 296 732 l 122 885 l 182 957 l 354 844 l 524 957 l 581 883 z "},"â":{"ha":682,"x_min":26,"x_max":635,"o":"m 438 0 l 415 88 q 238 -17 351 -17 q 85 35 144 -17 q 26 182 26 88 q 60 284 26 240 q 154 346 94 328 q 394 371 232 368 q 386 468 394 463 q 342 474 379 474 q 276 471 318 474 q 96 456 210 468 q 79 617 85 531 q 233 642 153 632 q 378 653 314 653 q 544 616 489 653 q 617 519 600 579 q 632 368 633 460 l 631 164 l 635 0 l 438 0 m 318 139 q 394 153 354 139 l 394 256 l 383 256 q 269 244 281 256 q 259 224 263 238 q 256 197 256 210 q 271 151 256 164 q 318 139 286 139 m 524 693 l 354 817 l 182 693 l 122 765 l 296 932 l 404 932 l 581 767 l 524 693 z "},"ấ":{"ha":682,"x_min":26,"x_max":686,"o":"m 438 0 l 415 88 q 238 -17 351 -17 q 85 35 144 -17 q 26 182 26 88 q 60 284 26 240 q 154 346 94 328 q 394 371 232 368 q 386 468 394 463 q 342 474 379 474 q 276 471 318 474 q 96 456 210 468 q 79 617 85 531 q 233 642 153 632 q 378 653 314 653 q 544 616 489 653 q 617 519 600 579 q 632 368 633 460 l 631 164 l 635 0 l 438 0 m 318 139 q 394 153 354 139 l 394 256 l 383 256 q 269 244 281 256 q 259 224 263 238 q 256 197 256 210 q 271 151 256 164 q 318 139 286 139 m 686 982 q 510 872 579 929 l 447 935 q 519 1019 482 985 q 603 1086 556 1054 l 686 982 m 407 904 q 501 808 428 885 l 542 767 l 485 693 l 447 722 q 357 790 389 769 q 226 693 307 758 l 167 765 q 299 904 235 844 l 407 904 z "},"ậ":{"ha":682,"x_min":26,"x_max":635,"o":"m 438 0 l 415 88 q 238 -17 351 -17 q 85 35 144 -17 q 26 182 26 88 q 60 284 26 240 q 154 346 94 328 q 394 371 232 368 q 386 468 394 463 q 342 474 379 474 q 276 471 318 474 q 96 456 210 468 q 79 617 85 531 q 233 642 153 632 q 378 653 314 653 q 544 616 489 653 q 617 519 600 579 q 632 368 633 460 l 631 164 l 635 0 l 438 0 m 318 139 q 394 153 354 139 l 394 256 l 383 256 q 269 244 281 256 q 259 224 263 238 q 256 197 256 210 q 271 151 256 164 q 318 139 286 139 m 449 -169 q 424 -242 449 -215 q 354 -268 399 -268 q 287 -242 311 -268 q 263 -172 263 -217 q 287 -100 263 -126 q 354 -74 311 -74 q 423 -99 397 -74 q 449 -169 449 -125 m 524 693 l 354 817 l 182 693 l 122 765 l 296 932 l 404 932 l 581 767 l 524 693 z "},"ầ":{"ha":682,"x_min":22,"x_max":635,"o":"m 438 0 l 415 88 q 238 -17 351 -17 q 85 35 144 -17 q 26 182 26 88 q 60 284 26 240 q 154 346 94 328 q 394 371 232 368 q 386 468 394 463 q 342 474 379 474 q 276 471 318 474 q 96 456 210 468 q 79 617 85 531 q 233 642 153 632 q 378 653 314 653 q 544 616 489 653 q 617 519 600 579 q 632 368 633 460 l 631 164 l 635 0 l 438 0 m 318 139 q 394 153 354 139 l 394 256 l 383 256 q 269 244 281 256 q 259 224 263 238 q 256 197 256 210 q 271 151 256 164 q 318 139 286 139 m 199 872 q 22 982 129 929 l 106 1086 q 190 1019 153 1054 q 261 935 226 985 l 199 872 m 482 693 q 351 790 401 758 q 261 722 319 769 l 224 693 l 167 767 l 207 808 q 301 904 281 885 l 410 904 q 542 765 474 844 l 482 693 z "},"ẩ":{"ha":682,"x_min":26,"x_max":635,"o":"m 438 0 l 415 88 q 238 -17 351 -17 q 85 35 144 -17 q 26 182 26 88 q 60 284 26 240 q 154 346 94 328 q 394 371 232 368 q 386 468 394 463 q 342 474 379 474 q 276 471 318 474 q 96 456 210 468 q 79 617 85 531 q 233 642 153 632 q 378 653 314 653 q 544 616 489 653 q 617 519 600 579 q 632 368 633 460 l 631 164 l 635 0 l 438 0 m 318 139 q 394 153 354 139 l 394 256 l 383 256 q 269 244 281 256 q 259 224 263 238 q 256 197 256 210 q 271 151 256 164 q 318 139 286 139 m 361 1057 q 251 1110 361 1097 l 283 1200 q 419 1156 369 1193 q 471 1069 468 1119 q 442 981 475 1018 q 324 929 408 943 l 293 1004 q 347 1030 333 1017 q 361 1057 361 1043 m 482 693 q 351 790 401 758 q 261 722 319 769 l 224 693 l 167 767 l 207 808 q 301 904 281 885 l 410 904 q 542 765 474 844 l 482 693 z "},"ẫ":{"ha":682,"x_min":26,"x_max":635,"o":"m 438 0 l 415 88 q 238 -17 351 -17 q 85 35 144 -17 q 26 182 26 88 q 60 284 26 240 q 154 346 94 328 q 394 371 232 368 q 386 468 394 463 q 342 474 379 474 q 276 471 318 474 q 96 456 210 468 q 79 617 85 531 q 233 642 153 632 q 378 653 314 653 q 544 616 489 653 q 617 519 600 579 q 632 368 633 460 l 631 164 l 635 0 l 438 0 m 318 139 q 394 153 354 139 l 394 256 l 383 256 q 269 244 281 256 q 259 224 263 238 q 256 197 256 210 q 271 151 256 164 q 318 139 286 139 m 265 982 q 236 973 243 982 q 229 947 229 964 l 156 947 q 176 1035 150 993 q 261 1076 201 1076 q 344 1057 294 1076 q 375 1047 350 1056 q 425 1039 400 1039 q 461 1071 461 1039 l 535 1071 q 536 1053 536 1065 q 508 974 536 1007 q 429 942 479 942 q 336 964 394 942 q 265 982 290 982 m 482 693 q 351 790 401 758 q 261 722 319 769 l 224 693 l 167 767 l 207 808 q 301 904 281 885 l 410 904 q 542 765 474 844 l 482 693 z "},"ä":{"ha":682,"x_min":26,"x_max":635,"o":"m 438 0 l 415 88 q 238 -17 351 -17 q 85 35 144 -17 q 26 182 26 88 q 60 284 26 240 q 154 346 94 328 q 394 371 232 368 q 386 468 394 463 q 342 474 379 474 q 276 471 318 474 q 96 456 210 468 q 79 617 85 531 q 233 642 153 632 q 378 653 314 653 q 544 616 489 653 q 617 519 600 579 q 632 368 633 460 l 631 164 l 635 0 l 438 0 m 318 139 q 394 153 354 139 l 394 256 l 383 256 q 269 244 281 256 q 259 224 263 238 q 256 197 256 210 q 271 151 256 164 q 318 139 286 139 m 315 814 q 289 738 315 765 q 217 710 263 710 q 144 737 171 710 q 118 811 118 764 q 144 888 118 860 q 217 915 171 915 q 290 888 264 915 q 315 814 315 861 m 588 814 q 560 738 588 767 q 488 710 533 710 q 416 737 442 710 q 390 811 390 764 q 416 888 390 860 q 488 915 442 915 q 560 888 533 915 q 588 814 588 861 z "},"ǟ":{"ha":682,"x_min":26,"x_max":635,"o":"m 438 0 l 415 88 q 238 -17 351 -17 q 85 35 144 -17 q 26 182 26 88 q 60 284 26 240 q 154 346 94 328 q 394 371 232 368 q 386 468 394 463 q 342 474 379 474 q 276 471 318 474 q 96 456 210 468 q 79 617 85 531 q 233 642 153 632 q 378 653 314 653 q 544 616 489 653 q 617 519 600 579 q 632 368 633 460 l 631 164 l 635 0 l 438 0 m 318 139 q 394 153 354 139 l 394 256 l 383 256 q 269 244 281 256 q 259 224 263 238 q 256 197 256 210 q 271 151 256 164 q 318 139 286 139 m 315 814 q 289 738 315 765 q 217 710 263 710 q 144 737 171 710 q 118 811 118 764 q 144 888 118 860 q 217 915 171 915 q 290 888 264 915 q 315 814 315 861 m 588 814 q 560 738 588 767 q 488 710 533 710 q 416 737 442 710 q 390 811 390 764 q 416 888 390 860 q 488 915 442 915 q 560 888 533 915 q 588 814 588 861 m 153 1099 l 550 1099 l 550 981 l 153 981 l 153 1099 z "},"ạ":{"ha":682,"x_min":26,"x_max":635,"o":"m 438 0 l 415 88 q 238 -17 351 -17 q 85 35 144 -17 q 26 182 26 88 q 60 284 26 240 q 154 346 94 328 q 394 371 232 368 q 386 468 394 463 q 342 474 379 474 q 276 471 318 474 q 96 456 210 468 q 79 617 85 531 q 233 642 153 632 q 378 653 314 653 q 544 616 489 653 q 617 519 600 579 q 632 368 633 460 l 631 164 l 635 0 l 438 0 m 318 139 q 394 153 354 139 l 394 256 l 383 256 q 269 244 281 256 q 259 224 263 238 q 256 197 256 210 q 271 151 256 164 q 318 139 286 139 m 449 -169 q 424 -242 449 -215 q 354 -268 399 -268 q 287 -242 311 -268 q 263 -172 263 -217 q 287 -100 263 -126 q 354 -74 311 -74 q 423 -99 397 -74 q 449 -169 449 -125 z "},"à":{"ha":682,"x_min":26,"x_max":635,"o":"m 438 0 l 415 88 q 238 -17 351 -17 q 85 35 144 -17 q 26 182 26 88 q 60 284 26 240 q 154 346 94 328 q 394 371 232 368 q 386 468 394 463 q 342 474 379 474 q 276 471 318 474 q 96 456 210 468 q 79 617 85 531 q 233 642 153 632 q 378 653 314 653 q 544 616 489 653 q 617 519 600 579 q 632 368 633 460 l 631 164 l 635 0 l 438 0 m 318 139 q 394 153 354 139 l 394 256 l 383 256 q 269 244 281 256 q 259 224 263 238 q 256 197 256 210 q 271 151 256 164 q 318 139 286 139 m 400 686 q 272 764 346 718 q 154 840 199 810 l 228 949 q 358 853 293 904 q 456 767 424 801 l 400 686 z "},"ả":{"ha":682,"x_min":26,"x_max":635,"o":"m 438 0 l 415 88 q 238 -17 351 -17 q 85 35 144 -17 q 26 182 26 88 q 60 284 26 240 q 154 346 94 328 q 394 371 232 368 q 386 468 394 463 q 342 474 379 474 q 276 471 318 474 q 96 456 210 468 q 79 617 85 531 q 233 642 153 632 q 378 653 314 653 q 544 616 489 653 q 617 519 600 579 q 632 368 633 460 l 631 164 l 635 0 l 438 0 m 318 139 q 394 153 354 139 l 394 256 l 383 256 q 269 244 281 256 q 259 224 263 238 q 256 197 256 210 q 271 151 256 164 q 318 139 286 139 m 279 804 q 344 830 328 817 q 361 857 361 843 q 238 924 361 907 l 269 1028 q 415 974 361 1019 q 471 869 468 929 q 310 701 479 732 l 279 804 z "},"ā":{"ha":682,"x_min":26,"x_max":635,"o":"m 438 0 l 415 88 q 238 -17 351 -17 q 85 35 144 -17 q 26 182 26 88 q 60 284 26 240 q 154 346 94 328 q 394 371 232 368 q 386 468 394 463 q 342 474 379 474 q 276 471 318 474 q 96 456 210 468 q 79 617 85 531 q 233 642 153 632 q 378 653 314 653 q 544 616 489 653 q 617 519 600 579 q 632 368 633 460 l 631 164 l 635 0 l 438 0 m 318 139 q 394 153 354 139 l 394 256 l 383 256 q 269 244 281 256 q 259 224 263 238 q 256 197 256 210 q 271 151 256 164 q 318 139 286 139 m 153 836 l 550 836 l 550 718 l 153 718 l 153 836 z "},"ą":{"ha":682,"x_min":26,"x_max":650,"o":"m 650 -307 q 514 -354 586 -354 q 402 -315 447 -354 q 357 -207 357 -275 q 488 0 357 -101 l 438 0 l 415 88 q 238 -17 351 -17 q 85 35 144 -17 q 26 182 26 88 q 60 284 26 240 q 154 346 94 328 q 394 371 232 368 q 386 468 394 463 q 342 474 379 474 q 276 471 318 474 q 96 456 210 468 q 79 617 85 531 q 233 642 153 632 q 378 653 314 653 q 544 616 489 653 q 617 519 600 579 q 632 368 633 460 l 631 164 l 635 0 l 601 0 q 516 -93 543 -51 q 489 -175 489 -135 q 554 -242 489 -242 q 635 -225 582 -242 l 650 -307 m 318 139 q 394 153 354 139 l 394 256 l 383 256 q 269 244 281 256 q 259 224 263 238 q 256 197 256 210 q 271 151 256 164 q 318 139 286 139 z "},"å":{"ha":682,"x_min":26,"x_max":635,"o":"m 438 0 l 415 88 q 238 -17 351 -17 q 85 35 144 -17 q 26 182 26 88 q 60 284 26 240 q 154 346 94 328 q 394 371 232 368 q 386 468 394 463 q 342 474 379 474 q 276 471 318 474 q 96 456 210 468 q 79 617 85 531 q 233 642 153 632 q 378 653 314 653 q 544 616 489 653 q 617 519 600 579 q 632 368 633 460 l 631 164 l 635 0 l 438 0 m 318 139 q 394 153 354 139 l 394 256 l 383 256 q 269 244 281 256 q 259 224 263 238 q 256 197 256 210 q 271 151 256 164 q 318 139 286 139 m 483 842 q 445 749 483 788 q 351 711 407 711 q 258 748 294 711 q 221 842 221 785 q 259 935 221 899 q 354 972 297 972 q 447 936 411 972 q 483 842 483 900 m 414 843 q 397 890 414 874 q 351 907 379 907 q 308 888 325 907 q 290 842 290 869 q 308 794 290 813 q 354 776 325 776 q 397 796 381 776 q 414 843 414 815 z "},"ã":{"ha":682,"x_min":26,"x_max":635,"o":"m 438 0 l 415 88 q 238 -17 351 -17 q 85 35 144 -17 q 26 182 26 88 q 60 284 26 240 q 154 346 94 328 q 394 371 232 368 q 386 468 394 463 q 342 474 379 474 q 276 471 318 474 q 96 456 210 468 q 79 617 85 531 q 233 642 153 632 q 378 653 314 653 q 544 616 489 653 q 617 519 600 579 q 632 368 633 460 l 631 164 l 635 0 l 438 0 m 318 139 q 394 153 354 139 l 394 256 l 383 256 q 269 244 281 256 q 259 224 263 238 q 256 197 256 210 q 271 151 256 164 q 318 139 286 139 m 560 853 q 561 832 561 846 q 530 746 561 782 q 443 710 499 710 q 397 716 419 710 q 342 733 375 722 q 263 754 290 754 q 231 744 239 754 q 222 717 222 735 l 142 717 l 140 733 q 169 821 140 782 q 258 860 199 860 q 300 855 281 860 q 350 839 319 850 q 439 818 404 818 q 479 853 479 818 l 560 853 z "},"æ":{"ha":1039,"x_min":29,"x_max":1010,"o":"m 797 167 q 929 174 832 167 l 969 176 l 999 33 q 715 -17 886 -17 q 432 110 511 -17 q 355 13 400 44 q 240 -18 310 -18 q 88 34 147 -18 q 29 182 29 86 q 74 302 29 263 q 204 357 119 342 q 397 371 269 368 q 392 474 397 425 q 99 456 285 475 q 82 617 82 542 q 236 642 156 632 q 381 653 317 653 q 536 606 472 653 q 622 640 572 628 q 721 651 671 651 q 908 607 846 651 q 990 484 971 563 q 1010 274 1010 406 q 825 268 915 268 l 638 268 q 655 201 638 224 q 705 173 672 179 q 797 167 738 167 m 793 381 q 774 476 793 450 q 715 501 756 501 q 654 492 693 501 q 639 433 644 468 q 635 388 635 404 l 635 378 l 696 378 q 793 381 765 378 m 321 139 q 408 158 365 139 q 386 256 393 200 q 269 247 303 256 q 258 197 258 224 q 274 151 258 164 q 321 139 289 139 z "},"b":{"ha":747,"x_min":56,"x_max":713,"o":"m 486 653 q 653 588 594 653 q 713 357 713 522 q 688 151 713 236 q 633 42 664 65 q 526 -1 597 13 q 365 -15 456 -15 q 210 -5 296 -15 q 56 28 124 6 l 56 833 l 296 843 l 296 713 q 295 661 296 701 q 292 594 294 621 q 283 553 289 567 l 292 543 q 372 622 324 592 q 486 653 421 653 m 447 151 q 462 217 456 165 q 468 315 468 268 q 463 403 468 371 q 440 453 458 435 q 382 472 421 472 q 293 463 347 472 l 293 149 q 400 140 344 140 q 447 151 440 140 z "},"ḅ":{"ha":747,"x_min":56,"x_max":713,"o":"m 486 653 q 653 588 594 653 q 713 357 713 522 q 688 151 713 236 q 633 42 664 65 q 526 -1 597 13 q 365 -15 456 -15 q 210 -5 296 -15 q 56 28 124 6 l 56 833 l 296 843 l 296 713 q 295 661 296 701 q 292 594 294 621 q 283 553 289 567 l 292 543 q 372 622 324 592 q 486 653 421 653 m 447 151 q 462 217 456 165 q 468 315 468 268 q 463 403 468 371 q 440 453 458 435 q 382 472 421 472 q 293 463 347 472 l 293 149 q 400 140 344 140 q 447 151 440 140 m 457 -169 q 432 -242 457 -215 q 363 -268 407 -268 q 295 -242 319 -268 q 271 -172 271 -217 q 295 -100 271 -126 q 363 -74 319 -74 q 431 -99 406 -74 q 457 -169 457 -125 z "},"c":{"ha":617,"x_min":33,"x_max":594,"o":"m 594 19 q 343 -18 482 -18 q 110 60 188 -18 q 33 306 33 139 q 56 467 33 388 q 103 575 78 547 q 217 629 132 607 q 394 651 303 651 q 588 635 490 651 q 578 553 585 600 q 565 471 572 507 q 403 476 479 476 q 307 468 328 476 q 287 411 296 464 q 278 313 278 358 q 295 219 278 251 q 350 174 313 186 q 451 161 388 161 q 574 167 479 161 l 594 19 z "},"ć":{"ha":617,"x_min":33,"x_max":594,"o":"m 594 19 q 343 -18 482 -18 q 110 60 188 -18 q 33 306 33 139 q 56 467 33 388 q 103 575 78 547 q 217 629 132 607 q 394 651 303 651 q 588 635 490 651 q 578 553 585 600 q 565 471 572 507 q 403 476 479 476 q 307 468 328 476 q 287 411 296 464 q 278 313 278 358 q 295 219 278 251 q 350 174 313 186 q 451 161 388 161 q 574 167 479 161 l 594 19 m 243 765 q 340 851 275 800 q 471 947 406 903 l 544 839 q 426 763 500 808 q 299 685 353 717 l 243 765 z "},"č":{"ha":617,"x_min":33,"x_max":594,"o":"m 594 19 q 343 -18 482 -18 q 110 60 188 -18 q 33 306 33 139 q 56 467 33 388 q 103 575 78 547 q 217 629 132 607 q 394 651 303 651 q 588 635 490 651 q 578 553 585 600 q 565 471 572 507 q 403 476 479 476 q 307 468 328 476 q 287 411 296 464 q 278 313 278 358 q 295 219 278 251 q 350 174 313 186 q 451 161 388 161 q 574 167 479 161 l 594 19 m 581 883 l 404 732 l 296 732 l 122 885 l 182 957 l 354 844 l 524 957 l 581 883 z "},"ç":{"ha":617,"x_min":33,"x_max":594,"o":"m 365 -75 q 467 -109 432 -75 q 503 -201 503 -143 q 443 -311 503 -272 q 296 -350 383 -350 q 219 -342 257 -350 l 229 -257 q 341 -249 311 -257 q 371 -204 371 -240 q 349 -167 371 -178 q 289 -157 328 -157 l 257 -158 l 251 -146 l 299 -17 q 99 73 165 -6 q 33 306 33 151 q 56 467 33 388 q 103 575 78 547 q 217 629 132 607 q 394 651 303 651 q 588 635 490 651 q 578 553 585 600 q 565 471 572 507 q 403 476 479 476 q 307 468 328 476 q 287 411 296 464 q 278 313 278 358 q 295 219 278 251 q 350 174 313 186 q 451 161 388 161 q 574 167 479 161 l 594 19 q 385 -17 493 -14 l 365 -75 z "},"ċ":{"ha":617,"x_min":33,"x_max":594,"o":"m 594 19 q 343 -18 482 -18 q 110 60 188 -18 q 33 306 33 139 q 56 467 33 388 q 103 575 78 547 q 217 629 132 607 q 394 651 303 651 q 588 635 490 651 q 578 553 585 600 q 565 471 572 507 q 403 476 479 476 q 307 468 328 476 q 287 411 296 464 q 278 313 278 358 q 295 219 278 251 q 350 174 313 186 q 451 161 388 161 q 574 167 479 161 l 594 19 m 444 814 q 419 742 444 768 q 350 715 394 715 q 283 741 307 715 q 258 811 258 767 q 283 883 258 857 q 350 910 307 910 q 419 884 393 910 q 444 814 444 858 z "},"d":{"ha":750,"x_min":36,"x_max":693,"o":"m 693 843 l 693 0 l 497 0 l 478 107 q 396 21 450 53 q 274 -11 342 -11 q 101 67 165 -11 q 36 300 36 144 q 64 494 36 418 q 129 604 92 571 q 226 639 153 625 q 356 653 299 653 q 458 643 406 653 q 454 717 454 710 l 454 833 l 693 843 m 378 175 q 456 188 415 175 l 456 489 q 367 494 415 494 q 314 488 325 494 q 290 424 299 476 q 281 315 281 372 q 306 203 281 231 q 378 175 332 175 z "},"ð":{"ha":750,"x_min":49,"x_max":715,"o":"m 619 722 q 715 374 715 610 q 634 79 715 176 q 374 -18 553 -18 q 128 57 208 -18 q 49 261 49 132 q 101 435 49 356 q 303 514 153 514 q 388 501 340 514 q 478 465 435 489 q 424 616 472 572 q 274 663 375 660 l 325 833 l 338 833 q 467 818 406 833 l 513 922 l 678 851 l 619 722 m 368 153 q 447 188 422 153 q 471 285 471 224 q 467 336 471 310 q 369 347 426 347 q 294 342 326 347 q 285 258 285 299 q 305 181 285 208 q 368 153 325 153 z "},"ď":{"ha":954,"x_min":36,"x_max":940,"o":"m 454 833 l 693 843 l 693 0 l 497 0 l 478 107 q 396 21 450 53 q 274 -11 342 -11 q 101 67 165 -11 q 36 300 36 144 q 64 494 36 418 q 129 604 92 571 q 226 639 153 625 q 356 653 299 653 q 458 643 406 653 q 454 717 454 710 l 454 833 m 929 828 q 940 763 940 799 q 919 647 940 707 q 864 549 899 588 q 764 574 804 557 q 800 724 800 653 q 785 818 800 772 l 794 833 q 850 835 813 835 q 929 828 918 835 m 378 175 q 456 188 415 175 l 456 489 q 367 494 415 494 q 314 488 325 494 q 290 424 299 476 q 281 315 281 372 q 306 203 281 231 q 378 175 332 175 z "},"ḓ":{"ha":750,"x_min":36,"x_max":693,"o":"m 693 843 l 693 0 l 497 0 l 478 107 q 396 21 450 53 q 274 -11 342 -11 q 101 67 165 -11 q 36 300 36 144 q 64 494 36 418 q 129 604 92 571 q 226 639 153 625 q 356 653 299 653 q 458 643 406 653 q 454 717 454 710 l 454 833 l 693 843 m 378 175 q 456 188 415 175 l 456 489 q 367 494 415 494 q 314 488 325 494 q 290 424 299 476 q 281 315 281 372 q 306 203 281 231 q 378 175 332 175 m 576 -294 l 407 -171 l 235 -294 l 175 -222 l 349 -56 l 457 -56 l 633 -221 l 576 -294 z "},"đ":{"ha":750,"x_min":36,"x_max":743,"o":"m 743 696 l 693 696 l 693 0 l 497 0 l 478 107 q 396 21 450 53 q 274 -11 342 -11 q 101 67 165 -11 q 36 300 36 144 q 64 494 36 418 q 129 604 92 571 q 226 639 153 625 q 356 653 299 653 q 458 643 406 653 l 454 696 l 296 696 l 296 792 l 454 792 l 454 833 l 693 843 l 693 792 l 743 792 l 743 696 m 378 175 q 456 188 415 175 l 456 489 q 367 494 415 494 q 314 488 325 494 q 290 424 299 476 q 281 315 281 372 q 306 203 281 231 q 378 175 332 175 z "},"ḍ":{"ha":750,"x_min":36,"x_max":693,"o":"m 693 843 l 693 0 l 497 0 l 478 107 q 396 21 450 53 q 274 -11 342 -11 q 101 67 165 -11 q 36 300 36 144 q 64 494 36 418 q 129 604 92 571 q 226 639 153 625 q 356 653 299 653 q 458 643 406 653 q 454 717 454 710 l 454 833 l 693 843 m 378 175 q 456 188 415 175 l 456 489 q 367 494 415 494 q 314 488 325 494 q 290 424 299 476 q 281 315 281 372 q 306 203 281 231 q 378 175 332 175 m 503 -169 q 478 -242 503 -215 q 408 -268 453 -268 q 341 -242 365 -268 q 317 -172 317 -217 q 341 -100 317 -126 q 408 -74 365 -74 q 477 -99 451 -74 q 503 -169 503 -125 z "},"ḏ":{"ha":750,"x_min":36,"x_max":693,"o":"m 693 843 l 693 0 l 497 0 l 478 107 q 396 21 450 53 q 274 -11 342 -11 q 101 67 165 -11 q 36 300 36 144 q 64 494 36 418 q 129 604 92 571 q 226 639 153 625 q 356 653 299 653 q 458 643 406 653 q 454 717 454 710 l 454 833 l 693 843 m 378 175 q 456 188 415 175 l 456 489 q 367 494 415 494 q 314 488 325 494 q 290 424 299 476 q 281 315 281 372 q 306 203 281 231 q 378 175 332 175 m 219 -79 l 617 -79 l 617 -197 l 219 -197 l 219 -79 z "},"e":{"ha":683,"x_min":32,"x_max":657,"o":"m 444 167 q 574 174 479 167 q 619 176 586 174 l 640 33 q 363 -17 533 -17 q 117 64 203 -17 q 32 307 32 144 q 53 468 32 390 q 103 576 75 546 q 211 629 132 607 q 368 651 290 651 q 556 607 493 651 q 638 484 618 563 q 657 274 657 406 q 472 268 563 268 l 275 268 q 294 201 275 224 q 347 173 313 179 q 444 167 382 167 m 289 486 q 276 450 281 482 q 271 378 272 418 l 343 378 q 438 379 408 378 q 419 474 438 446 q 354 501 400 501 q 289 486 317 501 z "},"é":{"ha":683,"x_min":32,"x_max":657,"o":"m 444 167 q 574 174 479 167 q 619 176 586 174 l 640 33 q 363 -17 533 -17 q 117 64 203 -17 q 32 307 32 144 q 53 468 32 390 q 103 576 75 546 q 211 629 132 607 q 368 651 290 651 q 556 607 493 651 q 638 484 618 563 q 657 274 657 406 q 472 268 563 268 l 275 268 q 294 201 275 224 q 347 173 313 179 q 444 167 382 167 m 289 486 q 276 450 281 482 q 271 378 272 418 l 343 378 q 438 379 408 378 q 419 474 438 446 q 354 501 400 501 q 289 486 317 501 m 243 765 q 340 851 275 800 q 471 947 406 903 l 544 839 q 426 763 500 808 q 299 685 353 717 l 243 765 z "},"ě":{"ha":683,"x_min":32,"x_max":657,"o":"m 444 167 q 574 174 479 167 q 619 176 586 174 l 640 33 q 363 -17 533 -17 q 117 64 203 -17 q 32 307 32 144 q 53 468 32 390 q 103 576 75 546 q 211 629 132 607 q 368 651 290 651 q 556 607 493 651 q 638 484 618 563 q 657 274 657 406 q 472 268 563 268 l 275 268 q 294 201 275 224 q 347 173 313 179 q 444 167 382 167 m 289 486 q 276 450 281 482 q 271 378 272 418 l 343 378 q 438 379 408 378 q 419 474 438 446 q 354 501 400 501 q 289 486 317 501 m 581 883 l 404 732 l 296 732 l 122 885 l 182 957 l 354 844 l 524 957 l 581 883 z "},"ȩ":{"ha":683,"x_min":32,"x_max":657,"o":"m 640 33 q 406 -15 550 -10 l 385 -75 q 487 -109 451 -75 q 522 -201 522 -143 q 463 -311 522 -272 q 315 -350 403 -350 q 239 -342 276 -350 l 249 -257 q 360 -249 331 -257 q 390 -204 390 -240 q 369 -167 390 -178 q 308 -157 347 -157 l 276 -158 l 271 -146 l 318 -15 q 106 76 179 -4 q 32 307 32 156 q 53 468 32 390 q 103 576 75 546 q 211 629 132 607 q 368 651 290 651 q 556 607 493 651 q 638 484 618 563 q 657 274 657 406 q 472 268 563 268 l 275 268 q 294 201 275 224 q 347 173 313 179 q 444 167 382 167 q 574 174 479 167 q 619 176 586 174 l 640 33 m 289 486 q 276 450 281 482 q 271 378 272 418 l 343 378 q 438 379 408 378 q 419 474 438 446 q 354 501 400 501 q 289 486 317 501 z "},"ê":{"ha":683,"x_min":32,"x_max":657,"o":"m 444 167 q 574 174 479 167 q 619 176 586 174 l 640 33 q 363 -17 533 -17 q 117 64 203 -17 q 32 307 32 144 q 53 468 32 390 q 103 576 75 546 q 211 629 132 607 q 368 651 290 651 q 556 607 493 651 q 638 484 618 563 q 657 274 657 406 q 472 268 563 268 l 275 268 q 294 201 275 224 q 347 173 313 179 q 444 167 382 167 m 289 486 q 276 450 281 482 q 271 378 272 418 l 343 378 q 438 379 408 378 q 419 474 438 446 q 354 501 400 501 q 289 486 317 501 m 524 693 l 354 817 l 182 693 l 122 765 l 296 932 l 404 932 l 581 767 l 524 693 z "},"ế":{"ha":683,"x_min":32,"x_max":686,"o":"m 444 167 q 574 174 479 167 q 619 176 586 174 l 640 33 q 363 -17 533 -17 q 117 64 203 -17 q 32 307 32 144 q 53 468 32 390 q 103 576 75 546 q 211 629 132 607 q 368 651 290 651 q 556 607 493 651 q 638 484 618 563 q 657 274 657 406 q 472 268 563 268 l 275 268 q 294 201 275 224 q 347 173 313 179 q 444 167 382 167 m 289 486 q 276 450 281 482 q 271 378 272 418 l 343 378 q 438 379 408 378 q 419 474 438 446 q 354 501 400 501 q 289 486 317 501 m 686 982 q 510 872 579 929 l 447 935 q 519 1019 482 985 q 603 1086 556 1054 l 686 982 m 407 904 q 501 808 428 885 l 542 767 l 485 693 l 447 722 q 357 790 389 769 q 226 693 307 758 l 167 765 q 299 904 235 844 l 407 904 z "},"ệ":{"ha":683,"x_min":32,"x_max":657,"o":"m 444 167 q 574 174 479 167 q 619 176 586 174 l 640 33 q 363 -17 533 -17 q 117 64 203 -17 q 32 307 32 144 q 53 468 32 390 q 103 576 75 546 q 211 629 132 607 q 368 651 290 651 q 556 607 493 651 q 638 484 618 563 q 657 274 657 406 q 472 268 563 268 l 275 268 q 294 201 275 224 q 347 173 313 179 q 444 167 382 167 m 289 486 q 276 450 281 482 q 271 378 272 418 l 343 378 q 438 379 408 378 q 419 474 438 446 q 354 501 400 501 q 289 486 317 501 m 457 -169 q 432 -242 457 -215 q 363 -268 407 -268 q 295 -242 319 -268 q 271 -172 271 -217 q 295 -100 271 -126 q 363 -74 319 -74 q 431 -99 406 -74 q 457 -169 457 -125 m 524 693 l 354 817 l 182 693 l 122 765 l 296 932 l 404 932 l 581 767 l 524 693 z "},"ề":{"ha":683,"x_min":22,"x_max":657,"o":"m 444 167 q 574 174 479 167 q 619 176 586 174 l 640 33 q 363 -17 533 -17 q 117 64 203 -17 q 32 307 32 144 q 53 468 32 390 q 103 576 75 546 q 211 629 132 607 q 368 651 290 651 q 556 607 493 651 q 638 484 618 563 q 657 274 657 406 q 472 268 563 268 l 275 268 q 294 201 275 224 q 347 173 313 179 q 444 167 382 167 m 289 486 q 276 450 281 482 q 271 378 272 418 l 343 378 q 438 379 408 378 q 419 474 438 446 q 354 501 400 501 q 289 486 317 501 m 199 872 q 22 982 129 929 l 106 1086 q 190 1019 153 1054 q 261 935 226 985 l 199 872 m 482 693 q 351 790 401 758 q 261 722 319 769 l 224 693 l 167 767 l 207 808 q 301 904 281 885 l 410 904 q 542 765 474 844 l 482 693 z "},"ể":{"ha":683,"x_min":32,"x_max":657,"o":"m 444 167 q 574 174 479 167 q 619 176 586 174 l 640 33 q 363 -17 533 -17 q 117 64 203 -17 q 32 307 32 144 q 53 468 32 390 q 103 576 75 546 q 211 629 132 607 q 368 651 290 651 q 556 607 493 651 q 638 484 618 563 q 657 274 657 406 q 472 268 563 268 l 275 268 q 294 201 275 224 q 347 173 313 179 q 444 167 382 167 m 289 486 q 276 450 281 482 q 271 378 272 418 l 343 378 q 438 379 408 378 q 419 474 438 446 q 354 501 400 501 q 289 486 317 501 m 361 1057 q 251 1110 361 1097 l 283 1200 q 419 1156 369 1193 q 471 1069 468 1119 q 442 981 475 1018 q 324 929 408 943 l 293 1004 q 347 1030 333 1017 q 361 1057 361 1043 m 482 693 q 351 790 401 758 q 261 722 319 769 l 224 693 l 167 767 l 207 808 q 301 904 281 885 l 410 904 q 542 765 474 844 l 482 693 z "},"ễ":{"ha":683,"x_min":32,"x_max":657,"o":"m 444 167 q 574 174 479 167 q 619 176 586 174 l 640 33 q 363 -17 533 -17 q 117 64 203 -17 q 32 307 32 144 q 53 468 32 390 q 103 576 75 546 q 211 629 132 607 q 368 651 290 651 q 556 607 493 651 q 638 484 618 563 q 657 274 657 406 q 472 268 563 268 l 275 268 q 294 201 275 224 q 347 173 313 179 q 444 167 382 167 m 289 486 q 276 450 281 482 q 271 378 272 418 l 343 378 q 438 379 408 378 q 419 474 438 446 q 354 501 400 501 q 289 486 317 501 m 265 982 q 236 973 243 982 q 229 947 229 964 l 156 947 q 176 1035 150 993 q 261 1076 201 1076 q 344 1057 294 1076 q 375 1047 350 1056 q 425 1039 400 1039 q 461 1071 461 1039 l 535 1071 q 536 1053 536 1065 q 508 974 536 1007 q 429 942 479 942 q 336 964 394 942 q 265 982 290 982 m 482 693 q 351 790 401 758 q 261 722 319 769 l 224 693 l 167 767 l 207 808 q 301 904 281 885 l 410 904 q 542 765 474 844 l 482 693 z "},"ë":{"ha":683,"x_min":32,"x_max":657,"o":"m 444 167 q 574 174 479 167 q 619 176 586 174 l 640 33 q 363 -17 533 -17 q 117 64 203 -17 q 32 307 32 144 q 53 468 32 390 q 103 576 75 546 q 211 629 132 607 q 368 651 290 651 q 556 607 493 651 q 638 484 618 563 q 657 274 657 406 q 472 268 563 268 l 275 268 q 294 201 275 224 q 347 173 313 179 q 444 167 382 167 m 289 486 q 276 450 281 482 q 271 378 272 418 l 343 378 q 438 379 408 378 q 419 474 438 446 q 354 501 400 501 q 289 486 317 501 m 315 814 q 289 738 315 765 q 217 710 263 710 q 144 737 171 710 q 118 811 118 764 q 144 888 118 860 q 217 915 171 915 q 290 888 264 915 q 315 814 315 861 m 588 814 q 560 738 588 767 q 488 710 533 710 q 416 737 442 710 q 390 811 390 764 q 416 888 390 860 q 488 915 442 915 q 560 888 533 915 q 588 814 588 861 z "},"ė":{"ha":683,"x_min":32,"x_max":657,"o":"m 444 167 q 574 174 479 167 q 619 176 586 174 l 640 33 q 363 -17 533 -17 q 117 64 203 -17 q 32 307 32 144 q 53 468 32 390 q 103 576 75 546 q 211 629 132 607 q 368 651 290 651 q 556 607 493 651 q 638 484 618 563 q 657 274 657 406 q 472 268 563 268 l 275 268 q 294 201 275 224 q 347 173 313 179 q 444 167 382 167 m 289 486 q 276 450 281 482 q 271 378 272 418 l 343 378 q 438 379 408 378 q 419 474 438 446 q 354 501 400 501 q 289 486 317 501 m 444 814 q 419 742 444 768 q 350 715 394 715 q 283 741 307 715 q 258 811 258 767 q 283 883 258 857 q 350 910 307 910 q 419 884 393 910 q 444 814 444 858 z "},"ẹ":{"ha":683,"x_min":32,"x_max":657,"o":"m 444 167 q 574 174 479 167 q 619 176 586 174 l 640 33 q 363 -17 533 -17 q 117 64 203 -17 q 32 307 32 144 q 53 468 32 390 q 103 576 75 546 q 211 629 132 607 q 368 651 290 651 q 556 607 493 651 q 638 484 618 563 q 657 274 657 406 q 472 268 563 268 l 275 268 q 294 201 275 224 q 347 173 313 179 q 444 167 382 167 m 289 486 q 276 450 281 482 q 271 378 272 418 l 343 378 q 438 379 408 378 q 419 474 438 446 q 354 501 400 501 q 289 486 317 501 m 457 -169 q 432 -242 457 -215 q 363 -268 407 -268 q 295 -242 319 -268 q 271 -172 271 -217 q 295 -100 271 -126 q 363 -74 319 -74 q 431 -99 406 -74 q 457 -169 457 -125 z "},"è":{"ha":683,"x_min":32,"x_max":657,"o":"m 444 167 q 574 174 479 167 q 619 176 586 174 l 640 33 q 363 -17 533 -17 q 117 64 203 -17 q 32 307 32 144 q 53 468 32 390 q 103 576 75 546 q 211 629 132 607 q 368 651 290 651 q 556 607 493 651 q 638 484 618 563 q 657 274 657 406 q 472 268 563 268 l 275 268 q 294 201 275 224 q 347 173 313 179 q 444 167 382 167 m 289 486 q 276 450 281 482 q 271 378 272 418 l 343 378 q 438 379 408 378 q 419 474 438 446 q 354 501 400 501 q 289 486 317 501 m 400 686 q 272 764 346 718 q 154 840 199 810 l 228 949 q 358 853 293 904 q 456 767 424 801 l 400 686 z "},"ẻ":{"ha":683,"x_min":32,"x_max":657,"o":"m 444 167 q 574 174 479 167 q 619 176 586 174 l 640 33 q 363 -17 533 -17 q 117 64 203 -17 q 32 307 32 144 q 53 468 32 390 q 103 576 75 546 q 211 629 132 607 q 368 651 290 651 q 556 607 493 651 q 638 484 618 563 q 657 274 657 406 q 472 268 563 268 l 275 268 q 294 201 275 224 q 347 173 313 179 q 444 167 382 167 m 289 486 q 276 450 281 482 q 271 378 272 418 l 343 378 q 438 379 408 378 q 419 474 438 446 q 354 501 400 501 q 289 486 317 501 m 279 804 q 344 830 328 817 q 361 857 361 843 q 238 924 361 907 l 269 1028 q 415 974 361 1019 q 471 869 468 929 q 310 701 479 732 l 279 804 z "},"ē":{"ha":683,"x_min":32,"x_max":657,"o":"m 444 167 q 574 174 479 167 q 619 176 586 174 l 640 33 q 363 -17 533 -17 q 117 64 203 -17 q 32 307 32 144 q 53 468 32 390 q 103 576 75 546 q 211 629 132 607 q 368 651 290 651 q 556 607 493 651 q 638 484 618 563 q 657 274 657 406 q 472 268 563 268 l 275 268 q 294 201 275 224 q 347 173 313 179 q 444 167 382 167 m 289 486 q 276 450 281 482 q 271 378 272 418 l 343 378 q 438 379 408 378 q 419 474 438 446 q 354 501 400 501 q 289 486 317 501 m 153 836 l 550 836 l 550 718 l 153 718 l 153 836 z "},"ę":{"ha":683,"x_min":32,"x_max":657,"o":"m 449 -14 q 374 -99 399 -60 q 350 -175 350 -137 q 415 -242 350 -242 q 496 -225 443 -242 l 511 -307 q 375 -354 447 -354 q 263 -315 308 -354 q 218 -207 218 -275 q 245 -110 218 -157 q 329 -15 272 -64 q 109 72 186 -8 q 32 307 32 153 q 53 468 32 390 q 103 576 75 546 q 211 629 132 607 q 368 651 290 651 q 556 607 493 651 q 638 484 618 563 q 657 274 657 406 q 472 268 563 268 l 275 268 q 294 201 275 224 q 347 173 313 179 q 444 167 382 167 q 574 174 479 167 q 619 176 586 174 l 640 33 q 449 -14 563 -4 m 289 486 q 276 450 281 482 q 271 378 272 418 l 343 378 q 438 379 408 378 q 419 474 438 446 q 354 501 400 501 q 289 486 317 501 z "},"ẽ":{"ha":683,"x_min":32,"x_max":657,"o":"m 444 167 q 574 174 479 167 q 619 176 586 174 l 640 33 q 363 -17 533 -17 q 117 64 203 -17 q 32 307 32 144 q 53 468 32 390 q 103 576 75 546 q 211 629 132 607 q 368 651 290 651 q 556 607 493 651 q 638 484 618 563 q 657 274 657 406 q 472 268 563 268 l 275 268 q 294 201 275 224 q 347 173 313 179 q 444 167 382 167 m 289 486 q 276 450 281 482 q 271 378 272 418 l 343 378 q 438 379 408 378 q 419 474 438 446 q 354 501 400 501 q 289 486 317 501 m 560 853 q 561 832 561 846 q 530 746 561 782 q 443 710 499 710 q 397 716 419 710 q 342 733 375 722 q 263 754 290 754 q 231 744 239 754 q 222 717 222 735 l 142 717 l 140 733 q 169 821 140 782 q 258 860 199 860 q 300 855 281 860 q 350 839 319 850 q 439 818 404 818 q 479 853 479 818 l 560 853 z "},"f":{"ha":500,"x_min":8,"x_max":514,"o":"m 360 711 q 350 651 350 701 l 350 639 l 497 639 l 497 503 l 350 503 l 350 0 l 113 0 l 113 503 l 8 503 l 8 626 l 113 639 l 113 660 q 129 776 113 721 q 160 843 146 832 q 343 879 203 879 q 514 868 419 879 q 509 801 514 851 q 500 717 504 751 l 440 718 q 360 711 367 718 z "},"g":{"ha":747,"x_min":35,"x_max":692,"o":"m 390 650 q 526 641 456 650 q 692 617 597 632 l 692 64 q 560 -244 692 -135 q 485 -268 543 -258 q 353 -278 426 -278 q 100 -236 193 -278 q 105 -156 99 -206 q 118 -76 111 -106 q 314 -92 218 -92 q 397 -87 363 -92 q 439 -72 431 -82 q 456 11 450 -61 q 457 68 457 31 l 457 103 q 368 29 422 51 q 271 7 314 7 q 94 83 154 7 q 35 307 35 160 q 62 490 35 404 q 136 608 89 575 q 235 640 167 629 q 390 650 304 650 m 361 181 q 454 197 413 181 l 454 488 q 408 493 439 490 q 367 494 394 494 q 313 486 324 494 q 288 424 297 475 q 279 318 279 374 q 297 211 279 242 q 361 181 314 181 z "},"ğ":{"ha":747,"x_min":35,"x_max":692,"o":"m 390 650 q 526 641 456 650 q 692 617 597 632 l 692 64 q 560 -244 692 -135 q 485 -268 543 -258 q 353 -278 426 -278 q 100 -236 193 -278 q 105 -156 99 -206 q 118 -76 111 -106 q 314 -92 218 -92 q 397 -87 363 -92 q 439 -72 431 -82 q 456 11 450 -61 q 457 68 457 31 l 457 103 q 368 29 422 51 q 271 7 314 7 q 94 83 154 7 q 35 307 35 160 q 62 490 35 404 q 136 608 89 575 q 235 640 167 629 q 390 650 304 650 m 361 181 q 454 197 413 181 l 454 488 q 408 493 439 490 q 367 494 394 494 q 313 486 324 494 q 288 424 297 475 q 279 318 279 374 q 297 211 279 242 q 361 181 314 181 m 393 703 q 268 753 315 703 q 221 888 221 804 l 307 888 q 335 828 313 847 q 393 810 358 810 q 451 829 428 810 q 479 888 474 849 l 565 888 q 517 752 565 801 q 393 703 469 703 z "},"ǧ":{"ha":747,"x_min":35,"x_max":692,"o":"m 390 650 q 526 641 456 650 q 692 617 597 632 l 692 64 q 560 -244 692 -135 q 485 -268 543 -258 q 353 -278 426 -278 q 100 -236 193 -278 q 105 -156 99 -206 q 118 -76 111 -106 q 314 -92 218 -92 q 397 -87 363 -92 q 439 -72 431 -82 q 456 11 450 -61 q 457 68 457 31 l 457 103 q 368 29 422 51 q 271 7 314 7 q 94 83 154 7 q 35 307 35 160 q 62 490 35 404 q 136 608 89 575 q 235 640 167 629 q 390 650 304 650 m 361 181 q 454 197 413 181 l 454 488 q 408 493 439 490 q 367 494 394 494 q 313 486 324 494 q 288 424 297 475 q 279 318 279 374 q 297 211 279 242 q 361 181 314 181 m 622 883 l 446 732 l 338 732 l 164 885 l 224 957 l 396 844 l 565 957 l 622 883 z "},"ģ":{"ha":747,"x_min":35,"x_max":692,"o":"m 390 650 q 526 641 456 650 q 692 617 597 632 l 692 64 q 560 -244 692 -135 q 485 -268 543 -258 q 353 -278 426 -278 q 100 -236 193 -278 q 105 -156 99 -206 q 118 -76 111 -106 q 314 -92 218 -92 q 397 -87 363 -92 q 439 -72 431 -82 q 456 11 450 -61 q 457 68 457 31 l 457 103 q 368 29 422 51 q 271 7 314 7 q 94 83 154 7 q 35 307 35 160 q 62 490 35 404 q 136 608 89 575 q 235 640 167 629 q 390 650 304 650 m 361 181 q 454 197 413 181 l 454 488 q 408 493 439 490 q 367 494 394 494 q 313 486 324 494 q 288 424 297 475 q 279 318 279 374 q 297 211 279 242 q 361 181 314 181 m 306 -357 q 350 -354 328 -354 q 403 -357 376 -354 q 440 -362 431 -360 q 449 -426 449 -390 q 425 -554 449 -490 q 375 -642 406 -608 q 275 -617 315 -633 q 301 -533 293 -578 q 311 -440 311 -490 q 306 -357 311 -394 z "},"ġ":{"ha":747,"x_min":35,"x_max":692,"o":"m 390 650 q 526 641 456 650 q 692 617 597 632 l 692 64 q 560 -244 692 -135 q 485 -268 543 -258 q 353 -278 426 -278 q 100 -236 193 -278 q 105 -156 99 -206 q 118 -76 111 -106 q 314 -92 218 -92 q 397 -87 363 -92 q 439 -72 431 -82 q 456 11 450 -61 q 457 68 457 31 l 457 103 q 368 29 422 51 q 271 7 314 7 q 94 83 154 7 q 35 307 35 160 q 62 490 35 404 q 136 608 89 575 q 235 640 167 629 q 390 650 304 650 m 361 181 q 454 197 413 181 l 454 488 q 408 493 439 490 q 367 494 394 494 q 313 486 324 494 q 288 424 297 475 q 279 318 279 374 q 297 211 279 242 q 361 181 314 181 m 486 814 q 461 742 486 768 q 392 715 436 715 q 324 741 349 715 q 300 811 300 767 q 324 883 300 857 q 392 910 349 910 q 460 884 435 910 q 486 814 486 858 z "},"h":{"ha":753,"x_min":57,"x_max":700,"o":"m 675 599 q 694 522 688 583 q 700 336 700 461 l 700 0 l 463 0 l 463 333 q 463 388 463 339 q 456 449 463 438 q 435 457 451 454 q 399 460 419 460 l 375 458 q 294 440 336 457 l 294 0 l 57 0 l 57 833 l 294 843 l 294 681 q 288 547 294 581 l 289 546 q 515 653 383 653 q 609 639 565 653 q 675 599 653 625 z "},"ħ":{"ha":753,"x_min":3,"x_max":700,"o":"m 675 599 q 694 522 688 583 q 700 336 700 461 l 700 0 l 463 0 l 463 333 q 463 388 463 339 q 456 449 463 438 q 435 457 451 454 q 399 460 419 460 l 375 458 q 294 440 336 457 l 294 0 l 57 0 l 57 696 l 3 696 l 3 792 l 57 792 l 57 833 l 294 843 l 294 792 l 450 792 l 450 696 l 294 696 l 294 681 q 288 547 294 581 l 289 546 q 515 653 383 653 q 609 639 565 653 q 675 599 653 625 z "},"ḥ":{"ha":753,"x_min":57,"x_max":700,"o":"m 675 599 q 694 522 688 583 q 700 336 700 461 l 700 0 l 463 0 l 463 333 q 463 388 463 339 q 456 449 463 438 q 435 457 451 454 q 399 460 419 460 l 375 458 q 294 440 336 457 l 294 0 l 57 0 l 57 833 l 294 843 l 294 681 q 288 547 294 581 l 289 546 q 515 653 383 653 q 609 639 565 653 q 675 599 653 625 m 468 -169 q 443 -242 468 -215 q 374 -268 418 -268 q 306 -242 331 -268 q 282 -172 282 -217 q 306 -100 282 -126 q 374 -74 331 -74 q 442 -99 417 -74 q 468 -169 468 -125 z "},"i":{"ha":360,"x_min":61,"x_max":299,"o":"m 181 718 q 99 750 133 718 q 65 826 65 782 q 99 903 65 871 q 181 935 133 935 q 261 903 228 935 q 294 826 294 871 q 261 750 294 782 q 181 718 228 718 m 61 639 l 299 639 l 299 0 l 61 0 l 61 639 z "},"ı":{"ha":360,"x_min":61,"x_max":299,"o":"m 61 639 l 299 639 l 299 0 l 61 0 l 61 639 z "},"í":{"ha":360,"x_min":61,"x_max":372,"o":"m 61 639 l 299 639 l 299 0 l 61 0 l 61 639 m 71 751 q 168 838 103 786 q 299 933 233 889 l 372 825 q 254 749 328 794 q 126 671 181 703 l 71 751 z "},"ǐ":{"ha":360,"x_min":-50,"x_max":408,"o":"m 61 639 l 299 639 l 299 0 l 61 0 l 61 639 m 408 869 l 232 718 l 124 718 l -50 871 l 10 943 l 182 831 l 351 943 l 408 869 z "},"î":{"ha":360,"x_min":-50,"x_max":408,"o":"m 61 639 l 299 639 l 299 0 l 61 0 l 61 639 m 351 679 l 182 803 l 10 679 l -50 751 l 124 918 l 232 918 l 408 753 l 351 679 z "},"ï":{"ha":360,"x_min":-54,"x_max":415,"o":"m 61 639 l 299 639 l 299 0 l 61 0 l 61 639 m 143 800 q 117 724 143 751 q 44 696 90 696 q -28 723 -1 696 q -54 797 -54 750 q -28 874 -54 846 q 44 901 -1 901 q 117 874 92 901 q 143 800 143 847 m 415 800 q 388 724 415 753 q 315 696 361 696 q 244 723 269 696 q 218 797 218 750 q 244 874 218 846 q 315 901 269 901 q 388 874 361 901 q 415 800 415 847 z "},"ḯ":{"ha":360,"x_min":-54,"x_max":415,"o":"m 61 639 l 299 639 l 299 0 l 61 0 l 61 639 m 143 800 q 117 724 143 751 q 44 696 90 696 q -28 723 -1 696 q -54 797 -54 750 q -28 874 -54 846 q 44 901 -1 901 q 117 874 92 901 q 143 800 143 847 m 415 800 q 388 724 415 753 q 315 696 361 696 q 244 723 269 696 q 218 797 218 750 q 244 874 218 846 q 315 901 269 901 q 388 874 361 901 q 415 800 415 847 m 71 1014 q 168 1100 103 1049 q 299 1196 233 1151 l 372 1088 q 254 1011 328 1057 q 126 933 181 965 l 71 1014 z "},"ị":{"ha":360,"x_min":61,"x_max":299,"o":"m 181 718 q 99 750 133 718 q 65 826 65 782 q 99 903 65 871 q 181 935 133 935 q 261 903 228 935 q 294 826 294 871 q 261 750 294 782 q 181 718 228 718 m 61 639 l 299 639 l 299 0 l 61 0 l 61 639 m 267 -169 q 242 -242 267 -215 q 172 -268 217 -268 q 105 -242 129 -268 q 81 -172 81 -217 q 105 -100 81 -126 q 172 -74 129 -74 q 241 -99 215 -74 q 267 -169 267 -125 z "},"ì":{"ha":360,"x_min":-18,"x_max":299,"o":"m 61 639 l 299 639 l 299 0 l 61 0 l 61 639 m 228 672 q 100 750 174 704 q -18 826 26 796 l 56 935 q 186 839 121 890 q 283 753 251 788 l 228 672 z "},"ỉ":{"ha":360,"x_min":61,"x_max":307,"o":"m 61 639 l 299 639 l 299 0 l 61 0 l 61 639 m 107 790 q 172 816 156 803 q 189 843 189 829 q 65 910 189 893 l 97 1014 q 242 960 189 1006 q 299 856 296 915 q 138 688 307 718 l 107 790 z "},"ī":{"ha":360,"x_min":-19,"x_max":378,"o":"m 61 639 l 299 639 l 299 0 l 61 0 l 61 639 m -19 822 l 378 822 l 378 704 l -19 704 l -19 822 z "},"į":{"ha":360,"x_min":8,"x_max":301,"o":"m 181 718 q 99 750 133 718 q 65 826 65 782 q 99 903 65 871 q 181 935 133 935 q 261 903 228 935 q 294 826 294 871 q 261 750 294 782 q 181 718 228 718 m 301 -307 q 165 -354 238 -354 q 53 -315 99 -354 q 8 -207 8 -275 q 139 0 8 -101 l 61 0 l 61 639 l 299 639 l 299 0 l 253 0 q 167 -93 194 -51 q 140 -175 140 -135 q 206 -242 140 -242 q 286 -225 233 -242 l 301 -307 z "},"ɨ":{"ha":360,"x_min":-17,"x_max":375,"o":"m 178 701 q 110 727 135 701 q 86 797 86 753 q 110 869 86 843 q 178 896 135 896 q 247 870 221 896 q 272 800 272 844 q 247 728 272 754 q 178 701 222 701 m 375 363 l 299 363 l 299 0 l 61 0 l 61 363 l -17 363 l -17 458 l 61 458 l 61 639 l 299 639 l 299 458 l 375 458 l 375 363 z "},"ĩ":{"ha":360,"x_min":-32,"x_max":389,"o":"m 61 639 l 299 639 l 299 0 l 61 0 l 61 639 m 388 839 q 389 818 389 832 q 358 732 389 768 q 271 696 326 696 q 225 702 247 696 q 169 719 203 708 q 90 740 118 740 q 58 731 67 740 q 50 703 50 721 l -31 703 l -32 719 q -3 807 -32 768 q 86 846 26 846 q 128 841 108 846 q 178 825 147 836 q 267 804 232 804 q 307 839 307 804 l 388 839 z "},"j":{"ha":358,"x_min":-86,"x_max":297,"o":"m 181 718 q 99 750 133 718 q 65 826 65 782 q 99 903 65 871 q 181 935 133 935 q 261 903 228 935 q 294 826 294 871 q 261 750 294 782 q 181 718 228 718 m 53 -78 q 60 -33 60 -67 q 60 6 60 0 l 60 639 l 297 639 l 297 86 q 278 -85 297 -8 q 221 -207 258 -161 q 153 -246 200 -233 q 46 -258 106 -258 q -79 -244 -25 -258 q -86 -146 -86 -192 q -85 -97 -86 -114 q 53 -78 42 -93 z "},"k":{"ha":729,"x_min":57,"x_max":736,"o":"m 736 0 l 478 0 l 346 260 q 294 311 326 300 l 294 0 l 57 0 l 57 833 l 294 843 l 294 369 q 351 426 328 383 l 469 639 l 729 640 l 594 424 q 525 342 563 372 q 597 236 557 307 l 736 0 z "},"ķ":{"ha":729,"x_min":57,"x_max":736,"o":"m 736 0 l 478 0 l 346 260 q 294 311 326 300 l 294 0 l 57 0 l 57 833 l 294 843 l 294 369 q 351 426 328 383 l 469 639 l 729 640 l 594 424 q 525 342 563 372 q 597 236 557 307 l 736 0 m 318 -81 q 363 -78 340 -78 q 416 -81 389 -78 q 453 -86 443 -83 q 461 -150 461 -114 q 438 -278 461 -214 q 388 -365 418 -332 q 288 -340 328 -357 q 314 -257 306 -301 q 324 -164 324 -214 q 318 -81 324 -118 z "},"l":{"ha":360,"x_min":61,"x_max":299,"o":"m 61 833 l 299 843 l 299 0 l 61 0 l 61 833 z "},"ĺ":{"ha":360,"x_min":61,"x_max":374,"o":"m 61 833 l 299 843 l 299 0 l 61 0 l 61 833 m 72 951 q 169 1038 104 986 q 300 1133 235 1089 l 374 1025 q 256 949 329 994 q 128 871 182 903 l 72 951 z "},"ľ":{"ha":561,"x_min":61,"x_max":547,"o":"m 61 833 l 299 843 l 299 0 l 61 0 l 61 833 m 401 833 q 457 835 419 835 q 536 828 525 835 q 547 763 547 799 q 526 647 547 707 q 471 549 506 588 q 371 574 411 557 q 407 724 407 653 q 392 818 407 772 l 401 833 z "},"ḽ":{"ha":360,"x_min":-56,"x_max":403,"o":"m 61 639 l 299 639 l 299 0 l 61 0 l 61 639 m 346 -294 l 176 -171 l 4 -294 l -56 -222 l 118 -56 l 226 -56 l 403 -221 l 346 -294 z "},"ļ":{"ha":360,"x_min":61,"x_max":299,"o":"m 61 833 l 299 843 l 299 0 l 61 0 l 61 833 m 119 -81 q 164 -78 142 -78 q 217 -81 190 -78 q 254 -86 244 -83 q 263 -150 263 -114 q 239 -278 263 -214 q 189 -365 219 -332 q 89 -340 129 -357 q 115 -257 107 -301 q 125 -164 125 -214 q 119 -81 125 -118 z "},"ḷ":{"ha":360,"x_min":61,"x_max":299,"o":"m 61 833 l 299 843 l 299 0 l 61 0 l 61 833 m 274 -169 q 249 -242 274 -215 q 179 -268 224 -268 q 112 -242 136 -268 q 88 -172 88 -217 q 112 -100 88 -126 q 179 -74 136 -74 q 248 -99 222 -74 q 274 -169 274 -125 z "},"ł":{"ha":435,"x_min":0,"x_max":435,"o":"m 435 476 l 333 438 l 333 0 l 96 0 l 96 347 l 0 311 l 0 410 l 96 447 l 96 833 l 333 843 l 333 536 l 435 576 l 435 476 z "},"m":{"ha":1131,"x_min":57,"x_max":1078,"o":"m 1056 594 q 1078 336 1078 561 l 1078 0 l 840 0 l 840 313 l 840 388 q 831 449 840 439 q 783 460 819 460 l 767 458 q 685 439 724 456 q 686 336 686 410 l 686 0 l 449 0 l 449 313 l 449 396 q 439 449 449 439 q 392 460 428 460 l 375 458 q 294 440 336 457 l 294 0 l 57 0 l 57 639 l 250 639 l 275 535 q 381 624 321 596 q 501 653 440 653 q 599 638 553 653 q 664 594 646 622 q 678 549 672 582 q 779 628 722 603 q 893 653 836 653 q 991 638 944 653 q 1056 594 1038 622 z "},"ḿ":{"ha":1131,"x_min":57,"x_max":1078,"o":"m 1056 594 q 1078 336 1078 561 l 1078 0 l 840 0 l 840 313 l 840 388 q 831 449 840 439 q 783 460 819 460 l 767 458 q 685 439 724 456 q 686 336 686 410 l 686 0 l 449 0 l 449 313 l 449 396 q 439 449 449 439 q 392 460 428 460 l 375 458 q 294 440 336 457 l 294 0 l 57 0 l 57 639 l 250 639 l 275 535 q 381 624 321 596 q 501 653 440 653 q 599 638 553 653 q 664 594 646 622 q 678 549 672 582 q 779 628 722 603 q 893 653 836 653 q 991 638 944 653 q 1056 594 1038 622 m 489 765 q 586 851 521 800 q 717 947 651 903 l 790 839 q 672 763 746 808 q 544 685 599 717 l 489 765 z "},"n":{"ha":753,"x_min":57,"x_max":700,"o":"m 675 599 q 694 522 688 583 q 700 336 700 461 l 700 0 l 463 0 l 463 333 l 463 390 q 456 446 463 435 q 404 460 444 460 q 375 458 385 460 q 294 440 336 457 l 294 0 l 57 0 l 57 639 l 250 639 l 276 532 q 515 653 376 653 q 609 639 565 653 q 675 599 653 625 z "},"ń":{"ha":753,"x_min":57,"x_max":700,"o":"m 675 599 q 694 522 688 583 q 700 336 700 461 l 700 0 l 463 0 l 463 333 l 463 390 q 456 446 463 435 q 404 460 444 460 q 375 458 385 460 q 294 440 336 457 l 294 0 l 57 0 l 57 639 l 250 639 l 276 532 q 515 653 376 653 q 609 639 565 653 q 675 599 653 625 m 278 765 q 375 851 310 800 q 506 947 440 903 l 579 839 q 461 763 535 808 q 333 685 388 717 l 278 765 z "},"ň":{"ha":753,"x_min":57,"x_max":700,"o":"m 675 599 q 694 522 688 583 q 700 336 700 461 l 700 0 l 463 0 l 463 333 l 463 390 q 456 446 463 435 q 404 460 444 460 q 375 458 385 460 q 294 440 336 457 l 294 0 l 57 0 l 57 639 l 250 639 l 276 532 q 515 653 376 653 q 609 639 565 653 q 675 599 653 625 m 615 883 l 439 732 l 331 732 l 157 885 l 217 957 l 389 844 l 558 957 l 615 883 z "},"ṋ":{"ha":753,"x_min":57,"x_max":700,"o":"m 675 599 q 694 522 688 583 q 700 336 700 461 l 700 0 l 463 0 l 463 333 l 463 390 q 456 446 463 435 q 404 460 444 460 q 375 458 385 460 q 294 440 336 457 l 294 0 l 57 0 l 57 639 l 250 639 l 276 532 q 515 653 376 653 q 609 639 565 653 q 675 599 653 625 m 544 -294 l 375 -171 l 203 -294 l 143 -222 l 317 -56 l 425 -56 l 601 -221 l 544 -294 z "},"ņ":{"ha":753,"x_min":57,"x_max":700,"o":"m 675 599 q 694 522 688 583 q 700 336 700 461 l 700 0 l 463 0 l 463 333 l 463 390 q 456 446 463 435 q 404 460 444 460 q 375 458 385 460 q 294 440 336 457 l 294 0 l 57 0 l 57 639 l 250 639 l 276 532 q 515 653 376 653 q 609 639 565 653 q 675 599 653 625 m 317 -81 q 361 -78 339 -78 q 415 -81 388 -78 q 451 -86 442 -83 q 460 -150 460 -114 q 436 -278 460 -214 q 386 -365 417 -332 q 286 -340 326 -357 q 313 -257 304 -301 q 322 -164 322 -214 q 317 -81 322 -118 z "},"ṅ":{"ha":753,"x_min":57,"x_max":700,"o":"m 675 599 q 694 522 688 583 q 700 336 700 461 l 700 0 l 463 0 l 463 333 l 463 390 q 456 446 463 435 q 404 460 444 460 q 375 458 385 460 q 294 440 336 457 l 294 0 l 57 0 l 57 639 l 250 639 l 276 532 q 515 653 376 653 q 609 639 565 653 q 675 599 653 625 m 479 814 q 454 742 479 768 q 385 715 429 715 q 317 741 342 715 q 293 811 293 767 q 317 883 293 857 q 385 910 342 910 q 453 884 428 910 q 479 814 479 858 z "},"ṇ":{"ha":753,"x_min":57,"x_max":700,"o":"m 675 599 q 694 522 688 583 q 700 336 700 461 l 700 0 l 463 0 l 463 333 l 463 390 q 456 446 463 435 q 404 460 444 460 q 375 458 385 460 q 294 440 336 457 l 294 0 l 57 0 l 57 639 l 250 639 l 276 532 q 515 653 376 653 q 609 639 565 653 q 675 599 653 625 m 471 -169 q 446 -242 471 -215 q 376 -268 421 -268 q 309 -242 333 -268 q 285 -172 285 -217 q 309 -100 285 -126 q 376 -74 333 -74 q 445 -99 419 -74 q 471 -169 471 -125 z "},"ŋ":{"ha":758,"x_min":57,"x_max":703,"o":"m 703 222 l 703 0 q 676 -126 703 -67 q 590 -222 649 -185 q 442 -258 532 -258 q 326 -244 388 -258 q 319 -146 319 -192 q 321 -97 319 -114 q 465 -85 397 -94 l 465 0 l 463 0 l 463 333 l 463 390 q 456 446 463 435 q 404 460 444 460 q 375 458 385 460 q 294 440 336 457 l 294 0 l 57 0 l 57 639 l 250 639 l 276 532 q 515 653 376 653 q 609 639 565 653 q 675 599 653 625 q 694 522 688 583 q 700 336 700 461 l 700 222 l 703 222 z "},"ñ":{"ha":753,"x_min":57,"x_max":700,"o":"m 675 599 q 694 522 688 583 q 700 336 700 461 l 700 0 l 463 0 l 463 333 l 463 390 q 456 446 463 435 q 404 460 444 460 q 375 458 385 460 q 294 440 336 457 l 294 0 l 57 0 l 57 639 l 250 639 l 276 532 q 515 653 376 653 q 609 639 565 653 q 675 599 653 625 m 594 853 q 596 832 596 846 q 565 746 596 782 q 478 710 533 710 q 432 716 454 710 q 376 733 410 722 q 297 754 325 754 q 265 744 274 754 q 257 717 257 735 l 176 717 l 175 733 q 204 821 175 782 q 293 860 233 860 q 335 855 315 860 q 385 839 354 850 q 474 818 439 818 q 514 853 514 818 l 594 853 z "},"o":{"ha":736,"x_min":33,"x_max":703,"o":"m 365 -18 q 116 60 199 -18 q 33 308 33 139 q 51 472 33 401 q 93 569 68 542 q 210 629 125 606 q 371 653 296 653 q 626 576 550 653 q 703 332 703 500 q 621 67 703 151 q 365 -18 539 -18 m 369 144 q 440 183 424 144 q 457 318 457 221 q 450 423 457 386 q 424 477 443 460 q 367 494 406 494 q 303 485 311 494 q 285 424 292 475 q 278 317 278 372 q 297 183 278 222 q 369 144 315 144 z "},"ó":{"ha":736,"x_min":33,"x_max":703,"o":"m 365 -18 q 116 60 199 -18 q 33 308 33 139 q 51 472 33 401 q 93 569 68 542 q 210 629 125 606 q 371 653 296 653 q 626 576 550 653 q 703 332 703 500 q 621 67 703 151 q 365 -18 539 -18 m 369 144 q 440 183 424 144 q 457 318 457 221 q 450 423 457 386 q 424 477 443 460 q 367 494 406 494 q 303 485 311 494 q 285 424 292 475 q 278 317 278 372 q 297 183 278 222 q 369 144 315 144 m 260 765 q 357 851 292 800 q 488 947 422 903 l 561 839 q 443 763 517 808 q 315 685 369 717 l 260 765 z "},"ǒ":{"ha":736,"x_min":33,"x_max":703,"o":"m 365 -18 q 116 60 199 -18 q 33 308 33 139 q 51 472 33 401 q 93 569 68 542 q 210 629 125 606 q 371 653 296 653 q 626 576 550 653 q 703 332 703 500 q 621 67 703 151 q 365 -18 539 -18 m 369 144 q 440 183 424 144 q 457 318 457 221 q 450 423 457 386 q 424 477 443 460 q 367 494 406 494 q 303 485 311 494 q 285 424 292 475 q 278 317 278 372 q 297 183 278 222 q 369 144 315 144 m 597 883 l 421 732 l 313 732 l 139 885 l 199 957 l 371 844 l 540 957 l 597 883 z "},"ô":{"ha":736,"x_min":33,"x_max":703,"o":"m 365 -18 q 116 60 199 -18 q 33 308 33 139 q 51 472 33 401 q 93 569 68 542 q 210 629 125 606 q 371 653 296 653 q 626 576 550 653 q 703 332 703 500 q 621 67 703 151 q 365 -18 539 -18 m 369 144 q 440 183 424 144 q 457 318 457 221 q 450 423 457 386 q 424 477 443 460 q 367 494 406 494 q 303 485 311 494 q 285 424 292 475 q 278 317 278 372 q 297 183 278 222 q 369 144 315 144 m 540 693 l 371 817 l 199 693 l 139 765 l 313 932 l 421 932 l 597 767 l 540 693 z "},"ố":{"ha":736,"x_min":33,"x_max":703,"o":"m 365 -18 q 116 60 199 -18 q 33 308 33 139 q 51 472 33 401 q 93 569 68 542 q 210 629 125 606 q 371 653 296 653 q 626 576 550 653 q 703 332 703 500 q 621 67 703 151 q 365 -18 539 -18 m 369 144 q 440 183 424 144 q 457 318 457 221 q 450 423 457 386 q 424 477 443 460 q 367 494 406 494 q 303 485 311 494 q 285 424 292 475 q 278 317 278 372 q 297 183 278 222 q 369 144 315 144 m 703 982 q 526 872 596 929 l 464 935 q 535 1019 499 985 q 619 1086 572 1054 l 703 982 m 424 904 q 518 808 444 885 l 558 767 l 501 693 l 464 722 q 374 790 406 769 q 243 693 324 758 l 183 765 q 315 904 251 844 l 424 904 z "},"ộ":{"ha":736,"x_min":33,"x_max":703,"o":"m 365 -18 q 116 60 199 -18 q 33 308 33 139 q 51 472 33 401 q 93 569 68 542 q 210 629 125 606 q 371 653 296 653 q 626 576 550 653 q 703 332 703 500 q 621 67 703 151 q 365 -18 539 -18 m 369 144 q 440 183 424 144 q 457 318 457 221 q 450 423 457 386 q 424 477 443 460 q 367 494 406 494 q 303 485 311 494 q 285 424 292 475 q 278 317 278 372 q 297 183 278 222 q 369 144 315 144 m 461 -169 q 436 -242 461 -215 q 367 -268 411 -268 q 299 -242 324 -268 q 275 -172 275 -217 q 299 -100 275 -126 q 367 -74 324 -74 q 435 -99 410 -74 q 461 -169 461 -125 m 540 693 l 371 817 l 199 693 l 139 765 l 313 932 l 421 932 l 597 767 l 540 693 z "},"ồ":{"ha":736,"x_min":33,"x_max":703,"o":"m 365 -18 q 116 60 199 -18 q 33 308 33 139 q 51 472 33 401 q 93 569 68 542 q 210 629 125 606 q 371 653 296 653 q 626 576 550 653 q 703 332 703 500 q 621 67 703 151 q 365 -18 539 -18 m 369 144 q 440 183 424 144 q 457 318 457 221 q 450 423 457 386 q 424 477 443 460 q 367 494 406 494 q 303 485 311 494 q 285 424 292 475 q 278 317 278 372 q 297 183 278 222 q 369 144 315 144 m 215 872 q 39 982 146 929 l 122 1086 q 206 1019 169 1054 q 278 935 243 985 l 215 872 m 499 693 q 368 790 418 758 q 278 722 336 769 l 240 693 l 183 767 l 224 808 q 318 904 297 885 l 426 904 q 558 765 490 844 l 499 693 z "},"ổ":{"ha":736,"x_min":33,"x_max":703,"o":"m 365 -18 q 116 60 199 -18 q 33 308 33 139 q 51 472 33 401 q 93 569 68 542 q 210 629 125 606 q 371 653 296 653 q 626 576 550 653 q 703 332 703 500 q 621 67 703 151 q 365 -18 539 -18 m 369 144 q 440 183 424 144 q 457 318 457 221 q 450 423 457 386 q 424 477 443 460 q 367 494 406 494 q 303 485 311 494 q 285 424 292 475 q 278 317 278 372 q 297 183 278 222 q 369 144 315 144 m 378 1057 q 268 1110 378 1097 l 300 1200 q 435 1156 386 1193 q 488 1069 485 1119 q 458 981 492 1018 q 340 929 425 943 l 310 1004 q 364 1030 350 1017 q 378 1057 378 1043 m 499 693 q 368 790 418 758 q 278 722 336 769 l 240 693 l 183 767 l 224 808 q 318 904 297 885 l 426 904 q 558 765 490 844 l 499 693 z "},"ỗ":{"ha":736,"x_min":33,"x_max":703,"o":"m 365 -18 q 116 60 199 -18 q 33 308 33 139 q 51 472 33 401 q 93 569 68 542 q 210 629 125 606 q 371 653 296 653 q 626 576 550 653 q 703 332 703 500 q 621 67 703 151 q 365 -18 539 -18 m 369 144 q 440 183 424 144 q 457 318 457 221 q 450 423 457 386 q 424 477 443 460 q 367 494 406 494 q 303 485 311 494 q 285 424 292 475 q 278 317 278 372 q 297 183 278 222 q 369 144 315 144 m 282 982 q 253 973 260 982 q 246 947 246 964 l 172 947 q 192 1035 167 993 q 278 1076 218 1076 q 361 1057 311 1076 q 392 1047 367 1056 q 442 1039 417 1039 q 478 1071 478 1039 l 551 1071 q 553 1053 553 1065 q 524 974 553 1007 q 446 942 496 942 q 353 964 411 942 q 282 982 307 982 m 499 693 q 368 790 418 758 q 278 722 336 769 l 240 693 l 183 767 l 224 808 q 318 904 297 885 l 426 904 q 558 765 490 844 l 499 693 z "},"ö":{"ha":736,"x_min":33,"x_max":703,"o":"m 365 -18 q 116 60 199 -18 q 33 308 33 139 q 51 472 33 401 q 93 569 68 542 q 210 629 125 606 q 371 653 296 653 q 626 576 550 653 q 703 332 703 500 q 621 67 703 151 q 365 -18 539 -18 m 369 144 q 440 183 424 144 q 457 318 457 221 q 450 423 457 386 q 424 477 443 460 q 367 494 406 494 q 303 485 311 494 q 285 424 292 475 q 278 317 278 372 q 297 183 278 222 q 369 144 315 144 m 332 814 q 306 738 332 765 q 233 710 279 710 q 161 737 188 710 q 135 811 135 764 q 161 888 135 860 q 233 915 188 915 q 306 888 281 915 q 332 814 332 861 m 604 814 q 577 738 604 767 q 504 710 550 710 q 433 737 458 710 q 407 811 407 764 q 433 888 407 860 q 504 915 458 915 q 577 888 550 915 q 604 814 604 861 z "},"ȫ":{"ha":736,"x_min":33,"x_max":703,"o":"m 365 -18 q 116 60 199 -18 q 33 308 33 139 q 51 472 33 401 q 93 569 68 542 q 210 629 125 606 q 371 653 296 653 q 626 576 550 653 q 703 332 703 500 q 621 67 703 151 q 365 -18 539 -18 m 369 144 q 440 183 424 144 q 457 318 457 221 q 450 423 457 386 q 424 477 443 460 q 367 494 406 494 q 303 485 311 494 q 285 424 292 475 q 278 317 278 372 q 297 183 278 222 q 369 144 315 144 m 332 814 q 306 738 332 765 q 233 710 279 710 q 161 737 188 710 q 135 811 135 764 q 161 888 135 860 q 233 915 188 915 q 306 888 281 915 q 332 814 332 861 m 604 814 q 577 738 604 767 q 504 710 550 710 q 433 737 458 710 q 407 811 407 764 q 433 888 407 860 q 504 915 458 915 q 577 888 550 915 q 604 814 604 861 m 169 1099 l 567 1099 l 567 981 l 169 981 l 169 1099 z "},"ọ":{"ha":736,"x_min":33,"x_max":703,"o":"m 365 -18 q 116 60 199 -18 q 33 308 33 139 q 51 472 33 401 q 93 569 68 542 q 210 629 125 606 q 371 653 296 653 q 626 576 550 653 q 703 332 703 500 q 621 67 703 151 q 365 -18 539 -18 m 369 144 q 440 183 424 144 q 457 318 457 221 q 450 423 457 386 q 424 477 443 460 q 367 494 406 494 q 303 485 311 494 q 285 424 292 475 q 278 317 278 372 q 297 183 278 222 q 369 144 315 144 m 461 -169 q 436 -242 461 -215 q 367 -268 411 -268 q 299 -242 324 -268 q 275 -172 275 -217 q 299 -100 275 -126 q 367 -74 324 -74 q 435 -99 410 -74 q 461 -169 461 -125 z "},"ò":{"ha":736,"x_min":33,"x_max":703,"o":"m 365 -18 q 116 60 199 -18 q 33 308 33 139 q 51 472 33 401 q 93 569 68 542 q 210 629 125 606 q 371 653 296 653 q 626 576 550 653 q 703 332 703 500 q 621 67 703 151 q 365 -18 539 -18 m 369 144 q 440 183 424 144 q 457 318 457 221 q 450 423 457 386 q 424 477 443 460 q 367 494 406 494 q 303 485 311 494 q 285 424 292 475 q 278 317 278 372 q 297 183 278 222 q 369 144 315 144 m 417 686 q 289 764 363 718 q 171 840 215 810 l 244 949 q 375 853 310 904 q 472 767 440 801 l 417 686 z "},"ỏ":{"ha":736,"x_min":33,"x_max":703,"o":"m 365 -18 q 116 60 199 -18 q 33 308 33 139 q 51 472 33 401 q 93 569 68 542 q 210 629 125 606 q 371 653 296 653 q 626 576 550 653 q 703 332 703 500 q 621 67 703 151 q 365 -18 539 -18 m 369 144 q 440 183 424 144 q 457 318 457 221 q 450 423 457 386 q 424 477 443 460 q 367 494 406 494 q 303 485 311 494 q 285 424 292 475 q 278 317 278 372 q 297 183 278 222 q 369 144 315 144 m 296 804 q 361 830 344 817 q 378 857 378 843 q 254 924 378 907 l 286 1028 q 431 974 378 1019 q 488 869 485 929 q 326 701 496 732 l 296 804 z "},"ơ":{"ha":736,"x_min":33,"x_max":797,"o":"m 769 846 q 797 732 797 786 q 760 620 797 669 q 651 546 724 571 q 703 332 703 472 q 621 67 703 151 q 365 -18 539 -18 q 116 60 199 -18 q 33 308 33 139 q 51 472 33 401 q 93 569 68 542 q 210 629 125 606 q 371 653 296 653 q 586 607 510 653 q 639 706 639 647 q 610 800 639 750 l 769 846 m 369 144 q 440 183 424 144 q 457 318 457 221 q 450 423 457 386 q 424 477 443 460 q 367 494 406 494 q 303 485 311 494 q 285 424 292 475 q 278 317 278 372 q 297 183 278 222 q 369 144 315 144 z "},"ớ":{"ha":736,"x_min":33,"x_max":797,"o":"m 769 846 q 797 732 797 786 q 760 620 797 669 q 651 546 724 571 q 703 332 703 472 q 621 67 703 151 q 365 -18 539 -18 q 116 60 199 -18 q 33 308 33 139 q 51 472 33 401 q 93 569 68 542 q 210 629 125 606 q 371 653 296 653 q 586 607 510 653 q 639 706 639 647 q 610 800 639 750 l 769 846 m 369 144 q 440 183 424 144 q 457 318 457 221 q 450 423 457 386 q 424 477 443 460 q 367 494 406 494 q 303 485 311 494 q 285 424 292 475 q 278 317 278 372 q 297 183 278 222 q 369 144 315 144 m 260 765 q 357 851 292 800 q 488 947 422 903 l 561 839 q 443 763 517 808 q 315 685 369 717 l 260 765 z "},"ợ":{"ha":736,"x_min":33,"x_max":797,"o":"m 769 846 q 797 732 797 786 q 760 620 797 669 q 651 546 724 571 q 703 332 703 472 q 621 67 703 151 q 365 -18 539 -18 q 116 60 199 -18 q 33 308 33 139 q 51 472 33 401 q 93 569 68 542 q 210 629 125 606 q 371 653 296 653 q 586 607 510 653 q 639 706 639 647 q 610 800 639 750 l 769 846 m 369 144 q 440 183 424 144 q 457 318 457 221 q 450 423 457 386 q 424 477 443 460 q 367 494 406 494 q 303 485 311 494 q 285 424 292 475 q 278 317 278 372 q 297 183 278 222 q 369 144 315 144 m 461 -169 q 436 -242 461 -215 q 367 -268 411 -268 q 299 -242 324 -268 q 275 -172 275 -217 q 299 -100 275 -126 q 367 -74 324 -74 q 435 -99 410 -74 q 461 -169 461 -125 z "},"ờ":{"ha":736,"x_min":33,"x_max":797,"o":"m 769 846 q 797 732 797 786 q 760 620 797 669 q 651 546 724 571 q 703 332 703 472 q 621 67 703 151 q 365 -18 539 -18 q 116 60 199 -18 q 33 308 33 139 q 51 472 33 401 q 93 569 68 542 q 210 629 125 606 q 371 653 296 653 q 586 607 510 653 q 639 706 639 647 q 610 800 639 750 l 769 846 m 369 144 q 440 183 424 144 q 457 318 457 221 q 450 423 457 386 q 424 477 443 460 q 367 494 406 494 q 303 485 311 494 q 285 424 292 475 q 278 317 278 372 q 297 183 278 222 q 369 144 315 144 m 417 686 q 289 764 363 718 q 171 840 215 810 l 244 949 q 375 853 310 904 q 472 767 440 801 l 417 686 z "},"ở":{"ha":736,"x_min":33,"x_max":797,"o":"m 769 846 q 797 732 797 786 q 760 620 797 669 q 651 546 724 571 q 703 332 703 472 q 621 67 703 151 q 365 -18 539 -18 q 116 60 199 -18 q 33 308 33 139 q 51 472 33 401 q 93 569 68 542 q 210 629 125 606 q 371 653 296 653 q 586 607 510 653 q 639 706 639 647 q 610 800 639 750 l 769 846 m 369 144 q 440 183 424 144 q 457 318 457 221 q 450 423 457 386 q 424 477 443 460 q 367 494 406 494 q 303 485 311 494 q 285 424 292 475 q 278 317 278 372 q 297 183 278 222 q 369 144 315 144 m 296 804 q 361 830 344 817 q 378 857 378 843 q 254 924 378 907 l 286 1028 q 431 974 378 1019 q 488 869 485 929 q 326 701 496 732 l 296 804 z "},"ỡ":{"ha":736,"x_min":33,"x_max":797,"o":"m 769 846 q 797 732 797 786 q 760 620 797 669 q 651 546 724 571 q 703 332 703 472 q 621 67 703 151 q 365 -18 539 -18 q 116 60 199 -18 q 33 308 33 139 q 51 472 33 401 q 93 569 68 542 q 210 629 125 606 q 371 653 296 653 q 586 607 510 653 q 639 706 639 647 q 610 800 639 750 l 769 846 m 369 144 q 440 183 424 144 q 457 318 457 221 q 450 423 457 386 q 424 477 443 460 q 367 494 406 494 q 303 485 311 494 q 285 424 292 475 q 278 317 278 372 q 297 183 278 222 q 369 144 315 144 m 576 853 q 578 832 578 846 q 547 746 578 782 q 460 710 515 710 q 414 716 436 710 q 358 733 392 722 q 279 754 307 754 q 247 744 256 754 q 239 717 239 735 l 158 717 l 157 733 q 186 821 157 782 q 275 860 215 860 q 317 855 297 860 q 367 839 336 850 q 456 818 421 818 q 496 853 496 818 l 576 853 z "},"ő":{"ha":736,"x_min":33,"x_max":715,"o":"m 174 788 q 260 885 201 826 q 378 996 318 943 l 464 897 q 356 808 424 863 q 239 714 289 753 l 174 788 m 425 788 q 511 885 453 826 q 629 996 569 943 l 715 897 q 608 808 675 863 q 490 714 540 753 l 425 788 m 365 -18 q 116 60 199 -18 q 33 308 33 139 q 51 472 33 401 q 93 569 68 542 q 210 629 125 606 q 371 653 296 653 q 626 576 550 653 q 703 332 703 500 q 621 67 703 151 q 365 -18 539 -18 m 369 144 q 440 183 424 144 q 457 318 457 221 q 450 423 457 386 q 424 477 443 460 q 367 494 406 494 q 303 485 311 494 q 285 424 292 475 q 278 317 278 372 q 297 183 278 222 q 369 144 315 144 z "},"ō":{"ha":736,"x_min":33,"x_max":703,"o":"m 365 -18 q 116 60 199 -18 q 33 308 33 139 q 51 472 33 401 q 93 569 68 542 q 210 629 125 606 q 371 653 296 653 q 626 576 550 653 q 703 332 703 500 q 621 67 703 151 q 365 -18 539 -18 m 369 144 q 440 183 424 144 q 457 318 457 221 q 450 423 457 386 q 424 477 443 460 q 367 494 406 494 q 303 485 311 494 q 285 424 292 475 q 278 317 278 372 q 297 183 278 222 q 369 144 315 144 m 169 836 l 567 836 l 567 718 l 169 718 l 169 836 z "},"ṓ":{"ha":736,"x_min":33,"x_max":703,"o":"m 365 -18 q 116 60 199 -18 q 33 308 33 139 q 51 472 33 401 q 93 569 68 542 q 210 629 125 606 q 371 653 296 653 q 626 576 550 653 q 703 332 703 500 q 621 67 703 151 q 365 -18 539 -18 m 369 144 q 440 183 424 144 q 457 318 457 221 q 450 423 457 386 q 424 477 443 460 q 367 494 406 494 q 303 485 311 494 q 285 424 292 475 q 278 317 278 372 q 297 183 278 222 q 369 144 315 144 m 169 836 l 567 836 l 567 718 l 169 718 l 169 836 m 260 949 q 357 1035 292 983 q 488 1131 422 1086 l 561 1022 q 443 946 517 992 q 315 868 369 900 l 260 949 z "},"ṑ":{"ha":736,"x_min":33,"x_max":703,"o":"m 365 -18 q 116 60 199 -18 q 33 308 33 139 q 51 472 33 401 q 93 569 68 542 q 210 629 125 606 q 371 653 296 653 q 626 576 550 653 q 703 332 703 500 q 621 67 703 151 q 365 -18 539 -18 m 369 144 q 440 183 424 144 q 457 318 457 221 q 450 423 457 386 q 424 477 443 460 q 367 494 406 494 q 303 485 311 494 q 285 424 292 475 q 278 317 278 372 q 297 183 278 222 q 369 144 315 144 m 169 836 l 567 836 l 567 718 l 169 718 l 169 836 m 417 869 q 289 947 363 901 q 171 1024 215 993 l 244 1132 q 375 1036 310 1088 q 472 950 440 985 l 417 869 z "},"ø":{"ha":742,"x_min":33,"x_max":703,"o":"m 626 576 q 685 477 667 538 q 703 332 703 417 q 621 67 703 151 q 365 -18 539 -18 l 354 -18 l 301 -135 l 108 -50 l 146 36 q 33 308 33 113 q 51 472 33 401 q 93 569 68 542 q 210 629 125 606 q 371 653 296 653 q 429 650 393 653 l 482 769 l 675 685 l 626 576 m 369 144 q 440 183 424 144 q 457 318 457 221 q 450 423 457 386 q 424 477 443 460 q 367 494 406 494 q 303 485 311 494 q 285 424 292 475 q 278 317 278 372 q 297 183 278 222 q 369 144 315 144 z "},"ǿ":{"ha":742,"x_min":33,"x_max":703,"o":"m 626 576 q 685 477 667 538 q 703 332 703 417 q 621 67 703 151 q 365 -18 539 -18 l 354 -18 l 301 -135 l 108 -50 l 146 36 q 33 308 33 113 q 51 472 33 401 q 93 569 68 542 q 210 629 125 606 q 371 653 296 653 q 429 650 393 653 l 482 769 l 675 685 l 626 576 m 369 144 q 440 183 424 144 q 457 318 457 221 q 450 423 457 386 q 424 477 443 460 q 367 494 406 494 q 303 485 311 494 q 285 424 292 475 q 278 317 278 372 q 297 183 278 222 q 369 144 315 144 m 263 804 q 360 890 294 839 q 490 986 425 942 l 564 878 q 446 801 519 847 q 318 724 372 756 l 263 804 z "},"õ":{"ha":736,"x_min":33,"x_max":703,"o":"m 365 -18 q 116 60 199 -18 q 33 308 33 139 q 51 472 33 401 q 93 569 68 542 q 210 629 125 606 q 371 653 296 653 q 626 576 550 653 q 703 332 703 500 q 621 67 703 151 q 365 -18 539 -18 m 369 144 q 440 183 424 144 q 457 318 457 221 q 450 423 457 386 q 424 477 443 460 q 367 494 406 494 q 303 485 311 494 q 285 424 292 475 q 278 317 278 372 q 297 183 278 222 q 369 144 315 144 m 576 853 q 578 832 578 846 q 547 746 578 782 q 460 710 515 710 q 414 716 436 710 q 358 733 392 722 q 279 754 307 754 q 247 744 256 754 q 239 717 239 735 l 158 717 l 157 733 q 186 821 157 782 q 275 860 215 860 q 317 855 297 860 q 367 839 336 850 q 456 818 421 818 q 496 853 496 818 l 576 853 z "},"ṍ":{"ha":736,"x_min":33,"x_max":703,"o":"m 365 -18 q 116 60 199 -18 q 33 308 33 139 q 51 472 33 401 q 93 569 68 542 q 210 629 125 606 q 371 653 296 653 q 626 576 550 653 q 703 332 703 500 q 621 67 703 151 q 365 -18 539 -18 m 369 144 q 440 183 424 144 q 457 318 457 221 q 450 423 457 386 q 424 477 443 460 q 367 494 406 494 q 303 485 311 494 q 285 424 292 475 q 278 317 278 372 q 297 183 278 222 q 369 144 315 144 m 576 853 q 578 832 578 846 q 547 746 578 782 q 460 710 515 710 q 414 716 436 710 q 358 733 392 722 q 279 754 307 754 q 247 744 256 754 q 239 717 239 735 l 158 717 l 157 733 q 186 821 157 782 q 275 860 215 860 q 317 855 297 860 q 367 839 336 850 q 456 818 421 818 q 496 853 496 818 l 576 853 m 260 965 q 357 1051 292 1000 q 488 1147 422 1103 l 561 1039 q 443 963 517 1008 q 315 885 369 917 l 260 965 z "},"œ":{"ha":1110,"x_min":33,"x_max":1078,"o":"m 865 167 q 994 174 900 167 q 1040 176 1007 174 l 1061 33 q 783 -17 954 -17 q 579 32 660 -17 q 365 -18 499 -18 q 116 60 199 -18 q 33 308 33 139 q 51 472 33 401 q 93 569 68 542 q 210 629 125 606 q 371 653 296 653 q 579 611 503 653 q 678 640 621 629 q 789 651 736 651 q 976 607 914 651 q 1058 484 1039 563 q 1078 274 1078 406 q 893 268 983 268 l 700 268 l 697 244 q 742 181 704 196 q 865 167 781 167 m 710 486 q 694 432 701 482 q 701 378 699 415 l 764 378 q 858 379 829 378 q 840 474 858 446 q 775 501 821 501 q 710 486 738 501 m 369 144 q 433 170 414 144 q 456 256 451 196 q 453 307 453 289 q 456 368 453 329 q 434 466 453 438 q 367 494 415 494 q 303 485 311 494 q 285 424 292 475 q 278 317 278 372 q 297 183 278 222 q 369 144 315 144 z "},"p":{"ha":750,"x_min":57,"x_max":714,"o":"m 496 653 q 655 587 596 653 q 714 357 714 521 q 690 158 714 235 q 636 56 667 81 q 530 15 606 31 q 374 0 454 0 q 294 3 350 0 l 294 -194 l 57 -204 l 57 639 l 251 639 l 275 540 q 367 622 311 592 q 496 653 424 653 m 440 169 q 463 233 456 181 q 469 332 469 285 q 450 447 469 410 q 372 485 431 485 q 294 476 331 485 l 294 168 l 333 164 q 385 163 351 163 q 440 169 432 163 z "},"þ":{"ha":756,"x_min":57,"x_max":714,"o":"m 496 653 q 655 587 596 653 q 714 357 714 521 q 690 158 714 235 q 636 56 667 81 q 530 15 606 31 q 374 0 454 0 q 294 3 350 0 l 294 -194 l 57 -204 l 57 639 l 57 833 l 294 843 l 294 565 q 382 630 331 607 q 496 653 433 653 m 440 169 q 463 233 456 181 q 469 332 469 285 q 450 447 469 410 q 372 485 431 485 q 294 476 331 485 l 294 168 l 333 164 q 385 163 351 163 q 440 169 432 163 z "},"q":{"ha":747,"x_min":35,"x_max":692,"o":"m 385 651 q 692 610 533 651 l 692 -194 l 454 -204 l 454 -21 q 475 103 454 32 l 471 106 q 381 17 436 43 q 276 -8 325 -8 q 101 69 168 -8 q 35 301 35 146 q 61 490 35 406 q 125 600 88 575 q 235 639 165 626 q 385 651 304 651 m 376 185 q 454 197 410 185 l 454 488 q 404 493 438 490 q 367 494 392 494 q 306 483 313 494 q 286 413 293 464 q 279 318 279 364 q 303 215 279 246 q 376 185 326 185 z "},"r":{"ha":526,"x_min":57,"x_max":521,"o":"m 453 653 q 491 649 471 653 q 521 639 511 644 q 514 538 521 608 q 501 439 507 468 q 450 440 488 440 q 294 431 363 440 l 294 0 l 57 0 l 57 639 l 256 639 l 283 536 l 285 536 q 371 621 325 589 q 453 653 417 653 z "},"ŕ":{"ha":526,"x_min":57,"x_max":521,"o":"m 453 653 q 491 649 471 653 q 521 639 511 644 q 514 538 521 608 q 501 439 507 468 q 450 440 488 440 q 294 431 363 440 l 294 0 l 57 0 l 57 639 l 256 639 l 283 536 l 285 536 q 371 621 325 589 q 453 653 417 653 m 193 765 q 290 851 225 800 q 421 947 356 903 l 494 839 q 376 763 450 808 q 249 685 303 717 l 193 765 z "},"ř":{"ha":526,"x_min":57,"x_max":531,"o":"m 453 653 q 491 649 471 653 q 521 639 511 644 q 514 538 521 608 q 501 439 507 468 q 450 440 488 440 q 294 431 363 440 l 294 0 l 57 0 l 57 639 l 256 639 l 283 536 l 285 536 q 371 621 325 589 q 453 653 417 653 m 531 883 l 354 732 l 246 732 l 72 885 l 132 957 l 304 844 l 474 957 l 531 883 z "},"ŗ":{"ha":526,"x_min":57,"x_max":521,"o":"m 453 653 q 491 649 471 653 q 521 639 511 644 q 514 538 521 608 q 501 439 507 468 q 450 440 488 440 q 294 431 363 440 l 294 0 l 57 0 l 57 639 l 256 639 l 283 536 l 285 536 q 371 621 325 589 q 453 653 417 653 m 114 -81 q 158 -78 136 -78 q 212 -81 185 -78 q 249 -86 239 -83 q 257 -150 257 -114 q 233 -278 257 -214 q 183 -365 214 -332 q 83 -340 124 -357 q 110 -257 101 -301 q 119 -164 119 -214 q 114 -81 119 -118 z "},"s":{"ha":596,"x_min":39,"x_max":574,"o":"m 574 217 q 495 39 574 93 q 272 -15 417 -15 q 39 14 171 -15 q 52 94 42 42 q 69 174 63 146 q 181 160 119 165 q 285 156 242 156 q 331 160 322 156 q 334 167 332 161 q 336 181 336 174 q 301 218 336 208 q 217 242 290 221 q 97 317 143 263 q 50 454 50 372 q 69 550 50 497 q 111 617 89 603 q 192 640 128 628 q 310 651 256 651 q 542 635 425 651 q 535 551 542 610 q 522 476 528 492 q 332 492 404 492 q 283 488 294 492 q 278 480 281 486 q 275 464 275 474 q 288 436 275 444 q 353 413 300 426 q 460 375 415 394 q 540 317 506 356 q 574 217 574 278 z "},"ś":{"ha":596,"x_min":39,"x_max":574,"o":"m 574 217 q 495 39 574 93 q 272 -15 417 -15 q 39 14 171 -15 q 52 94 42 42 q 69 174 63 146 q 181 160 119 165 q 285 156 242 156 q 331 160 322 156 q 334 167 332 161 q 336 181 336 174 q 301 218 336 208 q 217 242 290 221 q 97 317 143 263 q 50 454 50 372 q 69 550 50 497 q 111 617 89 603 q 192 640 128 628 q 310 651 256 651 q 542 635 425 651 q 535 551 542 610 q 522 476 528 492 q 332 492 404 492 q 283 488 294 492 q 278 480 281 486 q 275 464 275 474 q 288 436 275 444 q 353 413 300 426 q 460 375 415 394 q 540 317 506 356 q 574 217 574 278 m 190 765 q 288 851 222 800 q 418 947 353 903 l 492 839 q 374 763 447 808 q 246 685 300 717 l 190 765 z "},"š":{"ha":596,"x_min":39,"x_max":574,"o":"m 574 217 q 495 39 574 93 q 272 -15 417 -15 q 39 14 171 -15 q 52 94 42 42 q 69 174 63 146 q 181 160 119 165 q 285 156 242 156 q 331 160 322 156 q 334 167 332 161 q 336 181 336 174 q 301 218 336 208 q 217 242 290 221 q 97 317 143 263 q 50 454 50 372 q 69 550 50 497 q 111 617 89 603 q 192 640 128 628 q 310 651 256 651 q 542 635 425 651 q 535 551 542 610 q 522 476 528 492 q 332 492 404 492 q 283 488 294 492 q 278 480 281 486 q 275 464 275 474 q 288 436 275 444 q 353 413 300 426 q 460 375 415 394 q 540 317 506 356 q 574 217 574 278 m 528 883 l 351 732 l 243 732 l 69 885 l 129 957 l 301 844 l 471 957 l 528 883 z "},"ş":{"ha":596,"x_min":39,"x_max":574,"o":"m 574 217 q 507 49 574 103 q 317 -14 440 -6 l 296 -75 q 398 -109 363 -75 q 433 -201 433 -143 q 374 -311 433 -272 q 226 -350 314 -350 q 150 -342 188 -350 l 160 -257 q 271 -249 240 -257 q 301 -204 301 -240 q 280 -167 301 -178 q 219 -157 258 -157 l 188 -158 l 182 -146 l 231 -14 q 39 14 147 -10 q 52 94 42 42 q 69 174 63 146 q 181 160 119 165 q 285 156 242 156 q 331 160 322 156 q 334 167 332 161 q 336 181 336 174 q 301 218 336 208 q 217 242 290 221 q 97 317 143 263 q 50 454 50 372 q 69 550 50 497 q 111 617 89 603 q 192 640 128 628 q 310 651 256 651 q 542 635 425 651 q 535 551 542 610 q 522 476 528 492 q 332 492 404 492 q 283 488 294 492 q 278 480 281 486 q 275 464 275 474 q 288 436 275 444 q 353 413 300 426 q 460 375 415 394 q 540 317 506 356 q 574 217 574 278 z "},"ș":{"ha":596,"x_min":39,"x_max":574,"o":"m 574 217 q 495 39 574 93 q 272 -15 417 -15 q 39 14 171 -15 q 52 94 42 42 q 69 174 63 146 q 181 160 119 165 q 285 156 242 156 q 331 160 322 156 q 334 167 332 161 q 336 181 336 174 q 301 218 336 208 q 217 242 290 221 q 97 317 143 263 q 50 454 50 372 q 69 550 50 497 q 111 617 89 603 q 192 640 128 628 q 310 651 256 651 q 542 635 425 651 q 535 551 542 610 q 522 476 528 492 q 332 492 404 492 q 283 488 294 492 q 278 480 281 486 q 275 464 275 474 q 288 436 275 444 q 353 413 300 426 q 460 375 415 394 q 540 317 506 356 q 574 217 574 278 m 214 -81 q 258 -78 236 -78 q 312 -81 285 -78 q 349 -86 339 -83 q 357 -150 357 -114 q 333 -278 357 -214 q 283 -365 314 -332 q 183 -340 224 -357 q 210 -257 201 -301 q 219 -164 219 -214 q 214 -81 219 -118 z "},"ṣ":{"ha":596,"x_min":39,"x_max":574,"o":"m 574 217 q 495 39 574 93 q 272 -15 417 -15 q 39 14 171 -15 q 52 94 42 42 q 69 174 63 146 q 181 160 119 165 q 285 156 242 156 q 331 160 322 156 q 334 167 332 161 q 336 181 336 174 q 301 218 336 208 q 217 242 290 221 q 97 317 143 263 q 50 454 50 372 q 69 550 50 497 q 111 617 89 603 q 192 640 128 628 q 310 651 256 651 q 542 635 425 651 q 535 551 542 610 q 522 476 528 492 q 332 492 404 492 q 283 488 294 492 q 278 480 281 486 q 275 464 275 474 q 288 436 275 444 q 353 413 300 426 q 460 375 415 394 q 540 317 506 356 q 574 217 574 278 m 368 -169 q 343 -242 368 -215 q 274 -268 318 -268 q 206 -242 231 -268 q 182 -172 182 -217 q 206 -100 182 -126 q 274 -74 231 -74 q 342 -99 317 -74 q 368 -169 368 -125 z "},"ß":{"ha":811,"x_min":69,"x_max":774,"o":"m 597 438 q 614 395 597 414 q 665 350 631 376 q 745 272 717 310 q 774 175 774 235 q 714 42 774 96 q 531 -12 654 -12 q 344 14 450 -12 l 371 171 q 451 157 417 157 q 503 168 485 157 q 522 203 522 179 q 506 244 522 226 q 454 289 489 263 q 392 344 414 319 q 371 404 371 369 q 385 460 371 436 q 426 515 399 485 q 466 566 453 544 q 479 615 479 588 q 457 680 479 651 q 406 708 435 708 q 330 650 353 708 q 307 444 307 592 l 307 0 l 69 0 l 69 444 q 85 627 69 553 q 144 750 101 701 q 414 843 222 843 q 644 783 569 843 q 700 672 700 740 q 669 567 700 621 q 636 517 653 540 q 606 472 615 489 q 597 438 597 454 z "},"t":{"ha":513,"x_min":11,"x_max":499,"o":"m 351 263 q 353 210 351 238 q 361 176 354 183 q 429 167 371 167 l 476 168 q 489 14 489 101 q 412 -4 463 4 q 315 -12 361 -12 q 167 30 219 -12 q 115 161 115 72 l 115 503 l 11 503 l 11 629 l 115 639 l 178 792 l 351 801 l 351 639 l 499 639 l 499 503 l 351 503 l 351 263 z "},"ŧ":{"ha":513,"x_min":11,"x_max":499,"o":"m 351 503 l 351 424 l 478 424 l 478 328 l 351 328 l 351 263 q 353 210 351 238 q 361 176 354 183 q 429 167 371 167 l 476 168 q 489 14 489 101 q 412 -4 463 4 q 315 -12 361 -12 q 167 30 219 -12 q 115 161 115 72 l 115 328 l 31 328 l 31 424 l 115 424 l 115 503 l 11 503 l 11 629 l 115 639 l 178 792 l 351 801 l 351 639 l 499 639 l 499 503 l 351 503 z "},"ť":{"ha":513,"x_min":11,"x_max":564,"o":"m 351 263 q 353 210 351 238 q 361 176 354 183 q 429 167 371 167 l 476 168 q 489 14 489 101 q 412 -4 463 4 q 315 -12 361 -12 q 167 30 219 -12 q 115 161 115 72 l 115 503 l 11 503 l 11 629 l 115 639 l 178 792 l 351 801 l 351 639 l 499 639 l 499 503 l 351 503 l 351 263 m 421 976 q 465 979 443 979 q 519 976 492 979 q 556 971 546 974 q 564 907 564 943 q 540 779 564 843 q 490 692 521 725 q 390 717 431 700 q 417 800 408 756 q 426 893 426 843 q 421 976 426 939 z "},"ţ":{"ha":513,"x_min":11,"x_max":499,"o":"m 351 263 q 353 210 351 238 q 361 176 354 183 q 429 167 371 167 l 476 168 q 489 14 489 101 q 431 -1 468 6 q 357 -11 394 -8 l 335 -75 q 437 -109 401 -75 q 472 -201 472 -143 q 413 -311 472 -272 q 265 -350 353 -350 q 189 -342 226 -350 l 199 -257 q 310 -249 281 -257 q 340 -204 340 -240 q 319 -167 340 -178 q 258 -157 297 -157 l 226 -158 l 221 -146 l 271 -10 q 115 161 115 8 l 115 503 l 11 503 l 11 629 l 115 639 l 178 792 l 351 801 l 351 639 l 499 639 l 499 503 l 351 503 l 351 263 z "},"ṱ":{"ha":513,"x_min":11,"x_max":538,"o":"m 351 263 q 353 210 351 238 q 361 176 354 183 q 429 167 371 167 l 476 168 q 489 14 489 101 q 412 -4 463 4 q 315 -12 361 -12 q 167 30 219 -12 q 115 161 115 72 l 115 503 l 11 503 l 11 629 l 115 639 l 178 792 l 351 801 l 351 639 l 499 639 l 499 503 l 351 503 l 351 263 m 481 -294 l 311 -171 l 139 -294 l 79 -222 l 253 -56 l 361 -56 l 538 -221 l 481 -294 z "},"ț":{"ha":513,"x_min":11,"x_max":499,"o":"m 351 263 q 353 210 351 238 q 361 176 354 183 q 429 167 371 167 l 476 168 q 489 14 489 101 q 412 -4 463 4 q 315 -12 361 -12 q 167 30 219 -12 q 115 161 115 72 l 115 503 l 11 503 l 11 629 l 115 639 l 178 792 l 351 801 l 351 639 l 499 639 l 499 503 l 351 503 l 351 263 m 253 -81 q 297 -78 275 -78 q 351 -81 324 -78 q 388 -86 378 -83 q 396 -150 396 -114 q 372 -278 396 -214 q 322 -365 353 -332 q 222 -340 263 -357 q 249 -257 240 -301 q 258 -164 258 -214 q 253 -81 258 -118 z "},"ṭ":{"ha":513,"x_min":11,"x_max":499,"o":"m 351 263 q 353 210 351 238 q 361 176 354 183 q 429 167 371 167 l 476 168 q 489 14 489 101 q 412 -4 463 4 q 315 -12 361 -12 q 167 30 219 -12 q 115 161 115 72 l 115 503 l 11 503 l 11 629 l 115 639 l 178 792 l 351 801 l 351 639 l 499 639 l 499 503 l 351 503 l 351 263 m 407 -169 q 382 -242 407 -215 q 313 -268 357 -268 q 245 -242 269 -268 q 221 -172 221 -217 q 245 -100 221 -126 q 313 -74 269 -74 q 381 -99 356 -74 q 407 -169 407 -125 z "},"ṯ":{"ha":513,"x_min":11,"x_max":499,"o":"m 351 263 q 353 210 351 238 q 361 176 354 183 q 429 167 371 167 l 476 168 q 489 14 489 101 q 412 -4 463 4 q 315 -12 361 -12 q 167 30 219 -12 q 115 161 115 72 l 115 503 l 11 503 l 11 629 l 115 639 l 178 792 l 351 801 l 351 639 l 499 639 l 499 503 l 351 503 l 351 263 m 81 -79 l 478 -79 l 478 -197 l 81 -197 l 81 -79 z "},"u":{"ha":753,"x_min":53,"x_max":696,"o":"m 696 639 l 696 0 l 503 0 l 476 107 q 238 -14 376 -14 q 144 0 188 -14 q 78 40 100 14 q 59 117 65 56 q 53 303 53 178 l 53 639 l 290 639 l 290 306 q 292 240 290 278 q 300 193 293 203 q 356 179 310 179 l 378 181 q 458 199 417 182 l 458 639 l 696 639 z "},"ú":{"ha":753,"x_min":53,"x_max":696,"o":"m 696 639 l 696 0 l 503 0 l 476 107 q 238 -14 376 -14 q 144 0 188 -14 q 78 40 100 14 q 59 117 65 56 q 53 303 53 178 l 53 639 l 290 639 l 290 306 q 292 240 290 278 q 300 193 293 203 q 356 179 310 179 l 378 181 q 458 199 417 182 l 458 639 l 696 639 m 268 765 q 365 851 300 800 q 496 947 431 903 l 569 839 q 451 763 525 808 q 324 685 378 717 l 268 765 z "},"ʉ":{"ha":753,"x_min":10,"x_max":743,"o":"m 743 363 l 696 363 l 696 0 l 503 0 l 476 107 q 238 -14 376 -14 q 144 0 188 -14 q 78 40 100 14 q 59 117 65 56 q 53 303 53 178 l 53 363 l 10 363 l 10 458 l 53 458 l 53 639 l 290 639 l 290 458 l 458 458 l 458 639 l 696 639 l 696 458 l 743 458 l 743 363 m 458 363 l 290 363 l 290 306 q 292 240 290 278 q 300 193 293 203 q 356 179 310 179 l 378 181 q 458 199 417 182 l 458 363 z "},"ǔ":{"ha":753,"x_min":53,"x_max":696,"o":"m 696 639 l 696 0 l 503 0 l 476 107 q 238 -14 376 -14 q 144 0 188 -14 q 78 40 100 14 q 59 117 65 56 q 53 303 53 178 l 53 639 l 290 639 l 290 306 q 292 240 290 278 q 300 193 293 203 q 356 179 310 179 l 378 181 q 458 199 417 182 l 458 639 l 696 639 m 606 883 l 429 732 l 321 732 l 147 885 l 207 957 l 379 844 l 549 957 l 606 883 z "},"û":{"ha":753,"x_min":53,"x_max":696,"o":"m 696 639 l 696 0 l 503 0 l 476 107 q 238 -14 376 -14 q 144 0 188 -14 q 78 40 100 14 q 59 117 65 56 q 53 303 53 178 l 53 639 l 290 639 l 290 306 q 292 240 290 278 q 300 193 293 203 q 356 179 310 179 l 378 181 q 458 199 417 182 l 458 639 l 696 639 m 549 693 l 379 817 l 207 693 l 147 765 l 321 932 l 429 932 l 606 767 l 549 693 z "},"ü":{"ha":753,"x_min":53,"x_max":696,"o":"m 696 639 l 696 0 l 503 0 l 476 107 q 238 -14 376 -14 q 144 0 188 -14 q 78 40 100 14 q 59 117 65 56 q 53 303 53 178 l 53 639 l 290 639 l 290 306 q 292 240 290 278 q 300 193 293 203 q 356 179 310 179 l 378 181 q 458 199 417 182 l 458 639 l 696 639 m 340 814 q 314 738 340 765 q 242 710 288 710 q 169 737 196 710 q 143 811 143 764 q 169 888 143 860 q 242 915 196 915 q 315 888 289 915 q 340 814 340 861 m 613 814 q 585 738 613 767 q 513 710 558 710 q 441 737 467 710 q 415 811 415 764 q 441 888 415 860 q 513 915 467 915 q 585 888 558 915 q 613 814 613 861 z "},"ǘ":{"ha":753,"x_min":53,"x_max":696,"o":"m 696 639 l 696 0 l 503 0 l 476 107 q 238 -14 376 -14 q 144 0 188 -14 q 78 40 100 14 q 59 117 65 56 q 53 303 53 178 l 53 639 l 290 639 l 290 306 q 292 240 290 278 q 300 193 293 203 q 356 179 310 179 l 378 181 q 458 199 417 182 l 458 639 l 696 639 m 340 814 q 314 738 340 765 q 242 710 288 710 q 169 737 196 710 q 143 811 143 764 q 169 888 143 860 q 242 915 196 915 q 315 888 289 915 q 340 814 340 861 m 613 814 q 585 738 613 767 q 513 710 558 710 q 441 737 467 710 q 415 811 415 764 q 441 888 415 860 q 513 915 467 915 q 585 888 558 915 q 613 814 613 861 m 268 1028 q 365 1114 300 1063 q 496 1210 431 1165 l 569 1101 q 451 1025 525 1071 q 324 947 378 979 l 268 1028 z "},"ǚ":{"ha":753,"x_min":53,"x_max":696,"o":"m 696 639 l 696 0 l 503 0 l 476 107 q 238 -14 376 -14 q 144 0 188 -14 q 78 40 100 14 q 59 117 65 56 q 53 303 53 178 l 53 639 l 290 639 l 290 306 q 292 240 290 278 q 300 193 293 203 q 356 179 310 179 l 378 181 q 458 199 417 182 l 458 639 l 696 639 m 340 814 q 314 738 340 765 q 242 710 288 710 q 169 737 196 710 q 143 811 143 764 q 169 888 143 860 q 242 915 196 915 q 315 888 289 915 q 340 814 340 861 m 613 814 q 585 738 613 767 q 513 710 558 710 q 441 737 467 710 q 415 811 415 764 q 441 888 415 860 q 513 915 467 915 q 585 888 558 915 q 613 814 613 861 m 606 1146 l 429 994 l 321 994 l 147 1147 l 207 1219 l 379 1107 l 549 1219 l 606 1146 z "},"ǜ":{"ha":753,"x_min":53,"x_max":696,"o":"m 696 639 l 696 0 l 503 0 l 476 107 q 238 -14 376 -14 q 144 0 188 -14 q 78 40 100 14 q 59 117 65 56 q 53 303 53 178 l 53 639 l 290 639 l 290 306 q 292 240 290 278 q 300 193 293 203 q 356 179 310 179 l 378 181 q 458 199 417 182 l 458 639 l 696 639 m 340 814 q 314 738 340 765 q 242 710 288 710 q 169 737 196 710 q 143 811 143 764 q 169 888 143 860 q 242 915 196 915 q 315 888 289 915 q 340 814 340 861 m 613 814 q 585 738 613 767 q 513 710 558 710 q 441 737 467 710 q 415 811 415 764 q 441 888 415 860 q 513 915 467 915 q 585 888 558 915 q 613 814 613 861 m 425 949 q 297 1026 371 981 q 179 1103 224 1072 l 253 1211 q 383 1115 318 1167 q 481 1029 449 1064 l 425 949 z "},"ǖ":{"ha":753,"x_min":53,"x_max":696,"o":"m 696 639 l 696 0 l 503 0 l 476 107 q 238 -14 376 -14 q 144 0 188 -14 q 78 40 100 14 q 59 117 65 56 q 53 303 53 178 l 53 639 l 290 639 l 290 306 q 292 240 290 278 q 300 193 293 203 q 356 179 310 179 l 378 181 q 458 199 417 182 l 458 639 l 696 639 m 340 814 q 314 738 340 765 q 242 710 288 710 q 169 737 196 710 q 143 811 143 764 q 169 888 143 860 q 242 915 196 915 q 315 888 289 915 q 340 814 340 861 m 613 814 q 585 738 613 767 q 513 710 558 710 q 441 737 467 710 q 415 811 415 764 q 441 888 415 860 q 513 915 467 915 q 585 888 558 915 q 613 814 613 861 m 178 1099 l 575 1099 l 575 981 l 178 981 l 178 1099 z "},"ụ":{"ha":753,"x_min":53,"x_max":696,"o":"m 696 639 l 696 0 l 503 0 l 476 107 q 238 -14 376 -14 q 144 0 188 -14 q 78 40 100 14 q 59 117 65 56 q 53 303 53 178 l 53 639 l 290 639 l 290 306 q 292 240 290 278 q 300 193 293 203 q 356 179 310 179 l 378 181 q 458 199 417 182 l 458 639 l 696 639 m 469 -169 q 444 -242 469 -215 q 375 -268 419 -268 q 308 -242 332 -268 q 283 -172 283 -217 q 308 -100 283 -126 q 375 -74 332 -74 q 444 -99 418 -74 q 469 -169 469 -125 z "},"ù":{"ha":753,"x_min":53,"x_max":696,"o":"m 696 639 l 696 0 l 503 0 l 476 107 q 238 -14 376 -14 q 144 0 188 -14 q 78 40 100 14 q 59 117 65 56 q 53 303 53 178 l 53 639 l 290 639 l 290 306 q 292 240 290 278 q 300 193 293 203 q 356 179 310 179 l 378 181 q 458 199 417 182 l 458 639 l 696 639 m 425 686 q 297 764 371 718 q 179 840 224 810 l 253 949 q 383 853 318 904 q 481 767 449 801 l 425 686 z "},"ủ":{"ha":753,"x_min":53,"x_max":696,"o":"m 696 639 l 696 0 l 503 0 l 476 107 q 238 -14 376 -14 q 144 0 188 -14 q 78 40 100 14 q 59 117 65 56 q 53 303 53 178 l 53 639 l 290 639 l 290 306 q 292 240 290 278 q 300 193 293 203 q 356 179 310 179 l 378 181 q 458 199 417 182 l 458 639 l 696 639 m 304 804 q 369 830 353 817 q 386 857 386 843 q 263 924 386 907 l 294 1028 q 440 974 386 1019 q 496 869 493 929 q 335 701 504 732 l 304 804 z "},"ư":{"ha":753,"x_min":53,"x_max":896,"o":"m 868 869 q 896 756 896 810 q 846 628 896 682 q 696 554 796 574 l 696 0 l 503 0 l 476 107 q 238 -14 376 -14 q 144 0 188 -14 q 78 40 100 14 q 59 117 65 56 q 53 303 53 178 l 53 639 l 290 639 l 290 306 q 292 240 290 278 q 300 193 293 203 q 356 179 310 179 l 378 181 q 458 199 417 182 l 458 639 l 694 639 q 738 729 738 676 q 708 824 738 774 l 868 869 z "},"ứ":{"ha":753,"x_min":53,"x_max":896,"o":"m 868 869 q 896 756 896 810 q 846 628 896 682 q 696 554 796 574 l 696 0 l 503 0 l 476 107 q 238 -14 376 -14 q 144 0 188 -14 q 78 40 100 14 q 59 117 65 56 q 53 303 53 178 l 53 639 l 290 639 l 290 306 q 292 240 290 278 q 300 193 293 203 q 356 179 310 179 l 378 181 q 458 199 417 182 l 458 639 l 694 639 q 738 729 738 676 q 708 824 738 774 l 868 869 m 268 765 q 365 851 300 800 q 496 947 431 903 l 569 839 q 451 763 525 808 q 324 685 378 717 l 268 765 z "},"ự":{"ha":753,"x_min":53,"x_max":896,"o":"m 868 869 q 896 756 896 810 q 846 628 896 682 q 696 554 796 574 l 696 0 l 503 0 l 476 107 q 238 -14 376 -14 q 144 0 188 -14 q 78 40 100 14 q 59 117 65 56 q 53 303 53 178 l 53 639 l 290 639 l 290 306 q 292 240 290 278 q 300 193 293 203 q 356 179 310 179 l 378 181 q 458 199 417 182 l 458 639 l 694 639 q 738 729 738 676 q 708 824 738 774 l 868 869 m 469 -169 q 444 -242 469 -215 q 375 -268 419 -268 q 308 -242 332 -268 q 283 -172 283 -217 q 308 -100 283 -126 q 375 -74 332 -74 q 444 -99 418 -74 q 469 -169 469 -125 z "},"ừ":{"ha":753,"x_min":53,"x_max":896,"o":"m 868 869 q 896 756 896 810 q 846 628 896 682 q 696 554 796 574 l 696 0 l 503 0 l 476 107 q 238 -14 376 -14 q 144 0 188 -14 q 78 40 100 14 q 59 117 65 56 q 53 303 53 178 l 53 639 l 290 639 l 290 306 q 292 240 290 278 q 300 193 293 203 q 356 179 310 179 l 378 181 q 458 199 417 182 l 458 639 l 694 639 q 738 729 738 676 q 708 824 738 774 l 868 869 m 425 686 q 297 764 371 718 q 179 840 224 810 l 253 949 q 383 853 318 904 q 481 767 449 801 l 425 686 z "},"ử":{"ha":753,"x_min":53,"x_max":896,"o":"m 868 869 q 896 756 896 810 q 846 628 896 682 q 696 554 796 574 l 696 0 l 503 0 l 476 107 q 238 -14 376 -14 q 144 0 188 -14 q 78 40 100 14 q 59 117 65 56 q 53 303 53 178 l 53 639 l 290 639 l 290 306 q 292 240 290 278 q 300 193 293 203 q 356 179 310 179 l 378 181 q 458 199 417 182 l 458 639 l 694 639 q 738 729 738 676 q 708 824 738 774 l 868 869 m 304 804 q 369 830 353 817 q 386 857 386 843 q 263 924 386 907 l 294 1028 q 440 974 386 1019 q 496 869 493 929 q 335 701 504 732 l 304 804 z "},"ữ":{"ha":753,"x_min":53,"x_max":896,"o":"m 868 869 q 896 756 896 810 q 846 628 896 682 q 696 554 796 574 l 696 0 l 503 0 l 476 107 q 238 -14 376 -14 q 144 0 188 -14 q 78 40 100 14 q 59 117 65 56 q 53 303 53 178 l 53 639 l 290 639 l 290 306 q 292 240 290 278 q 300 193 293 203 q 356 179 310 179 l 378 181 q 458 199 417 182 l 458 639 l 694 639 q 738 729 738 676 q 708 824 738 774 l 868 869 m 585 853 q 586 832 586 846 q 555 746 586 782 q 468 710 524 710 q 422 716 444 710 q 367 733 400 722 q 288 754 315 754 q 256 744 264 754 q 247 717 247 735 l 167 717 l 165 733 q 194 821 165 782 q 283 860 224 860 q 325 855 306 860 q 375 839 344 850 q 464 818 429 818 q 504 853 504 818 l 585 853 z "},"ű":{"ha":753,"x_min":53,"x_max":724,"o":"m 472 897 q 365 808 432 863 q 247 714 297 753 l 182 788 q 268 885 210 826 q 386 996 326 943 l 472 897 m 433 788 q 519 885 461 826 q 638 996 578 943 l 724 897 q 616 808 683 863 q 499 714 549 753 l 433 788 m 458 639 l 696 639 l 696 0 l 503 0 l 476 107 q 238 -14 376 -14 q 144 0 188 -14 q 78 40 100 14 q 59 117 65 56 q 53 303 53 178 l 53 639 l 290 639 l 290 306 q 292 240 290 278 q 300 193 293 203 q 356 179 310 179 l 378 181 q 458 199 417 182 l 458 639 z "},"ū":{"ha":753,"x_min":53,"x_max":696,"o":"m 696 639 l 696 0 l 503 0 l 476 107 q 238 -14 376 -14 q 144 0 188 -14 q 78 40 100 14 q 59 117 65 56 q 53 303 53 178 l 53 639 l 290 639 l 290 306 q 292 240 290 278 q 300 193 293 203 q 356 179 310 179 l 378 181 q 458 199 417 182 l 458 639 l 696 639 m 178 836 l 575 836 l 575 718 l 178 718 l 178 836 z "},"ų":{"ha":753,"x_min":53,"x_max":703,"o":"m 703 -307 q 567 -354 639 -354 q 455 -315 500 -354 q 410 -207 410 -275 q 540 0 410 -101 l 503 0 l 476 107 q 238 -14 376 -14 q 144 0 188 -14 q 78 40 100 14 q 59 117 65 56 q 53 303 53 178 l 53 639 l 290 639 l 290 306 q 292 240 290 278 q 300 193 293 203 q 356 179 310 179 l 378 181 q 458 199 417 182 l 458 639 l 696 639 l 696 0 l 654 0 q 569 -93 596 -51 q 542 -175 542 -135 q 607 -242 542 -242 q 688 -225 635 -242 l 703 -307 z "},"ů":{"ha":753,"x_min":53,"x_max":696,"o":"m 696 639 l 696 0 l 503 0 l 476 107 q 238 -14 376 -14 q 144 0 188 -14 q 78 40 100 14 q 59 117 65 56 q 53 303 53 178 l 53 639 l 290 639 l 290 306 q 292 240 290 278 q 300 193 293 203 q 356 179 310 179 l 378 181 q 458 199 417 182 l 458 639 l 696 639 m 508 842 q 470 749 508 788 q 376 711 432 711 q 283 748 319 711 q 246 842 246 785 q 284 935 246 899 q 379 972 322 972 q 472 936 436 972 q 508 842 508 900 m 439 843 q 422 890 439 874 q 376 907 404 907 q 333 888 350 907 q 315 842 315 869 q 333 794 315 813 q 379 776 350 776 q 422 796 406 776 q 439 843 439 815 z "},"ũ":{"ha":753,"x_min":53,"x_max":696,"o":"m 696 639 l 696 0 l 503 0 l 476 107 q 238 -14 376 -14 q 144 0 188 -14 q 78 40 100 14 q 59 117 65 56 q 53 303 53 178 l 53 639 l 290 639 l 290 306 q 292 240 290 278 q 300 193 293 203 q 356 179 310 179 l 378 181 q 458 199 417 182 l 458 639 l 696 639 m 585 853 q 586 832 586 846 q 555 746 586 782 q 468 710 524 710 q 422 716 444 710 q 367 733 400 722 q 288 754 315 754 q 256 744 264 754 q 247 717 247 735 l 167 717 l 165 733 q 194 821 165 782 q 283 860 224 860 q 325 855 306 860 q 375 839 344 850 q 464 818 429 818 q 504 853 504 818 l 585 853 z "},"v":{"ha":715,"x_min":-1,"x_max":717,"o":"m 468 639 l 717 639 l 522 0 l 193 0 l -1 639 l 247 639 l 351 149 l 365 149 l 468 639 z "},"w":{"ha":1038,"x_min":8,"x_max":1029,"o":"m 450 0 l 150 0 l 8 639 l 251 639 l 314 164 l 318 164 l 389 639 l 646 639 l 721 165 l 726 165 l 785 639 l 1029 639 l 888 0 l 586 0 l 519 386 l 515 386 l 450 0 z "},"ẃ":{"ha":1038,"x_min":8,"x_max":1029,"o":"m 450 0 l 150 0 l 8 639 l 251 639 l 314 164 l 318 164 l 389 639 l 646 639 l 721 165 l 726 165 l 785 639 l 1029 639 l 888 0 l 586 0 l 519 386 l 515 386 l 450 0 m 411 751 q 508 838 443 786 q 639 933 574 889 l 713 825 q 594 749 668 794 q 467 671 521 703 l 411 751 z "},"ŵ":{"ha":1038,"x_min":8,"x_max":1029,"o":"m 450 0 l 150 0 l 8 639 l 251 639 l 314 164 l 318 164 l 389 639 l 646 639 l 721 165 l 726 165 l 785 639 l 1029 639 l 888 0 l 586 0 l 519 386 l 515 386 l 450 0 m 576 918 q 751 769 658 854 l 694 696 q 525 804 592 764 q 353 696 421 740 l 293 768 q 465 918 368 839 l 576 918 z "},"ẅ":{"ha":1038,"x_min":8,"x_max":1029,"o":"m 450 0 l 150 0 l 8 639 l 251 639 l 314 164 l 318 164 l 389 639 l 646 639 l 721 165 l 726 165 l 785 639 l 1029 639 l 888 0 l 586 0 l 519 386 l 515 386 l 450 0 m 483 800 q 457 724 483 751 q 385 696 431 696 q 313 723 339 696 q 286 797 286 750 q 313 874 286 846 q 385 901 339 901 q 458 874 432 901 q 483 800 483 847 m 756 800 q 728 724 756 753 q 656 696 701 696 q 584 723 610 696 q 558 797 558 750 q 584 874 558 846 q 656 901 610 901 q 728 874 701 901 q 756 800 756 847 z "},"ẁ":{"ha":1038,"x_min":8,"x_max":1029,"o":"m 450 0 l 150 0 l 8 639 l 251 639 l 314 164 l 318 164 l 389 639 l 646 639 l 721 165 l 726 165 l 785 639 l 1029 639 l 888 0 l 586 0 l 519 386 l 515 386 l 450 0 m 568 672 q 440 750 514 704 q 322 826 367 796 l 396 935 q 526 839 461 890 q 624 753 592 788 l 568 672 z "},"x":{"ha":719,"x_min":-1,"x_max":721,"o":"m 174 326 l 14 639 l 244 639 l 360 392 l 476 639 l 706 639 l 547 326 l 721 0 l 489 0 l 360 264 l 231 0 l -1 0 l 174 326 z "},"y":{"ha":717,"x_min":-1,"x_max":718,"o":"m 718 639 l 551 104 q 464 -120 503 -50 q 386 -218 425 -190 q 316 -242 364 -233 q 213 -250 268 -250 q 79 -235 129 -250 q 82 -153 78 -201 q 93 -72 86 -106 q 207 -75 151 -75 q 269 -74 249 -75 q 308 11 290 -33 l 213 17 l -1 639 l 250 639 l 361 192 l 363 165 l 367 165 l 467 639 l 718 639 z "},"ý":{"ha":717,"x_min":-1,"x_max":718,"o":"m 718 639 l 551 104 q 464 -120 503 -50 q 386 -218 425 -190 q 316 -242 364 -233 q 213 -250 268 -250 q 79 -235 129 -250 q 82 -153 78 -201 q 93 -72 86 -106 q 207 -75 151 -75 q 269 -74 249 -75 q 308 11 290 -33 l 213 17 l -1 639 l 250 639 l 361 192 l 363 165 l 367 165 l 467 639 l 718 639 m 250 765 q 347 851 282 800 q 478 947 413 903 l 551 839 q 433 763 507 808 q 306 685 360 717 l 250 765 z "},"ŷ":{"ha":717,"x_min":-1,"x_max":718,"o":"m 718 639 l 551 104 q 464 -120 503 -50 q 386 -218 425 -190 q 316 -242 364 -233 q 213 -250 268 -250 q 79 -235 129 -250 q 82 -153 78 -201 q 93 -72 86 -106 q 207 -75 151 -75 q 269 -74 249 -75 q 308 11 290 -33 l 213 17 l -1 639 l 250 639 l 361 192 l 363 165 l 367 165 l 467 639 l 718 639 m 415 932 q 590 783 497 868 l 533 710 q 364 818 431 778 q 192 710 260 754 l 132 782 q 304 932 207 853 l 415 932 z "},"ÿ":{"ha":717,"x_min":-1,"x_max":718,"o":"m 718 639 l 551 104 q 464 -120 503 -50 q 386 -218 425 -190 q 316 -242 364 -233 q 213 -250 268 -250 q 79 -235 129 -250 q 82 -153 78 -201 q 93 -72 86 -106 q 207 -75 151 -75 q 269 -74 249 -75 q 308 11 290 -33 l 213 17 l -1 639 l 250 639 l 361 192 l 363 165 l 367 165 l 467 639 l 718 639 m 322 814 q 296 738 322 765 q 224 710 269 710 q 151 737 178 710 q 125 811 125 764 q 151 888 125 860 q 224 915 178 915 q 297 888 271 915 q 322 814 322 861 m 594 814 q 567 738 594 767 q 494 710 540 710 q 423 737 449 710 q 397 811 397 764 q 423 888 397 860 q 494 915 449 915 q 567 888 540 915 q 594 814 594 861 z "},"ỵ":{"ha":717,"x_min":-1,"x_max":718,"o":"m 718 639 l 551 104 q 464 -120 503 -50 q 386 -218 425 -190 q 316 -242 364 -233 q 213 -250 268 -250 q 79 -235 129 -250 q 82 -153 78 -201 q 93 -72 86 -106 q 207 -75 151 -75 q 269 -74 249 -75 q 308 11 290 -33 l 213 17 l -1 639 l 250 639 l 361 192 l 363 165 l 367 165 l 467 639 l 718 639 m 364 -412 q 339 -485 364 -458 q 269 -511 314 -511 q 202 -485 226 -511 q 178 -415 178 -460 q 202 -343 178 -369 q 269 -317 226 -317 q 338 -342 313 -317 q 364 -412 364 -368 z "},"ỳ":{"ha":717,"x_min":-1,"x_max":718,"o":"m 718 639 l 551 104 q 464 -120 503 -50 q 386 -218 425 -190 q 316 -242 364 -233 q 213 -250 268 -250 q 79 -235 129 -250 q 82 -153 78 -201 q 93 -72 86 -106 q 207 -75 151 -75 q 269 -74 249 -75 q 308 11 290 -33 l 213 17 l -1 639 l 250 639 l 361 192 l 363 165 l 367 165 l 467 639 l 718 639 m 407 686 q 279 764 353 718 q 161 840 206 810 l 235 949 q 365 853 300 904 q 463 767 431 801 l 407 686 z "},"ỷ":{"ha":717,"x_min":-1,"x_max":718,"o":"m 718 639 l 551 104 q 464 -120 503 -50 q 386 -218 425 -190 q 316 -242 364 -233 q 213 -250 268 -250 q 79 -235 129 -250 q 82 -153 78 -201 q 93 -72 86 -106 q 207 -75 151 -75 q 269 -74 249 -75 q 308 11 290 -33 l 213 17 l -1 639 l 250 639 l 361 192 l 363 165 l 367 165 l 467 639 l 718 639 m 286 804 q 351 830 335 817 q 368 857 368 843 q 244 924 368 907 l 276 1028 q 422 974 368 1019 q 478 869 475 929 q 317 701 486 732 l 286 804 z "},"ỹ":{"ha":717,"x_min":-1,"x_max":718,"o":"m 718 639 l 551 104 q 464 -120 503 -50 q 386 -218 425 -190 q 316 -242 364 -233 q 213 -250 268 -250 q 79 -235 129 -250 q 82 -153 78 -201 q 93 -72 86 -106 q 207 -75 151 -75 q 269 -74 249 -75 q 308 11 290 -33 l 213 17 l -1 639 l 250 639 l 361 192 l 363 165 l 367 165 l 467 639 l 718 639 m 567 853 q 568 832 568 846 q 537 746 568 782 q 450 710 506 710 q 404 716 426 710 q 349 733 382 722 q 269 754 297 754 q 238 744 246 754 q 229 717 229 735 l 149 717 l 147 733 q 176 821 147 782 q 265 860 206 860 q 307 855 288 860 q 357 839 326 850 q 446 818 411 818 q 486 853 486 818 l 567 853 z "},"z":{"ha":649,"x_min":38,"x_max":611,"o":"m 611 156 l 611 0 l 38 0 l 38 160 l 346 488 l 46 488 l 46 639 l 604 639 l 604 481 l 297 156 l 611 156 z "},"ź":{"ha":649,"x_min":38,"x_max":611,"o":"m 611 156 l 611 0 l 38 0 l 38 160 l 346 488 l 46 488 l 46 639 l 604 639 l 604 481 l 297 156 l 611 156 m 215 751 q 313 838 247 786 q 443 933 378 889 l 517 825 q 399 749 472 794 q 271 671 325 703 l 215 751 z "},"ž":{"ha":649,"x_min":38,"x_max":611,"o":"m 611 156 l 611 0 l 38 0 l 38 160 l 346 488 l 46 488 l 46 639 l 604 639 l 604 481 l 297 156 l 611 156 m 553 869 l 376 718 l 268 718 l 94 871 l 154 943 l 326 831 l 496 943 l 553 869 z "},"ż":{"ha":649,"x_min":38,"x_max":611,"o":"m 611 156 l 611 0 l 38 0 l 38 160 l 346 488 l 46 488 l 46 639 l 604 639 l 604 481 l 297 156 l 611 156 m 417 800 q 392 728 417 754 q 322 701 367 701 q 255 727 279 701 q 231 797 231 753 q 255 869 231 843 q 322 896 279 896 q 391 870 365 896 q 417 800 417 844 z "},"ẓ":{"ha":649,"x_min":38,"x_max":611,"o":"m 611 156 l 611 0 l 38 0 l 38 160 l 346 488 l 46 488 l 46 639 l 604 639 l 604 481 l 297 156 l 611 156 m 417 -169 q 392 -242 417 -215 q 322 -268 367 -268 q 255 -242 279 -268 q 231 -172 231 -217 q 255 -100 231 -126 q 322 -74 279 -74 q 391 -99 365 -74 q 417 -169 417 -125 z "},"ﬁ":{"ha":861,"x_min":8,"x_max":800,"o":"m 682 718 q 601 750 635 718 q 567 826 567 782 q 601 903 567 871 q 682 935 635 935 q 763 903 729 935 q 796 826 796 871 q 763 750 796 782 q 682 718 729 718 m 800 0 l 563 0 l 563 503 l 472 503 l 350 503 l 350 0 l 113 0 l 113 503 l 8 503 l 8 626 l 113 639 l 113 660 q 129 776 113 721 q 160 843 146 832 q 343 879 203 879 q 514 868 419 879 q 509 801 514 851 q 500 717 504 751 l 440 718 q 360 711 367 718 q 350 651 350 701 l 350 639 l 497 639 l 800 639 l 800 0 z "},"ﬂ":{"ha":860,"x_min":8,"x_max":799,"o":"m 360 711 q 350 651 350 701 l 350 639 l 497 639 l 497 503 l 350 503 l 350 0 l 113 0 l 113 503 l 8 503 l 8 626 l 113 639 l 113 660 q 129 776 113 721 q 160 843 146 832 q 343 879 203 879 q 514 868 419 879 q 509 801 514 851 q 500 717 504 751 l 440 718 q 360 711 367 718 m 561 833 l 799 843 l 799 0 l 561 0 l 561 833 z "},"ء":{"ha":510,"x_min":42,"x_max":468,"o":"m 468 210 q 447 118 467 178 q 415 39 428 58 q 246 17 346 35 q 65 -24 146 -1 q 49 26 56 -10 q 42 92 42 61 q 46 124 42 114 q 140 163 90 146 q 86 285 86 217 q 116 376 86 332 q 192 448 146 421 q 282 475 238 475 q 338 461 314 475 q 378 422 364 447 q 392 365 392 396 q 369 290 392 322 q 293 306 331 306 q 242 294 261 306 q 219 264 222 283 q 226 231 218 250 q 249 193 233 213 q 461 221 367 221 l 468 210 z "},"ا":{"ha":340,"x_min":42,"x_max":285,"o":"m 51 3 q 58 233 58 114 q 42 774 58 457 l 267 786 q 285 281 285 519 q 279 35 285 129 q 186 8 250 18 q 60 -4 122 -3 l 51 3 z "},"ﺎ":{"ha":339,"x_min":42,"x_max":376,"o":"m 339 258 q 369 226 361 258 q 376 129 376 194 q 368 31 376 63 q 339 0 360 0 q 191 10 263 0 q 71 40 119 19 q 50 492 58 90 l 42 774 l 265 786 q 278 406 278 579 q 275 264 278 353 q 339 258 310 258 z "},"أ":{"ha":340,"x_min":24,"x_max":288,"o":"m 288 949 q 271 894 285 929 q 249 847 257 858 q 144 839 206 847 q 35 819 82 831 q 26 847 29 828 q 24 885 24 865 q 26 911 24 906 q 86 931 51 922 q 57 1003 57 965 q 76 1058 57 1032 q 123 1101 94 1085 q 179 1117 151 1117 q 217 1107 201 1117 q 247 1051 247 1089 q 229 1001 247 1024 q 179 1014 203 1014 q 149 1006 161 1014 q 138 986 138 999 q 153 946 138 967 q 256 957 208 957 l 282 956 l 288 949 m 267 786 q 285 281 285 519 q 279 35 285 129 q 186 8 250 18 q 60 -4 122 -3 l 51 3 q 58 233 58 114 q 42 774 58 457 l 267 786 z "},"ﺄ":{"ha":339,"x_min":25,"x_max":376,"o":"m 339 258 q 369 226 361 258 q 376 129 376 194 q 368 31 376 63 q 339 0 360 0 q 191 10 263 0 q 71 40 119 19 q 50 492 58 90 l 42 774 l 265 786 q 278 406 278 579 q 275 264 278 353 q 339 258 310 258 m 289 949 q 272 894 286 929 q 250 847 258 858 q 145 839 207 847 q 36 819 83 831 q 28 847 31 828 q 25 885 25 865 q 28 911 25 906 q 88 931 53 922 q 58 1003 58 965 q 77 1058 58 1032 q 124 1101 96 1085 q 181 1117 153 1117 q 218 1107 203 1117 q 249 1051 249 1089 q 231 1001 249 1024 q 181 1014 203 1014 q 151 1006 163 1014 q 139 986 139 999 q 154 946 139 967 q 257 957 210 957 l 283 956 l 289 949 z "},"إ":{"ha":340,"x_min":42,"x_max":306,"o":"m 51 3 q 58 233 58 114 q 42 774 58 457 l 267 786 q 285 281 285 519 q 279 35 285 129 q 186 8 250 18 q 60 -4 122 -3 l 51 3 m 306 -210 q 289 -265 303 -229 q 267 -311 275 -300 q 162 -319 224 -311 q 53 -339 100 -328 q 44 -312 47 -331 q 42 -274 42 -293 q 44 -247 42 -253 q 104 -228 69 -236 q 75 -156 75 -193 q 94 -100 75 -126 q 141 -58 113 -74 q 197 -42 169 -42 q 235 -51 219 -42 q 265 -107 265 -69 q 247 -157 265 -135 q 197 -144 221 -144 q 167 -152 179 -144 q 156 -172 156 -160 q 171 -212 156 -192 q 274 -201 226 -201 l 300 -203 l 306 -210 z "},"ﺈ":{"ha":339,"x_min":42,"x_max":376,"o":"m 339 258 q 369 226 361 258 q 376 129 376 194 q 368 31 376 63 q 339 0 360 0 q 191 10 263 0 q 71 40 119 19 q 50 492 58 90 l 42 774 l 265 786 q 278 406 278 579 q 275 264 278 353 q 339 258 310 258 m 319 -210 q 303 -265 317 -229 q 281 -311 289 -300 q 176 -319 238 -311 q 67 -339 114 -328 q 58 -312 61 -331 q 56 -274 56 -293 q 58 -247 56 -253 q 118 -228 83 -236 q 89 -156 89 -193 q 108 -100 89 -126 q 155 -58 126 -74 q 211 -42 183 -42 q 249 -51 233 -42 q 279 -107 279 -69 q 261 -157 279 -135 q 211 -144 235 -144 q 181 -152 193 -144 q 169 -172 169 -160 q 185 -212 169 -192 q 288 -201 240 -201 l 314 -203 l 319 -210 z "},"ٲ":{"ha":340,"x_min":-154,"x_max":285,"o":"m 78 822 q 38 826 54 819 q 3 847 22 833 q -42 868 -25 867 q -121 825 -67 872 q -154 892 -142 850 q -101 951 -137 924 q -40 979 -65 979 q -10 971 -24 979 q 21 947 4 963 q 51 925 39 932 q 78 922 63 918 q 82 924 81 922 q 56 992 56 956 q 74 1047 56 1021 q 122 1090 93 1074 q 179 1106 151 1106 q 218 1094 203 1106 q 246 1040 246 1076 q 228 988 246 1013 q 174 1003 197 1003 q 136 975 136 1003 q 150 936 136 956 q 238 942 189 942 q 279 940 265 942 l 285 935 q 266 878 281 914 q 242 833 251 843 q 78 822 188 835 m 267 786 q 285 281 285 519 q 279 35 285 129 q 186 8 250 18 q 60 -4 122 -3 l 51 3 q 58 233 58 114 q 42 774 58 457 l 267 786 z "},"ٳ":{"ha":340,"x_min":-139,"x_max":300,"o":"m 51 3 q 58 233 58 114 q 42 774 58 457 l 267 786 q 285 281 285 519 q 279 35 285 129 q 186 8 250 18 q 60 -4 122 -3 l 51 3 m 300 -211 q 281 -267 296 -232 q 257 -312 267 -303 q 93 -324 203 -311 q 53 -319 69 -326 q 18 -299 38 -312 q -26 -278 -10 -279 q -106 -321 -51 -274 q -139 -254 -126 -296 q -86 -194 -122 -222 q -25 -167 -50 -167 q 6 -175 -8 -167 q 36 -199 19 -183 q 66 -221 54 -214 q 93 -224 78 -228 q 97 -222 96 -224 q 71 -154 71 -190 q 90 -99 71 -125 q 138 -56 108 -72 q 194 -40 167 -40 q 233 -51 218 -40 q 261 -106 261 -69 q 243 -158 261 -133 q 189 -143 213 -143 q 151 -171 151 -143 q 165 -210 151 -190 q 253 -204 204 -204 q 294 -206 281 -204 l 300 -211 z "},"آ":{"ha":340,"x_min":-68,"x_max":378,"o":"m 51 3 q 58 233 58 114 q 42 774 58 457 l 267 786 q 285 281 285 519 q 279 35 285 129 q 186 8 250 18 q 60 -4 122 -3 l 51 3 m 361 1029 q 378 967 378 1000 q 344 883 378 918 q 249 849 311 849 q 157 860 221 849 q 118 865 144 861 q 75 869 92 869 q 31 858 43 869 q 14 826 18 846 l -47 826 q -68 911 -68 871 q -33 999 -68 964 q 64 1033 3 1033 q 161 1017 97 1033 q 197 1008 168 1015 q 254 1001 226 1001 q 305 1009 285 1001 q 332 1029 325 1017 l 361 1029 z "},"ﺂ":{"ha":339,"x_min":-67,"x_max":379,"o":"m 339 258 q 369 226 361 258 q 376 129 376 194 q 368 31 376 63 q 339 0 360 0 q 191 10 263 0 q 71 40 119 19 q 50 492 58 90 l 42 774 l 265 786 q 278 406 278 579 q 275 264 278 353 q 339 258 310 258 m 363 1029 q 379 967 379 1000 q 346 883 379 918 q 250 849 313 849 q 158 860 222 849 q 119 865 146 861 q 76 869 93 869 q 32 858 44 869 q 15 826 19 846 l -46 826 q -67 911 -67 871 q -31 999 -67 964 q 65 1033 4 1033 q 163 1017 99 1033 q 199 1008 169 1015 q 256 1001 228 1001 q 306 1009 286 1001 q 333 1029 326 1017 l 363 1029 z "},"ٱ":{"ha":340,"x_min":-50,"x_max":360,"o":"m 51 3 q 58 233 58 114 q 42 774 58 457 l 267 786 q 285 281 285 519 q 279 35 285 129 q 186 8 250 18 q 60 -4 122 -3 l 51 3 m 228 1092 q 322 1052 283 1092 q 360 956 360 1013 q 326 865 360 904 q 235 826 293 826 q 173 838 203 826 q 107 867 143 849 q 53 888 65 888 q 20 872 39 888 q -14 832 1 856 l -22 832 q -41 877 -32 847 q -50 928 -50 907 q -12 975 -39 956 q 53 994 14 994 q 74 993 67 994 q 81 992 78 993 q 144 1067 104 1042 q 228 1092 183 1092 m 240 944 q 301 957 281 944 q 275 978 296 971 q 226 985 254 985 q 147 967 183 985 q 240 944 189 944 z "},"ﭑ":{"ha":339,"x_min":-49,"x_max":376,"o":"m 339 258 q 369 226 361 258 q 376 129 376 194 q 368 31 376 63 q 339 0 360 0 q 191 10 263 0 q 71 40 119 19 q 50 492 58 90 l 42 774 l 265 786 q 278 406 278 579 q 275 264 278 353 q 339 258 310 258 m 229 1092 q 323 1052 285 1092 q 361 956 361 1013 q 328 865 361 904 q 236 826 294 826 q 174 838 204 826 q 108 867 144 849 q 54 888 67 888 q 22 872 40 888 q -12 832 3 856 l -21 832 q -40 877 -31 847 q -49 928 -49 907 q -11 975 -37 956 q 54 994 15 994 q 75 993 68 994 q 82 992 79 993 q 145 1067 106 1042 q 229 1092 185 1092 m 242 944 q 303 957 282 944 q 276 978 297 971 q 228 985 256 985 q 149 967 185 985 q 242 944 190 944 z "},"ٮ":{"ha":932,"x_min":42,"x_max":890,"o":"m 865 468 q 890 281 890 379 q 833 35 890 135 q 676 3 775 15 q 460 -8 578 -8 q 42 35 240 -8 q 99 288 57 169 q 535 253 318 253 q 689 260 615 253 q 661 358 676 311 q 642 417 646 406 l 865 468 z "},"ب":{"ha":932,"x_min":42,"x_max":890,"o":"m 865 468 q 890 281 890 379 q 833 35 890 135 q 676 3 775 15 q 460 -8 578 -8 q 42 35 240 -8 q 99 288 57 169 q 535 253 318 253 q 689 260 615 253 q 661 358 676 311 q 642 417 646 406 l 865 468 m 483 -340 q 407 -297 454 -329 q 342 -240 360 -264 q 363 -191 346 -222 q 403 -134 381 -160 q 442 -106 425 -108 q 488 -119 457 -103 q 547 -160 519 -136 q 576 -199 574 -185 q 545 -272 582 -219 q 483 -340 508 -324 z "}}}
